<mxfile host="app.diagrams.net" modified="2020-08-19T15:50:42.587Z" agent="5.0 (Macintosh; Intel Mac OS X 10_13_6) AppleWebKit/537.36 (KHTML, like Gecko) Chrome/84.0.4147.89 Safari/537.36" etag="X8KztH7P-NbOzAi6MNod" version="13.6.2" type="github">
  <diagram id="k8Db-JrUwG8N62mrykIl" name="第 1 页">
    <mxGraphModel dx="1398" dy="497" grid="0" gridSize="10" guides="1" tooltips="1" connect="1" arrows="1" fold="1" page="1" pageScale="1" pageWidth="827" pageHeight="1169" background="none" math="0" shadow="0">
      <root>
        <mxCell id="0" />
        <mxCell id="1" parent="0" />
        <mxCell id="jNVcOdFPqT6PLHqW6wM0-10" style="edgeStyle=orthogonalEdgeStyle;rounded=0;orthogonalLoop=1;jettySize=auto;html=1;exitX=0.5;exitY=1;exitDx=0;exitDy=0;entryX=0.5;entryY=0;entryDx=0;entryDy=0;labelBackgroundColor=#F4F1DE;strokeColor=#E07A5F;fontColor=#393C56;" edge="1" parent="1" source="jNVcOdFPqT6PLHqW6wM0-3" target="jNVcOdFPqT6PLHqW6wM0-4">
          <mxGeometry relative="1" as="geometry" />
        </mxCell>
        <mxCell id="jNVcOdFPqT6PLHqW6wM0-3" value="Tokenizer&lt;br&gt;（词法分析）" style="rounded=1;whiteSpace=wrap;html=1;fillColor=#F2CC8F;strokeColor=#E07A5F;fontColor=#393C56;" vertex="1" parent="1">
          <mxGeometry x="198" y="190" width="120" height="60" as="geometry" />
        </mxCell>
        <mxCell id="jNVcOdFPqT6PLHqW6wM0-11" style="edgeStyle=orthogonalEdgeStyle;rounded=0;orthogonalLoop=1;jettySize=auto;html=1;exitX=0.5;exitY=1;exitDx=0;exitDy=0;entryX=0.5;entryY=0;entryDx=0;entryDy=0;labelBackgroundColor=#F4F1DE;strokeColor=#E07A5F;fontColor=#393C56;" edge="1" parent="1" source="jNVcOdFPqT6PLHqW6wM0-4" target="jNVcOdFPqT6PLHqW6wM0-5">
          <mxGeometry relative="1" as="geometry" />
        </mxCell>
        <mxCell id="jNVcOdFPqT6PLHqW6wM0-4" value="Parser&lt;br&gt;（语法分析）" style="rounded=1;whiteSpace=wrap;html=1;fillColor=#F2CC8F;strokeColor=#E07A5F;fontColor=#393C56;" vertex="1" parent="1">
          <mxGeometry x="198" y="300" width="120" height="60" as="geometry" />
        </mxCell>
        <mxCell id="jNVcOdFPqT6PLHqW6wM0-12" style="edgeStyle=orthogonalEdgeStyle;rounded=0;orthogonalLoop=1;jettySize=auto;html=1;exitX=0.5;exitY=1;exitDx=0;exitDy=0;entryX=0.5;entryY=0;entryDx=0;entryDy=0;labelBackgroundColor=#F4F1DE;strokeColor=#E07A5F;fontColor=#393C56;" edge="1" parent="1" source="jNVcOdFPqT6PLHqW6wM0-5" target="jNVcOdFPqT6PLHqW6wM0-6">
          <mxGeometry relative="1" as="geometry" />
        </mxCell>
        <mxCell id="jNVcOdFPqT6PLHqW6wM0-5" value="Traverse&lt;br&gt;（遍历节点）" style="rounded=1;whiteSpace=wrap;html=1;fillColor=#F2CC8F;strokeColor=#E07A5F;fontColor=#393C56;" vertex="1" parent="1">
          <mxGeometry x="198" y="410" width="120" height="60" as="geometry" />
        </mxCell>
        <mxCell id="jNVcOdFPqT6PLHqW6wM0-13" style="edgeStyle=orthogonalEdgeStyle;rounded=0;orthogonalLoop=1;jettySize=auto;html=1;exitX=0.5;exitY=1;exitDx=0;exitDy=0;entryX=0.5;entryY=0;entryDx=0;entryDy=0;labelBackgroundColor=#F4F1DE;strokeColor=#E07A5F;fontColor=#393C56;" edge="1" parent="1" source="jNVcOdFPqT6PLHqW6wM0-6" target="jNVcOdFPqT6PLHqW6wM0-7">
          <mxGeometry relative="1" as="geometry" />
        </mxCell>
        <mxCell id="jNVcOdFPqT6PLHqW6wM0-6" value="Transformer&lt;br&gt;（节点转换）" style="rounded=1;whiteSpace=wrap;html=1;fillColor=#F2CC8F;strokeColor=#E07A5F;fontColor=#393C56;" vertex="1" parent="1">
          <mxGeometry x="198" y="520" width="120" height="60" as="geometry" />
        </mxCell>
        <mxCell id="jNVcOdFPqT6PLHqW6wM0-7" value="Generator&lt;br&gt;（代码生成）" style="rounded=1;whiteSpace=wrap;html=1;fillColor=#F2CC8F;strokeColor=#E07A5F;fontColor=#393C56;" vertex="1" parent="1">
          <mxGeometry x="198" y="630" width="120" height="60" as="geometry" />
        </mxCell>
        <mxCell id="jNVcOdFPqT6PLHqW6wM0-9" style="edgeStyle=orthogonalEdgeStyle;rounded=0;orthogonalLoop=1;jettySize=auto;html=1;exitX=0.5;exitY=1;exitDx=0;exitDy=0;entryX=0.5;entryY=0;entryDx=0;entryDy=0;labelBackgroundColor=#F4F1DE;strokeColor=#E07A5F;fontColor=#393C56;" edge="1" parent="1" source="jNVcOdFPqT6PLHqW6wM0-8" target="jNVcOdFPqT6PLHqW6wM0-3">
          <mxGeometry relative="1" as="geometry" />
        </mxCell>
        <mxCell id="jNVcOdFPqT6PLHqW6wM0-8" value="var a=&quot;用户体验&quot;" style="text;whiteSpace=wrap;html=1;align=center;fontColor=#393C56;" vertex="1" parent="1">
          <mxGeometry x="198" y="120" width="120" height="30" as="geometry" />
        </mxCell>
        <mxCell id="jNVcOdFPqT6PLHqW6wM0-15" value="[&#39;var&#39;,&#39;a&#39;,&#39;=&#39;,&#39;用户体验&#39;]" style="text;whiteSpace=wrap;html=1;align=center;fontColor=#393C56;" vertex="1" parent="1">
          <mxGeometry x="610" y="205" width="120" height="30" as="geometry" />
        </mxCell>
        <mxCell id="jNVcOdFPqT6PLHqW6wM0-16" value="将源代码分割成Token数组" style="text;whiteSpace=wrap;html=1;align=center;fontColor=#393C56;" vertex="1" parent="1">
          <mxGeometry x="360" y="205" width="160" height="30" as="geometry" />
        </mxCell>
        <mxCell id="jNVcOdFPqT6PLHqW6wM0-17" value="将Token数组转换为AST" style="text;whiteSpace=wrap;html=1;align=center;fontColor=#393C56;" vertex="1" parent="1">
          <mxGeometry x="370" y="315" width="140" height="30" as="geometry" />
        </mxCell>
        <mxCell id="jNVcOdFPqT6PLHqW6wM0-18" value="" style="shape=image;verticalLabelPosition=bottom;verticalAlign=top;aspect=fixed;imageAspect=0;image=data:image/png,iVBORw0KGgoAAAANSUhEUgAAAggAAAHtCAYAAAB8nYbPAAAgAElEQVR4XuydB3Rc1bWG/xnNjDQa9d6bJUsusmW5yrItd+MCGAyhQyCQ8EJeQkiABAidAEkIJCF5SUgh9FDduy1brrItuclFttV7H7Xp5a19xjOWrGZZGhlZ+6zFwrpz7infudL+z9773JE0NTVZwYUJMAEmwASYABNgAh0ISFgg8PPABJgAE2ACTIAJXE6ABQI/E0yACTABJsAEmEAXAiwQ+KFgAkyACTABJsAEvp0CwWzUok1dClitUPlGQyZXDvpSGbRq6NpqLrYrgYd/HKRS2aD348wGLWYj8g++BzdVAGJTvuPMrrhtJsAEmAATGOEEvhUehJOZv0F1wX6xFLEptyJ+yv2Dviwndv4GNYW2PqhMXvYi/MJSBr2ffjdotaC+4hh8gkZDpvDo9XaTQYM9nz0MlXcYpt38u353db3coNVqodHpxHTkcjm8PHrndr3Mm+fBBJgAExhKAt8KgUATph1+1icPIWbiSqcIBMAK8lSoa88id9PLmLL8FfiGJg8l6277spgM2PmfuxA36TbEpd7V63jIg3Bs28vw9I9DwtQHr/nYr9UAsg4dQlV1NSQSCQL8/DA/Pf1aDYX7ZQJMgAlctwSuqUAwm7TQtdXDTeUPSFyQ+Z+7uggEs0mP6sIsGHUtUHqGIDhmJiCRdFkQdc0ZtDYUQKH0QUDEZGjba6HyCofksjBCc905HFrzVK8CQbTVWCgMUGB0GlyVvo7+rFYL9O21sEICuUIldv16TQPqSrOhUPohKHqGo67FYkZzzWm0NRVT9ARhCfO6eAksFhN2/vsORI1fhtHTv9fjg2bUt4JYWC0mMUcXmVu3dc0mA2qK9oCEh8o3Er4h4zuNXddWBxJLSs9gNJQfhaalEoGRU+HmGdylvea6fLTUnYNMoYJ/xGQ0VBxDcGz6NQ/N7D10CBXV1Vg4axY8PT2hkMuv219QnhgTYAJM4FoRuCYCwWzS4eSu36Ou+JBj3r6h49BUfRqxE29xeBDKz2zC+cMfwGTQwkXuCrNRD1d3X4xOewghsbPFve3qMpzK+iOaa893YZiU/ggixyzvdL03gUBGeO/nj8Kkb3fcQyJh7JwfISxhgbjW2lCEg9/8VPybxuzmEYiq87sc9WNSbkXClPtBc9zz6SOgNu1F6iJD8ryfISgmDVaLGSd3vQW9pgnq6jOQu3rA0z9G5GGQqJmw4GnIFO7iVqvVisz/3AEy/lQix96ApJmPdpoX1ck/8DeUnd5su04iymqFu3eo6NMrIB4V+Vtwes//iY9dVX7QtzfaqkpdkDzvCWH8qZgM7Tiy/pdobSyFwt0bRm0rSBhRmbL8VfiGXhIddO1oXh4KS0uFoabdvMrdNm5nFbtAWLZgATxVKmd1w+0yASbABEY0gaEXCFYrstc9hZbaCwiNn42o8TehvuwISvPWw6hvc+QgNNfm4/C6X8DdOwwTFz0DlXc4GiuOIi/rXZiNOsy+6z3I5O44vO5ptNQVIHjUbMRPuQe61lqcPfB3tDYUI2nmw4gcu6LTAvcmEMgwnt77F/gEJyI8cbEIe2SveVIY84x7PxA7ZzKU2tYanNj+BlobS0RCZdT4FfALm4CK/G0IG71Q/NtiNuBU1p/gF56M0PgF0LZW4fDaX8IrMB6pN7wg2jyz/28waJtRV3IISs9AYcTprVUkSsbN/hFcOiRr6jWNMBvakbPpJQRGT+kiEIqOfYELRz4WxpuMvau7nxgP9QGLBXPu/hfkbp6ir+Pb34SHXwzGZfwIVosFR9Y/CxIvc+/9SIgFdc1ZwT55/s8QEjdbCIaTmb9HfVlOt56XtVu3QnsxJ2DmlCmIDAtz6i8VCwSn4uXGmQATYAK2zWN/X5Rkqq2GpUXdLT6puwqysMhe0ZLhzPzgbrFbHT/XthOnUnl+O07tftchEI5ufRX1pUcwYcGT8PSNulhLgorzO1F8/GtMX/kWpC4uOPDV4wiMnoaURc842tK0VOHQmicxetr9CEtcfMUCwWo1o6X+As7u/zs0rTVwdfOCtqUWdH3u/Z90Ol1BBrSlvhDTb3kLHj5d50z5Ag0VR3Eh5yPo2xsgV3rDoGmGm7sv0la96xiTPQchcuwSJKZ9v/fH0mrFvs//B/6RKV0EQvaanwlvxJy7/tWpjZqivTix43dIWfKsCCW01J9H9uqnMOPWt+HpFyPqnt73LirP7sC8Bz4VoYvmuvOCn2/oWEQnrxQhFoXSGySugqLThIjoWA7k5KCiqkqsB7n9vTw9nfrrxQLBqXi5cSbABJjA1QmE5j+/Cd2urd3ic0lKRsAr7/SKVtdeL1zviWkPI2rcJfc/ueQz/3MPYibeLEIMtKttqj7VY1upS1+A3NUL2at/JuL3iTM6G1dqT+qigEQivWKBQEcIS/M2wEWuEPkCJqMW1Rf2iPu7EwgUm5+05FfdjNGKQ2ueFgaVDGvY6LnCnV9TdADuXiGDLhAovLD7o/vg6ReLyctf6TQebWs19n3+Q1sIIW6WTSCseQrpt/8F7l6h3QoE8m4c2/4a6ktzO7VFIY+JC5+GX9jETtepf4PRCKlUCrnM+UdHWSDwXy8mwASYgPMJ9NuDYCzIh7mmqtuRSf0DoUgc1+uo6SRB5of3IiJpMZJm/sBRlxIRT+78vcODkLv5JTSUH0ParW+LeHnnIoHc1RPtTSXY/9VPEByXjgnzn+xUpan6JDx8Y0S9jqWnEAPt+ClJUuUXgakr3oSLzFXcdmwbeTJy+iUQSFjs+fR7CImbJeZo33GT18FkaOteIIxfisTpD/e+4r15EFY/Ab1W3cWDUF2wGycz38bERU+L3f+VCATK6yjI/S9GTb5TnPygXIb25kqc3vNnhCctQtJlno6isjIUl5WJHISpKSlOTxpkgeD8PwzcAxNgAkyg3wJhoMgohr/v80ehba3FqNTvICg2Ha2NRTh/8H1h4ELiZ2Hc7B+joTwXx7a9Ca/AURiT/qjY7bY1laC26ACqi/Zi8rJXRV5C9pqfi8TBhKn3ISh6Ogy6ZpSf2YLK85kYM+sHiEhaKobc1lgEOjHQ2lAoEvUoP8E7KFHE4OnYIGX2Z/7nbkhkcky+4UVh1KsL96HkxDcUicHUG1+Dd1CSyEugUwundv9JJE4mzbR5Lsg1r7oYarALBA+/aCTOeEjkG1BblGfh5uEvvA4evtHiPlvI5R6R7Ji65DnBoK7kMOpKD2HKitehoDBHWy2MOrU4CXGCmAQnIHbiKmG45W5e4nRH0fEvcOHwx/CPmITEGd8TJx3qyw6LcVKZfed7IhGS2FEoJ2XR0wiInAqTUYOTmW+hofwEZtzyO8GCTivkbnoRUeNvRHTyzVC4eaOpOg/Ht72OiDE3YPT0hzo9Buu2bYNGqxXX0qdORUSozTPhrMICwVlkuV0mwASYwCUCQy4QhLFuKhEGiGLm9qL0CIRWHMEDxmU8hrCERbiQ8zFK89aJpER7oZ09JdhNXvay2OVrW6qQu+UVaJorHXUo4c47cDRSl74owgxk1Hd/8qAwqN2VKSteFccBi45/hYIjH4lTA8Loy92g9AhCW1Op+JlEwqmsd6Fp7upBkSmUmHvfx46QxvHtb4iEQHv2P7nnKemQ8hFIfMz/7ueQXozlXzjyEYqPf+XoVypTwNM3GlNufEPUoURMdU1+t2OXu3lg7r0fChFzKusdVF3YIwSJvdARUuJA4qX87Gac2ftXx2eTl76Ixqo8FB37Ulwjbhn3foi2hiIcXv+M4ySE/QY6QZKy+Bl4BSR0GsvW3bvR1Nwsri2YNUu8m8CZhQWCM+ly20yACTABG4FrIhCoYzKctJs3atXwCkoSZ+1x8SidyBu4+K4Dcv2ra06LnbbSM1R4Ei5PkiPDr9c2ifbkrip4BiR0Oavf0WhevvgSKeUp2N6tYDLq0FyTJ/IbPANGCYNPXgYBSyq1GfEehMbl46KTB/RuBleV/0WPge3ooa2tjol+VtA8SThRSMRNFSj6so9JiIwe+ry8LWqnqSoPVqsJ7t7hwrvgyMOwWh2Cpaf50LjI06JRl8LdJwra5grx/gUXmUL8fHlOh20trWhtb4fSzY1zEPgvCxNgAkzgOiFwzQTCdcKPp3ENCNg9CPTOBR8vL/G6ZS5MgAkwASYwuARYIAwuT25tCAgczMlFSUW56CkoIADzZs4cgl65CybABJjAyCLAAmFkrfd1M1ujySTm4iKViuOVXJgAE2ACTGBwCbBAGFye3BoTYAJMgAkwgeuCAAuE62IZeRJMgAkwASbABAaXAAuEweXJrTEBJsAEmAATuC4IsEC4LpaRJ8EEmAATYAJMYHAJsEAYXJ7cGhNgAkyACTCB64IAC4TrYhl5EkyACTABJsAEBpcAC4TB5cmtMQEmwASYABO4LgiwQLgulpEnwQSYABNgAkxgcAmwQBhcnt22pjGY4SqTwkVq+74HLkyACTABJsAEvu0EWCA4eYVK63X49dclmD7aCw/O7f/XIJ+paEdjuwn+HnIkhbn3OFqL1Yojha0wmm1fBhXgIUdiL/WdPO1+N19Yq0WV2iDuM5mtmBHvBVc5vyGx3yB7uaGtvR3qlhaEh9AXeLFYHUy23BYTuB4JXPcC4WhxK06WtsNFChhNVtwyNRCeShm+yK4RhoiKt1KGFZMDnLK+5Y06vPplCdKSvPDAnP4LBBIXJDJSYjzw6OLwHsfYojXjFx8VgIQClYQwJX62IqrfczKYLPhsf00nbwd9meW0eC+nCo6/bqvEsaJWx3ifvz0GYb6u/R6/M2748+ZyzBrjg4nRHs5ofkjaPHz8OApLSkRfizIy4OftPST9cidMgAkMXwLXvUDYeLQBG3MbhBgI81PgkYXh8HGX4Q8by1Bar4fFYkV8qM2YOmNTRQb3dLkGob4KBHsrrupJeW9HJcxma68CgRomaUDzef2bEri7SvHEVQgEjd6M36wpRbXagBAfBdwUUlQ06oW4GhuhwoPzQuGp7PhV1Vc1pW5vIiFSXK/Db1aX4IXbYxD6LREIz3xSiFlJ3liW6j94kx3iljZs3wGpVIIZqanw9fEZ4t65OybABIYjgeteINCirDlch12n1PjNffGQu9hcq7TR/suWchTV6vDGvaMgk0qEe/5oUSvKGvRo1pigkEkwIdoDyZEeDvFQUq9DYbUWdCE+WAm5TIKcwlbUNhsQ5ueKhcm+jt33nrPNwmCbrVakRHvAz6Pr1xKX1euQX6VBZaMBJosVEX6umJHgBS93meN5+ufOShhMViye6IfKJj3MFiDIS44x4aouooZEAnkdlApJtwLBbLEKj0peWRu0Bgu8lDKMj1QJ428XSCQOXvq8CE+ujEJckFL0veZIHXblqTFrjDfuSg92jC2vrB0nS9vQpjNDqXARno6xEe6QdlBbtS0G5Ba0olJtEIKD2tQazMJDcHkYpLhOjze+Ke5RIBTUaHG+SiMEjMUKjApWIm20FxQyWziiRWtCTkErJFIJ3ORSTIhSIaeoFUU1OrFWSyb6iXWge0+VtaGkTof6VqOY++hQd+EpseeKtOvNYu5vri7BlFFemD/+kmH1UcnRMaWkqE6HU6VtqG8zgYYSH+yOSbEejjAJCa/sCzYPiZ+HTPR16EILimt18FC6iHF5uDlHeInfgS1bEBIUhOmTJg3Hv1M8ZibABK4BgREhEMob9Xj1y2LcOC0Qy1P8BOaGNiOe/aQQ92WEID3R5m4tqNHht2tKoHJ1EX/Y9UYLyEg8vTIKsUFKUWddbgP2nlYLQzQ2UoVTpe2iPrn2yeA+tyoGEf6usFqteO6zIrHzpro/WBSGSbGeXZaYdvu0QyfjQEaqRWNGfIgSP10R2UkgHL5oXKge9aXRWxDu5yr66+j56E0g0H0f7K7GwXMt8FK6wM9TjvoWozDuSyb5Y+WUANEW5QK8/EURnrwpCnHBtnlT+e3aUmFo33pgFFzlLvjrtnKcKG4XHgUyuo1tRrRqzZg7zhd3pgeJe6qa9HjlyxLRLo2dhFmrziT+n57kg/vmXBIbVL83gWAwW/HTf58X4SIbcwghNypEKcZK5UKNFu9tqxTMA7zkcJFI0NBqFMKExnbLtAAsSfEXouC5TwuFiFC6SmE228TF8sn+uHFygBBhP/n3OUcY6vKFsz8TxHvvGTU+3lMj2iJjT94qGleIrwK/XBktxAsJuz9sKBesiXtjq1EIERKhdO3Gqf5YPsk5YS4a+1cbNyIiNJQFwjX4I8tdMoHhSmBECAT6I06GuLxBj7cfiBfG/8C5Znyypwav3R0ndtFU6A97i84MD1ep+KPeqjPjyQ8uiPjzvbNthozaol340x8VoF1nxswkb9wxMwjkHidB4e0ucxhsqkeG5mcfXMBD80K6FQjN7Sbh+hW7Rwmw9kg9thxrxO/uHwV3hW1HSR4EEgh3pAcjPdFLGMYNOQ3YdqIRt6YFYnGyTfTYx9eTB2F/frMQCAsm+OKWaYE2r4nJij9vLcfZcg1+dlMUEkKUPQqEPRcN4fO3xUBnsuC3q0uxOMVP5G+QZ4b4vb2hDAXVWvxkeYTY3T/7aSHadRY8tTISUf5usADYkNuATbkNmDPWB3fPunKBQPMjEULrR2yssOK/+2pxvKQNr98zivCJQtx/s7YUJbU6BPso8LMbI0V9MsQkLMiTQAwbWozCoJN4oHso7EQ7+rcfSIDMRQJ1u0ms9xvflCA11gMLJlzkbAV8PWTCwJPQeP6zQgR6y/H0zdFwvygWyVvwn8wq4Q367jxb7gl5k/68tcImKpUueGFVDNwULiDvAo2D1sMZxWw2C4EQFR4uQgxcmAATYAJXQuBbLxAM506j/euPu52LxMMLPo89Jdz9fRVyg/95cwWeuug2f/HzIri4SPDcrZd24AU1Gqw53ADyOFDM31UuETv6yaM88MiCSwmCZDR+/sEFTIzxwP1zQnrtmgTCT98/jwe7EQjUzuf7a5BX2i52nDIXm6GivIXf3R8vjJldIDS2mRy7ZLpG4ZDnPisULvC37h/lcOn35kH4fH8tduY1ibBJxyOXao1ReAYov2B6glePAoFE1X92VeNXt8XgcGELNuc2Cle5qoNrvL7VgLJ6PVZM8cfsMT7CS3PT1AAsthvXi7TW59YLwUBj6Vh68yCQgf94TzWK63RCnMllUuGJkLkAb94b7xAI1N6ba0tQ2WDAq3fGdZsz0dRuwqd7a1Bcp4XOYBGig4QMPUp/eNAmEOyFchDSk7yxvJscBArXUBIjeXwuD5eQSDEYbV4le/nTpnLh0Xj+9thOIYq+nt+r+dxkMuHwseOorq+DwWDA1IkpiIvuf+Lq1fTN9zABJjD8CXzrBYLu8D40/+b5bklLw6MR+PY/AEnfx+Ha9GY89UEBJsaqsGiCH36zulTsLBNCbUcHyVtApwDI3bx0kj9iAt1ARvn9zCqkxKq6FQiUE0Cx495KbwLhq+xabDveJIzy1HiKo0tAu/zs8y1dBILOaMFjSyI6dfXiF0Woazbijw8lOAx+bwLhk7012He2GdPiPYVno1ORAAvG+yI60K1HgfDFAZvAIGO86Vg9Mk+qMSnOE/LLdr5kZNMSvUViJgmE29OCkDH2yhLjehMI/9xZJXJE5ozxEfF9kwViPCV12m4FQnO7Gb++K67L8pCoeHtDKS5UabEg2RfJ0R7C+0MJraV1+n4JBMo/eW97JZ67LUbkj3Qsf95SITwev7pMINBa2kMizvwTotPrsXHHDpjMZkglUizOmAMvz65hLmeOgdtmAkxg+BL41guEwUT73s5KHC1ow/god1Q0GvBaB+Nhf19Bx+N19Meddo9T4j3x8Pwwx1DsHoRFE/1wwxUKhIfmhyAl5tIfZ5shLxbhBYpTU6FrXx6sxc6TTXjrgfhOIYYzFRo8vyrGkbxIyXUUNokKUuKZlZ13hSLE4CrFT5dfymOg9sm1T/+9eHsMgjqcqKDQALnKfVUysZPuLgeBPidXe3iAK366LFKEaMib8OPlERgbrnKwIc8GcaOwDSVnkkCICnDD/y4NdyQSkoHcn68WpxQo0bJjKanX4/Wvi/HCd2IQ6tPZ4L65pkSEcB5dZPPm0Lgp9n+qvK1bgaBuN+P1bgQCjZG8OpPjPfFghs39rzdZ8M6Gsh4EQgFmjPbGTVNsOQLk5SEPBI2lssmAN74uFqLyxos5HFSnWWvC858ViXyS/116SdiRB2GoBIKd6/niYhw9eRKjomMweULyYP5KcVtMgAlcxwRGlEDQGa144j/nRL4A7drJpW4vlET28hfFYif+g8VhyK/UIPNkk4hVe7u74LvzQzEmTIVDBS3Crf9xVrVIUrQnHlLsvuMxRsqk1xotwpj8d38tUuM8kBSuEu3FB7mJEw9k4MnQ08kAEg/krSA3OpWV0wPFjr6oVovP99ehvEEnxrYkxReteotIlKSX3bx1fzyUCima2o04UaoBecbp1Ab1c1taIExmINhLjtFh7qLOLz8uFG70O9ODMSFahWPFbfjyQJ2Ij39/URgmRnti64kGrD5Uj5um+iPc3w0H8ltwvLhVuPN/eUu08DLQOH/5cYE4ebFyWiCmx3sir0KDL/fXit34XbOCxU7/gz3V2H+mGYFectybEQy1xozP9tSIhM7FE31x63RbMuPhwlZxX1WjHjtONmHZZH+R+EhzTkvwEnXeWleGC9Ua0R8l+n2+r0YkHlI44J45wUiN9RQelYJaHb7YXyPGe+esYDFfpVyK1DhPEYagMZNAoDDSvXNCxBpR+MX+kql75wQjbbS3wytD4ai6FiMeWRgGyhn5+lCdCAPdnxEiTj1QuInmkxLriTvSg0Ri5l+3VIjn5PHlkUgKd0dRjRaVzQasPlQHuVQq5kfFVyXHuIieX4A1WH97OElxsEhyO0xg5BAYUQKBlpWMMnkLXr4jThgte6Hd+4F8NT7MshkWKhnjfIQByi1sRZCPAs/cEi2SFu2GpONjQoZh3jhfcYl2ts98WogWjanbJ2nueB/cOTNYGNk/biwX46FCO9JbpwfiP7urYKXkxpsi8cWBOiEi6MQCCRV6pwIVypB/aF6o2J1T2ZvfjI92V3fbX3SQm8NLUdVkwD92VqKiQe+oS4l8lLQ4LlIljPRTH1564RJVotDH5DhPkf1P70awFzraSW2RW95egnzkuGlyoMjPoMRFYrn3rBqf7atxhDV8VDJ8Z2aQEEUUnSAx84uPC7rlReLn9w8kCCNPIu7dzeVobLVxJaFCoZkvD9SKnynWvzdfLY5jXl5orV+6g+L+ttwCymOgMJP9xVJkxElAUOIq1Xn5zlgEeNqeD3pfxl+2lkPdZuuXTkeQt2BSjIfwipD3Ye2RBuw40ejo1t9LLtaHEjWp/GFjOc6Ut3cZV1KEOx5f1tnT0+0iDvAiC4QBAuTbmcAIJDDiBAIZI9otd0xC67jutDNs11vEi4bo+xOcXciA0vE6slv0hse+0i0poY6MGmXLD6RQn8SC5khGeCCFhA6JIoU4XdB9WySqqB5l6tuPdF5Nn7R2zVqzEB+UHNkXr976II6UhEoCqC+etE707gZKbO3puSBxpTFYhOihEMsV5M5eDYKrumfdtm3w8fLC7OnTr+p+vokJMIGRR2DECYSRt8Q8YyYAbN+zBw1NTfD19kZGWhpcFVf3Vk9myQSYwMghwAJh5Kw1z3QEE2jXaLDrwAFx3HHhnDnwVHVODh3BaHjqTIAJ9ECABQI/GkxgBBGgN3zyNzmOoAXnqTKBARBggTAAeHwrE2ACTIAJMIHrlQALhOt1ZXleTIAJMAEmwAQGQIAFwgDg8a1MgAkwASbABK5XAiwQrteV5XkxASbABJgAExgAARYIA4DHtzIBJsAEmAATuF4JsEC4XleW58UEmAATYAJMYAAEWCAMAB7fygSYABNgAkzgeiXAAuF6XVmeFxNgAkyACTCBARBggTAAeHwrUNmshkrhCneFAlUtzQjx8oLCRfatQNOgaUebTodoP9s3J3JhAr0RoJdIVbY0w0PhCpWrApXNzQj18obcZWDfe8LUmcBwJcACwYkrZzEbIZG6QCIZ2JchOXGIA2qavvTyuTVfISkkFLNGJeD/snbigZmzMS4kbEDtDsbNNLbfbduEurZWvLD8ZiFi+lOqW5rx1dEj4q2Dt6ZMRoiXd4+3HyktxqGiQti/OWrJ2GSMCgjsT3fXrK5aq8HHhw443q4Y7uOLmydMumbjubxjg4m+TGtoDLTOZMRrm9YhzNsH8xLH4F/7snDLpClIix31reHBA2ECQ0mABYITae//6kfwj0hF4vSHnNjLtW3615vXYXxYBFIio/Fu5jZ8f/ZcxAcGQ2c04q0dmx3ftujv4YkfzJqLY+Wl2JB3XFynHduM2FFYkDRu0CdBAuGvWZmoaW3G04uXQym/9NXeV9JZo6Yda47l4kx1JR6bu7BXL8SZ6iocKSmE3mTCuZpq3DUtDZMioq6km051vjp2BGerKh3G2my1wsvVDbMTEjEpMnpA31zZ02Da9DqsPpYrPi6sr0Ogpyf+Z878fo/dGTfklpVgzfFcvLh85ZC8HtpkseD1zeswLiwCqVHR+MuuHfjuzNkY+y0QvM7gy20ygb4IsEDoi9AAPt//5Y/gHZiAcRk/6aYVK6wWi+26BJBIbLskq8XsqEveB/vPEil5ISQdfu5+V0VeC7NJL/6gusjchAfDmeX1LesxITwS02Li8NutG/GT+YtBu1D6Y/vxof04XVUJD1c3TI6OwbJxE0Bu/w0nj+NUZbkIS9w9LQ0JgcFiiGarBUaTGWTcZVJpF9cufT2zvUglElHPYDIJoeHWQQDQdctFtsSB6nZX7PdTu/QVza6yziKCRMIbm9c7BIK9/57aa2hvw5tbNvQqEMwWCwxmE2jwcplMzNNeDpUUYe3xXMhdZBgXHgF1uwZlTfXQGgwYExqGB9Nmd5oGtUWihKZHYR2XDm11rEh1aOx2pkYzfa4aWUYAACAASURBVF121+fin/uyxNh6EgjUBt1r40Vfe905lGTnY4UVLhe9ZrQ+JHQULi6dxtdXWzR+8sx8lXsYr9x4K2S9uPlpHfUmo2BKDC6fm2NcVqv4/NK6W8Sa29eTeNLznBIRjZmj4sXaP7FoKUI8vZz5K8RtM4FvLQEWCE5Ympb6c9C0VOPs/vfg7hWCyLFLabssegqMToNM4Y683W+hofykMPpkxGbd8Te0Nhbi2NbXxTWpiwtm3f5/2PflYzCbDIgavwxVBXth1LaIdkJGpSNxxiOdRl92egMKc/8Ls9kg2pC7qjBx0TPw8o/rMsucEyfQqFZjfFISQoOCrprCu7u2Izk8EhMjIvH65vV4esly+LnbvimQ/uC+tnkdpBIpnr1hhWMXSHkLf9i5FStTJjvct3sLziEz/4wwQGTwZVIXLE2eiGnRsTbhdDFkoDMahAElIfKv/VmoaWkWn4V6+eCHGbad74ZTJ5BbXCT+TYaFxnS5UW9ob8dfs3aAXNgWq0WMLdzXD4+kZzjq2gXCHVNmYPe5M2g36Gm1MCshEXMTErsw60sg5NdU47852ULUUCGjuTx5EiZHRTva+tueXUKsPDJrrrhGdb8+loOjZSV4fMESEROnQp6YtcePCoNO8ofExu2p0zAmJNTRFgmD9/buRm1rs2DqInURxtNkNuOxuQsQ4OHZaQ69CYTatlb8Y+8u4RmitmhNJ0VFY+XEVNEGGeHfbtvomNt9M2ZhV/5ZFDXUCrEW6u3rWJ/ixgZ8nL1f1CX21FZqVAxunmgLbdB6nqgoR35NJY4UF2FV6lS4XBQIfkp3xHUI3zRpNHhv3y6Ra0K/Yi5SCUYHh+DuqWmOtuhZa9VpRcMPzcrAtjN5KKqrE30TA3qW7P2+tW0TZo5KEM/zq5vW4fmlN0HJX4191X8f+MbhTYAFwiCvn9VqQeaH98Bs0HbbcsqiXyIwejrqy3NwOuvP0GsaETFmCZLSvg+joQ0ndv4WTZV5CI6bieR5P0dp3lqcP/IRrGYTpFIZQuIz0Fh5HLq2eviGjMXk5a+KHIcLhz9A0fGv4RUQh5iJq2AyaHDhyIcwGbSYdtOb8OwgEpqam7F1924xPnelEjcuWjTIFC41t+v8WWw8eRwPzpzjMF4fZO/DhdoaPLfsZmEkqfxjXxYq1I2YO3oMfJTuWH/yKDQGI55bdpMjPLCv4DzOVlfhfF2N8BiQoZseOwq5pSVwcZHimSUrhHEvqK9FQZ3tv6pmNV5ccUsXgXCqqgIfHNyHqTFxSAgMwomKMpysKMcDabMxLtSWQ2EXCPRvb6W7EEKnqyrQ2N6G8eGRuH/6zE7cehMIOaUl+DL3kGhn0ZhxUMhk2Jh3HA1tbVg0Zry4RuVvezKFWPn+RYFA18gIvrllPcaEhuOBGenIPHcWm/KOw0/lgSXjkoUB3n72FNQaDe6bkS5c4iQO/pS5DbWtLUgICsH4sHAxR2JC5YmFS0VCacfSm0BYn3cc+y6cQ3r8aET4+GJvwXmUNtQLIZMQFCyM+sGiApQ2NiCnpEjMk4xy2qgEXKirgcFowi+WLBdz++Z4Lg4XF2JGbDxi/QPEfMqbGnDf9HQkh0egQk0Ccku3z2SErx9+PM/2vJarm/De3l0wmkxYNDYZ/ioVjpWVIq+yHKHePkIEkWclu7gQJQ31wiOhUiigNxoxPS4eeRXlwtP17NIbO3lynPbLwA0zgWFGgAWC0xbMin1fPAbvwHiMy3hc7LqoSDu4/BsrjyFn00uISFqEMek/FJ8f3vAMtM3VmH3nexfDA1bs+ug+yBUemHbzbyF3te368na/jarzuzH1xl/D0y8Ouz66F+7e4Zix8i3HjFrqC3Bo7dNw8wzE7Dv+botlAFCTQMjKEmPy9PDAsvnOiznTLu3F9auRFBKGu6fOEP2/snGtMFi3pEx2jJWMfUlTA+rbWsUuvbq1GXvPn8Mjs+cJA24vR0qK8HnOIUT4+uOBtHR4uyl7XMEd+Wex+9zpbgUCrQYlMJKRIxc47dq/yDmMsWER+O6MdNGmXSCQUSJDSHkM5BUhMVNQV4PvzZqLxCBbeIRKTwKBvCKvblorDNlTS5aLkAsVWg1KiiOxQMaTSncCgfp8bu1X8HFX4alFS/HKprXCvf/zhUuFYbb3/fvtmyGVSvHqjbeChNmWUyfFbpiSDskwU90Ps/cjr6IMTyy8oUviZV8hhrKmRiG4xNglEuH+v2liKmbGxTsYVJB3aMcWeCmVeGjmHJHw110h416pbhJjolDTR9n7hdijhFAqNGfKQRAhhptWOQRex5ARCc3TlRUiTyAp+JLnZM2Jo0LM/GDOfEeyKHma3tq+GYGeXrh3+kyHJ6bHh4c/YAJMACwQnPgQ7P+SBMLoHnIQbB0f2fAMWuoLkXHPv2HQNGHv548hfso9iE257eLIbAIhauxyxKXe5Rhte3MF9n/xGMITFyAiaQmy1zzV40wov2H+dz+F1EXhqFNcVgZ1SwsS4uKgUvZsZAcDz/sH9qCgrg7PL78ZZepG/HX3Tjw8ay5GXzSutNv9Y+Y21LW2wF3hCpmLFBq9XuzuHp6VgdFBIY5hHC4uwurjuXhu6Y19un57EggUI1934hj2XjgndpjkQqYxUPiCdukPps0S/dkFwg8zFiDGP+ASe70eL29cg/mJY7Fk7HjH9Z4EQpteL5LfSCh0V0ggvHzjrcIIdicQSDz9at3Xwh1O+QEvbVjtEJyXt0cG9IXlK7H1dB4OlRSK+H3H3AQKSRwtL8XkyJguu+aeBAL1/96BLBTV1sJVLoebTC5YETMKE3UUCGVNTfhT5lY8lD6nk9HuOM5/7d+Ds9WVQhiRONAajCKHgATCqklTHFX7ykF4e8cWUir46cUQgf3GmtYWUKjghvETMH/0GHGZhA3V7yvhdDCed26DCVwvBFggOHElr0Qg1Jfl4OiWVxAcOwPNNeeh16ox/8H/inCCrdgEQmjCXCROf9gxWspXOPj1EwhPnIeIpKVCIATHpiFq/IouM3L3ioBC2fmYnlarRbtWiwA/PycSsDWdX1uNf+7djaXjJyIz/7TY5T6/7GbHrvCTIwdxrLQEt06agukxtnyJ6pYWvL1jc7cCYc2JXOEWVsovCZ7uJtGTQChsqBMiJcjLB4/PXwQXiUTE0GmXPjo4tItA6ChmqJ9mrRZ0emNB0lgsHnPlAiHaPxBLx0+AsUMiKrXnoVAgyMPm7u9OINDOncIFqdGxuGl8Cl7euBqJIWHISEgCLjtBSx4Vf3cVvjmWK05WkPDoKXnxcmY9CQQKEfx9zy5kjB6DpeOShedDazSKnBOaT3cC4fuz5yG+g+fH3leFuknkn0yJicNtk6bYTrMAQvRQsmt/BMKfd+9Au16PpxYv6zQVex+LxyZjYdLYTgLhR/MWIcrX+c+803+puAMmMAQEWCA4EfK+L/4HKu8IpCx+VvRi0KlRemo9QuJmw8PXnphmRe7mFy4mLFoxZtYPEZFkS5rqKBAoQjHtxteh8omExaRHzuYXoK4+i+krfwsP3xiR9+Dm7of07/yfI5RApxlKTn4Do74diTO+52ixrb0dmzIzRezay9MTS+fNcyIF23HGN7duFH/Maad4++RpmHox+ZA6/uf+LJGTQDtf+2kEcuOfq6nC5YYmp7QY3xzLwbOUPNbH0cVd5/OFILn8mFx+bQ3+uXcXHkzPwJhgm3fiYFEhvj56WBxxozg/FYr9087f002JxzIWwE+lEl6AP1Bsv6UZP5y7EDEdXsJkr3/v9HRMCI9wMCVPyGub1oqEyB/NXYhQ70tijU4ukPv7xuQUUf/ve3eLcMfD6RniZ0qm/Nf+3UKU2OdMYQnygtDxTXvGPgmc/UUXUN7YiO9MngYKxXyZexhxgUF4ZFaG41TBplMncLS0RBxHvTxJkXb2RrMJP5jd+Xk4VVmJ/xzcI5IkKWRA67nx1Alknc/HrSlTMD32UhIsvVzonR2b8eic+Z2SCe0wLtTV4u97MjsdH6RcjN3nzmJGXHynsNPhi3N4bulN8HSzhWXoSOmF+hosHzcRn+ceQm5JscjDWJBoEwJ0EoaOt1LoiMRA5EUxQLkY9F6M/+1wzakPPTfOBK4DAiwQnLiIx7e/gdrig/CPSIHFbIK65ow4pjgu438RlrDA0TMlHeZsfEHkHGTc874jz6CjQDDq2kQyotIrWIQiTEad8BhMmP+UcLNSMmP+wX9BJlciZNRskfDYWHFciAPqP/WGFxzCobahAZn79onmnZ2kaJ/kjrOnseU0ndoAfnHDCsdJB/r5QFEBvjl6RCS2Rfr5Ib+mShx3pEJGLD0+AYEeXqA2mrXtaGpvR3RAoMMD8cCMWQ6xQAmLB4sLxGeUz9Cq04nwALneaatKeQuUiU+ChQwdHR+k0EZda6voj049jA0NF0mDZGApuY0KucPpZUk1LS1C5MxJSMSK5BQRK//w0H7hJie3O7myvd3d4a/yEF6J+YljhKudEiff379H7JbpvRE0PvKstGq1CPH2wRMLlmDL6TzsuZAvdvwxfgGgF/dQ/3QP5WvQOyOokEiiPAw66TEpMgoGsxnna2vQrteJth6/6HL/MHsfTlVWiLg7jZ121pRgGezlLUIV5N4/XV2JXflnxEkCShK1WCHWgAolI9Ic7TtyCi/QOy4qm5vEGlDxVanECYRp0XH47MhBUDiFeAZ4esLLTSkYkJfF7k1o1mnxmy0bxBzjg4JR3tQEtcbWlsrVDWNDw2yeBYkEVSQ2dm4RIojCTOXqRpGIqXJ1xS9vuFEkG1KSIr3UKjE4FL4qd5yvrUVDW6sY0+2pU8XbPSmcpDXqUU1vRvTxEZ4nEtz3zZgp3prIhQkwge4JsEBw4pNhMRlw9sB70LRUiT94bip/RE+4pYP3wNZ5Q3kOcje/gnFzfoSw0QsvG5EtxBCX8h2YTTqoa88Lp2xIbBpCO4gMuomEBp1kMBu14r0KFFYIHz0fAVFTHeKA6pFhPJibC51ej8jQUMTH2o4SOrO06LT4/MgheCqVYod7+ZsJduSfRn51lTAoZFhunDAJtNs1mIziJUzBnt7YcvpEN0OU4K6pMxxn8unFRtlFBT1O5c4pM4SXgozNxpMnoDebREx9RtwoIRJKG+uFUJk7Okm8pIfK5OhYHC8vE0fppFIJpkbHCcNsZ/nZkWzbOfxuCrnlKVOfChkymhMZUUrEJA/IuPBwzIixGf5d586iuKGuUyveShVmCYHU+UhiaVMjtp4+KcQOPVv0psiJkVGdXtBE67z7wjmcqaoQ+RyU2EgGnt4SaOdf0tggvCzdlWi/AFGXCp3woKOoJIjIQGeMTkJOSbEQJVF+AeI9GCSobAGDzoVOpnTM4aC29hWcE2MikUIvyqK1J+FByY23pNhCD1TO19Vid/4Z0S+JNzrCOCt+tONzOipJx1op4ZGeHcopSYmMxPSLTBvb27H2hG0dLy93TJneZ5iqxweJP2ACI4AAC4RrushWsZM5vP5paFtqMfvOv3dKJLQNzSYQYieuQnTyyk6G/poOnTtnAkyACTCB65oAC4RrtLxNNadwOutdsZvXtlSLpMSo8cuRMO3BSyOyWpG99km01hdC5uoBuUIlvAJTV7wuwgpcmAATYAJMgAk4iwALBGeR7aPddnUpio9/1ckh6xsyDuGJlxIUSTyc2fsuLBbbm/eoKNy8MXo6iQgWCNdo6bhbJsAEmMCIIMACYUQsM0+SCTABJsAEmED/CLBA6B8vrs0EmAATYAJMYEQQYIEwIpaZJ8kEmAATYAJMoH8EWCD0jxfXZgJMgAkwASYwIgiwQBgRy8yTZAJMgAkwASbQPwIsEPrHi2szASbABJgAExgRBFggjIhl5kkyASbABJgAE+gfARYI/ePFtZkAE2ACTIAJjAgCLBBGxDLzJJkAE2ACTIAJ9I8AC4T+8eLaTIAJMAEmwARGBAEWCCNimXmSTIAJMAEmwAT6R4AFQv94cW0mwASYABNgAiOCAAuEEbHMPEkmwASYABNgAv0jwAKhf7y4NhNgAkyACTCBEUGABcKIWGaeJBNgAkyACTCB/hFggdA/Xlx7AAQsVivqW1sR4OkJqUQygJb4VibABJgAE3A2ARYIzibcR/tVFzJRX3oEyfOfHJKRmE065G56EYkzHoJX4Ogh6dPeybazp5F59hRiAoLw/VkZQ9o3d8YEmAATYAL9I8ACoX+8Br12Qe4nKDm5FvPu/wQSiXTQ27+8QaO+Dbs+vBfxU+9F7MTbnN6fvYOq5ma8s3MLrFYr4gKD8ejsuUPWN3fEBJgAE2AC/SfAAqH/zK7oDl17PeqKD6Kp5jSkUhf4BI9FW1MpwkYvgFdAPAArdG11KD65GhVntyFt1R8hkdoEgkyugtzVw9GPtrUaDeXHoK45DbNZD5V3hGjH3SvMUae+7LBoj0rIqLloaypBTdF+6DX1CIychpD4DJA4MGgbceCrxxE1bhmik1fCCiskkMBVFQjJZW5/vcEAdXMz5HI5/Hx8rmjePVX6IHsfalta0KRpR6RfAAuEAdHkm5kAE2ACzifAAsEJjC1mI/Z89ghMhnaofMNhMmiha62D1WpBwvQHEJN8C+pKs3Fs6+vd9h4QOQmTlrzg+Oz49tdRV3IILnIlJBIXmAwayN08MOfufzu8Dkc2PIuWugugvoNipqGm6CBc5G7iZ6vFjDl3/xMHv34cBl1r1z4lEsy6429QegR1+mzLrl1Qt7SIa4tmz4afr+9V0TpVXYkPDuzFo3Pm4x/7diPS158FwlWR5JuYABNgAkNHgAWCE1gbtM3I+vQhJKX/ABGJi4W3QNNSgwNf/RjxU+9B9PibYTEb0K6uQPnZTajI34HpK3/vGIlcoYKbR4DjZ11bLawWC1xV/pC6yFGRvxWn9/wFU5a/At/QZFGPREBj1QnkbnpZ9JeY9jDCEubDZNTAYjLA3TsUmpZqGHXNOLT2F8IDITwIVouo7+ETCYnUpRONtVu3QqvTiWupyclIiI29Klq/3bYJwV7euHdaGp5b+xWi2INwVRz5JibABJjAUBJggeAE2majFns+e1gYX+/ARMhcVZC6KKD0DEDMhFVwkbk5ei04+imKj3+D+fd/2sVA2ysVHv0vagr3QtNaI8IBEhcZTPp2TFryLAIipzraaqo+hSPrn8WYWY8iIumGbmdmz0EYNflOxE26s9fZF5eV4VxhITzcVZg+ORUuF0Mg/UG26dRJ7Dp3Bj9dcAOCPD3xq7VfI9rfH3dMmQ5vN2V/muK6TIAJMAEmMIQEWCA4CXZj5XGU5K2DrrUGZrMRBq0aZqMOEWOWYEz6/1yxQKBTDnm7/gDv4ESEJ8yDwt0PDRVHUXZqU/cCYcNzmLnqj1D5RPYhEO5A3KS7+py9TqeDTC6HzKWzd6HPG8kvYbXijS0bRN6Bq1wufjaYTOJWN7kCL61Y2SXv4Ura5TpMgAkwASbgfAIsEJzA2KhrQdan38OU5a/COyjR0cP+L34oEhHTVr17SSDkfiI8CHSKgcIHVOh+yh2gkMKJzN+KY5Bz7/sIUqntc3uIYdKS5xAQOaWzB+EKBUJsyirET7lP3Gu1mKBrb4Cru59jDHR93+HDKK+qglwmw4qFC6FQKPpNa93JY2hsbxP3WawSnK2ugEImQ0ZCEhYmje13e3wDE2ACTIAJDA0BFghO4GzQNSPrk4dEQuHYOf+DoKgZqC/PwcnMtxEQMQkpi59z9Fp+ZhPO7PsbvINHI3biKhQf/xot9UVQegZi5m1/xqk9f0BlfiZ8Q8ciZsKtOJf9b2iaq0T4IihmKuKnfhcq7zCUnlqLtqZycSIiOvlGuKr8RB+h8QugcPNy9Ee5DzvfvwOQSDE2/QfQaZtQcnw1zCY9kuf9DMFx6Y6667Ztg0arFT8PJAeB7ifPwZ6Cc9h6Ok94D+6bPhPxgZ2TIp2wFNwkE2ACTIAJXCUBFghXCa632ygRMOvThwEJYDEZHVW9A+Mxfu4TcPe+dDyRPAVn9v0FlecyHfWCoqciZuIqeAclgfIZjm17DY2VeeJziVSG0dPuR0Hup+J0ROTYGxAz8Tbs/ez7FxMOO48sdenz8A9P7XSxpf48cje+AKNBI64rlF6IS70LoaMyIFO4O+ruP3IEZZWV4pjjsvnz4ebqetW0Spsa8W7mNsf90f4BeCxjwVW3xzcyASbABJiAcwmwQHASX6O+BTKFh8g7ICNPYsHV3b/H3qgO7eLp/QckAi4vuvY6WM0muHkGD9oLlSgvQuoiE+PsqRiMRkil0qvKQXASWm6WCTABJsAEhoAAC4QhgMxdMAEmwASYABMYbgRYIAy3FePxMgEmwASYABMYAgIsEIYAMnfBBJgAE2ACTGC4EWCBMNxWjMfLBJgAE2ACTGAICLBAGALI3AUTYAJMgAkwgeFGgAXCcFsxHi8TYAJMgAkwgSEgwAJhCCBzF0yACTABJsAEhhsBFgjDbcV4vEyACTABJsAEhoAAC4QhgMxdMAEmwASYABMYbgRYIAy3FePxMgEmwASYABMYAgIsEIYAMnfBBJgAE2ACTGC4EWCBMNxWjMfLBJgAE2ACTGAICLBAGALI3AUTYAJMgAkwgeFGgAXCcFsxHi8TYAJMgAkwgSEgwAJhCCBzF0yACTABJsAEhhsBFgjDbcV4vEyACTABJsAEhoAAC4QhgMxdMAEmwASYABMYbgRYIAy3FQPQri6F1WqBi9wdSo8gp87AYrWC/pNJpT32ozMaYbZaoFK4OnUs3DgTYAJMgAkMHQEWCEPHelB6am8qxf6vfiza8vSLxoxb3wEgGZS27Y1YrVZUtTTjQFEBjpYWI8rPH9+fNbdLH3WtrfjXgT1oaGsVn/mqPPDDOfPgrXQf1PFwY0yACTABJjD0BFggDD3zAfZohdGgQe6m52E1m5wiENRaLV7fvA4kFKjEBwV3EQiteh1e37weJrMZKyakwGIFNp48BoVMhhdX3NKrx2GAAPh2JsAEmAATGAICLBCcCNliMqCuNBtGfSvcVAHwj5gMidTlYo9W6DUNgBVwVfmjuTYf7eoy+IYmQ+kZ0mVUVosJ2rZayOTuUCh9kLPxORh1rU4RCNR5q04Hd4UCf8naCVeZrItA0BgMeGv7ZtwzLQ1xAYFivF8cPYLDRQV4bO5CRPv5O5EsN80EmAATYALOJsACwSmErSg9tQEFuZ/CpG+HVKYAiQWlVwjGz/kxfELGCnGQ9cnDIIWg9AyEtrXOMZKk9B8gcsxSx8+leWtRkPsZTAaNuObpHwuTUQOZzK2LQDh74QLOnD8PuVyO6ZMmIdB/YIb6T7u2dysQusP2/sG9OF1ZgccXLEGYt49TyHKjTIAJMAEmMDQEWCA4gXNrYzGyv3kC7t5hmDD/5/Dwi0Fd6SHk7XoHUhcZ0r/zN8jkbmipO4fstb+Aws0byfMeh5sqEIfXPwsXuStmfeevIreg/OxmnNn7V6h8wjFq8t0wm3QoyPkUurb6LjkIFBL4asMGmC0WMav4mBhMnjBhQDO8UoFQ1tSIP2Vug5/KA08vXgaJZHDzIgY0Cb6ZCTABJsAE+k2ABUK/kfV9w7Ftr6Ku5AgmL38Znr5RjhtO7f0/1BVnY/LSF+AXPglmow6ZH9yNcRn/i9D4eaLe2QN/Q+W5nZh336eQSCXY/+WPoNc0IePeDyG9GJ4wGdqw+6MHoPKJ6OJB2JOdjaraWtHWtIkpiImK7HvAvdS4EoGg1mrw683rQeccnlqyHH7uqgH1yTczASbABJjAtSfAAsEJa7Dvy0ehUVf32PL4uSQIFjgEwpQbX4NP0JiuAkEiQdanD8ErYBRSFj/Xqb2cjc/CqGvrNgehXaOBVCqF0s1twLPrSyA0aTXCc6A1GPDj+YsR6uU94D65ASbABJgAE7j2BFggOGENDq97Cuqac5h+82/g5mFL4LMXiUQKuZvNiNo9CFNWvAaf4G4EglSCvf99VIQl0lb9CXSv7T4t9nz2sEh8vPyYY01dHS4UF4schPGJiXBXKgc0w94EQkWzGv/ctxsGkwn3Tk9HUnDX5MoBdc43MwEmwASYwDUjwALBCejrSg7i2PY3ERybhlGpdwlDrmmpQk3RPlSe34mJC56Cd2ASWhqLcGj1zzB+7uMIiZsDs9mAU1l/QF3pEcxY+RZUPpE4sfNN1BQeEG3FTrodFrMJ57Lfh7r6NFTe4SBxQacaqNChxK/Xb4DJYhY/J8TGIjU5ud8zpFyG2ovvNvgoez/c5HKsSp0KmUSKAA8P0V67QY9fb1oHo9mM+UljEesfKI5FfnzoAB5Kn4NY/4B+98s3MAEmwASYwLeHAAsEZ6yF1Yqj215FY/lxWCwmRw/kCVB6hWLqil+LEwl7P38UuPiugUlLnkNT9UkUH18j6ktd5Jj/wGeARIrs1U+gtaHI0Y5MoYLFbIDFbBQnGeZ991OR0EgGev227dDotKJuclISxo4e3e8ZNmk0eGPLesd7EDo28MpNq8SphsOlxfjiSLYIZVguJkXa6z08ay5GBwX3u1++gQkwASbABL49BFggOHEtDLpmNNecEcac3m3g5hkMuaunLVRgtUKvbXL0TicZyODT8UUqVMfuGaDrbeoyaNRlcFUFwNM/TrRptZjFexXoXnsxm81oaWuDzMUFHirVVZ0mIKFBL0Lqrni6KcV7G+mkBHkRuiserm6Q8ikGJz5Z3DQTYAJMwPkEWCA4nzH3wASYABNgAkxg2BFggTDslowHzASYABNgAkzA+QRYIDifMffABJgAE2ACTGDYEWCBMOyWjAfMBJgAE2ACTMD5BFggOJ8x98AEmAATYAJMYNgRYIEw7JaMB8wEmAATYAJMwPkEWCA4nzH3wASYABNgAkxg2BFggTDslowHzASYABNgAkzA+QRYIDifMffABJgAE2ACTGDYEWCBMOyWjAfMBJgAE2ACTMD5BFggOJ8x98AEmAATUGkzVgAAIABJREFUYAJMYNgRYIEw7JaMB8wEmAATYAJMwPkEWCA4nzH3wASYABNgAkxg2BFggTDslowHzASYABNgAkzA+QRYIDifMffABJgAE2ACTGDYEWCBMOyWjAfMBJgAE2ACTMD5BFggOJ8x98AEmAATYAJMYNgRYIEw7JaMB8wEmAATYAJMwPkEWCA4g7HVilN734VGXQ5AAkgkSF36ElxcFM7ozaltarRanMo/B61Oi+QxY+Dr7e3U/kZ642azGdm5R2GFFbFRUQgLDh7pSHj+TIAJXCMCLBB6Ad/U1oD1Rz7D7TMfhJvCvV9LdCHnY2iaK6Frq0dL/QXMu+8juMiV/Wrj21D5wJEclFZWwMfLC1NSUuDv43NVw2pta4OHSgWJRHJV91/JTUaTCQaDASr3/q3VlbTtrDokwLIOHoTFYkFCXBzioqLEz3WNjbBarbhp8WIo3dyc1T23ywSYABPokQALhF4ejoKqM3jps5/gnUc+gZ9HwFU9RtWFWcjb9YdeBYLFbIDFbBTtk4iQSKRd+rJaLTAbtQCskMrcRB2rxQypi/yqxnWlN23OzIRUKsXijIwrvaVLPTKC67dvx+zp0xEaFHTV7fR1Y1Z2NqivG+bO7avqt+ZzvcGAgzk5qK6rwxzic9FjUFFVhb2HDwvu7LX51iwXD4QJjCgCLBCusUC4cPgDlJ/dBovFRMEIuMjdkLLoGXgFJjhG1q4uRe7Gl2A0aoRAEKEKiRRuKj9Mu/l3nQQFGZw92dlwVyqRNnnygHfs32zeLLwH82bO7JEU7X6bW1pEX95eXtDqdKJ/e7lQVIzckydxy7KlkMtk3bZDbZCXwWQ2w8/Hp89xq1taIHNxEV4Je9mUmSk8HNMmTXLqLzGNtaGpSYwxwM+vx77Uzc1wcXGBp4dHr+OpqavD7oMHsWLhQge3mrp67DqwH3PT0hAcGOjU+XDjTIAJMIHuCLBAuIyK2WKGxtBGdhhFtefwu6+fwev3/wPeKl/h8vVw8+rTeHVssicPArV1fPuvUVdyGN5BoxGdvBImQzvOH3pfeBOS5/0UgdFpaG0sxJH1v4LJqEHkmBug8olE8YmvRehC6RmE9O/81SEQqM3VmzfDYLR5IxLjRiFl/LgBPfnfbNoEH2/vHgXCgZwclFdVCXFjtlgggQQqlTuWL1iAdo0Gh44eRZtGI3b2gf7+jrFMmTgRXhcN58GcXJRVVQo3OxVqY176TEf9jTt3oq29XXw2KiYGpeXljjlOS0kR7niNRiP+76ZQQHVRNJCwSU1OHtD8O95Mwif76FHU1teLZ4EKCZ7pqakIDwlBXn4+TuefE2knJF4o5EElKjxciDUqJOAOHzuOmrpaIYZkMhk83N0FqxsXLYJcbvMI2QUCCbOggKvzXg3axLkhJsAERiQBFgiXLftrXzyB06XHenwYbpl5H25Le/CKH5aeBIJR34qsjx+EX/gEpCz+lUN0tDWV4PDap+HmGYS0W/+IQ2ufRHPdBUxa9AwCoqaKfk36NmSvfQpWi6mLQNiwY4cwNlSSk5IwdvToKx7r5RXLKyux/0gOQoICMWfGjC7tNDY3Y9vu3Zg6cSLioqPR0tqKnfv2CcOePnWq8CTkFxSgqKxMGG77Tph23mMSEuDm6iraPHP+gvCMREdEQKfTYcfevZiUnIz4mBjxOQmM7Nxc1Dc2QqFQIGnUKHh7eqKmvh6j4+JQXF6O5tZWlFVUCGPsqrAlg5JrnhL9BqOYTCYxrtb2dqSOH4/oyEjhRSBvjcVswarly0AJhhRKIcM/cdw4hAQEiDABCR8STCQqiA+Nlebg7+eHC0VFqKiuhkrpjuULFzieA2p7+549YvzUHwkJLkyACTCBoSTAAuEy2q26FlQ3lYmrFY2l+OfWt/Dkrb+GUmFzZUf4x0GpuPJkw54EQn35ERzd/ComLHgKwbGd3fd5u36PhorjyLjnfez/8keQSF2EWOhYdO11aGssQUDklE7XyRjRTpYS9UZFR1/Vs0TGcPXmLSBvChnzWdOmdZtNX1lTIwykp8pDiAi5iwxeXp5CCNiNPw1gzZYtiI2MxISxY7uMhzwLJ/PzhVeAxi6VSGGxWjB9UipiIiMc9bfs2g2dXofFc+ZA2SF8Ya+Qf6EAx8+cFkl9Hfu+KgDd3HSusBBH8/JE+CMsJEQYe8rNKCkrR2t7G25dtkyMnzw4xH3yhAmilcPHjgnPxtJ583D2wgWcOHNGeBxiImxzMxqNoDBOZFiYw8tgv05iw+4Nmp+e3skDM1jz4naYABNgAj0RYIHQy7PhzCTFlvoCZK/+OcZl/BhhCfM6jeLY1legrj2Hufd+gP1f/AhSFxlm3PqHK36KaadNAuFqs99pJ7xl1y6xWyZ3/4SxY5AUH99t/5QYWFVT0+mzKRMmiFAAFTJwqzdtxozUVERFhHeqR59RCIPKxLFjhZuevAGnz53Dwtmz4e/rKz4jY7xu2zbhUejJI0JhCBo3uemdUSiH4nxRUbfig0QDJWBW19aKXIKblywR9WjcX2/ahPDgEMyYnIqsg9loVDdh5Q03OIbYqFZjW1YWMmbMQEiHBE7yvtCcqVC4YtGcOX3mMjhj3twmE2ACI5cAC4ShEgj3fwIXmc2lToXyDbI+eRAKpQ9m3PoOZHLb0Tzhcch8B14BozDt5t/i6JaXUF92FAlT70XMxNtEHYtJj2M7XofZoMOUFb/ulKS4acdOtLS3iXr03oKxCZeSHfv7mNPungwvJeJRslzHQjtf+oxyCSjz3mqxQKfXY8P2HUhNHo/42FhRvbK6WrjZO+7syaVOcXUyjrsPHMDiORnw8fYSOQw79uwBJSB2rE+GnwwtxfEjQkO7TIN27l9v3CQ8DjQeKhRmISPbMYmQ5kPChww3eTPsIYwr4UJ5A5QnccsNNzjCADSu4rIyERqhEACFU0jc3LJ0qWiSQglbMnchY2YaggMChECobagXIsYeBqGQA4UTVi1bJjwS9kLhk13792M8hYkSEvqV93Il8+E6TIAJMIG+CLBA6IVQtboCf9/6Gzxx0ysiOfFKCx1HPLb9dZEjoNc0QdNcBZ/gRBEqAKRIWfwsZHIlCo/+FwU5n0Gh9EJg9HSY9K2oLTkEV6U3Jt3wAjx8o2HQqXFk3TNob66Eb+hYyF090Vh5EiYDJS0uQVL6o7aXMV3caX+9YSNMFrP4meLzk8aPv9Jhd1uvpyRFMsCU70BGjcIHlFxXVlkpDPPS+fPheTFR0G7o6IU/lNFPYQkyrOQyp1g9nfmnJEhKWKSjfvQeAyoJsbFi/OSSp2Q/2p1TboNCLhe7c3Lh29+pYKGd+oaNUCjkYhdOpweampvh7+OLBbNniXokCminTtcpBHK54OkLUmFJCQ4fPw53NyUiw8NE0iWNl+aybMEC0LFE8jDQ9dGxcYiLjhIJjWT8o8LCRFiBBATNh+ZAYQryvFDSIo2PEkonjrsUguEkxb5WhD9nAkzA2QRYIDiBML3X4FTWuzCbdF1ap/cXjM94XBxnpFJfnoPSvPXC4NM7hJReoRg97bvCs2AvJDjOH/oPWhuLRTKfTOGBiDE3IPBi0mLHTsggU6xbKpEII9rxuOHVTJXyB7w8PbucYiBDSImDJAwoVEC7eAppkCC5vM+cEydEAiMZQg8PD7EjpjpkXMno0vFG2oGTV4FOBdApAUowDA8NRd7Zs12GTUcbU8Z1Pp1BYZVT586JNu0GmISLXUTQKQjyeJBIoTyGvo4edsequLQMBaUlQmyQ25+4ULKhu7u78ByQR4RKYEAAgvz9cSo/X/xM3gLybNBY6BqJJBJWNEdqp6WtTbQ1YcwYR7d2YcWnGK7mqeV7mAATGAwCLBAGg+J13Aa9W4DCBxQDJyPuzDchOhOj/Y2QHV9G5Mz+BtI2JYmeKyrCyTNn+EVJAwHJ9zIBJjAgAiwQBoTv+r/ZnpxHO286zRAyTF/aQ6EMenMBCYRvs8ghb8yGi6cXaJyU0EgeES5MgAkwgaEmwAJhqIkPs/4oT4ASDSlWTgmCV3syYphN+5oNl/IpiktLhZihvA3mfc2WgjtmAiOeAAuEEf8IMAAmwASYABNgAl0JsEDgp4IJMAEmwASYABPoQoAFAj8UTIAJMAEmwASYAAsEfgaYABNgAkyACTCBvgmwB6FvRlyDCTABJsAEmMCII8ACYcQtOU+YCTABJsAEmEDfBFgg9M2IazABJsAEmAATGHEEWCCMuCXnCTMBJsAEmAAT6JsAC4S+GXENJsAEmAATYAIjjgALhBG35DxhJsAEmAATYAJ9E2CB0DcjrsEEmAATYAJMYMQRYIEw4pacJ8wEmAATYAJMoG8CLBD6ZsQ1mAATYAJMgAmMOAIsEEbckvOEmQATYAJMgAn0TYAFQt+MBlTDajHDZNRA7uoBQDKgtvjmSwS0BgsUMglcpANnOpht8RoxASbABK4XAiwQnLySpXnrcC77X0hb9SeofCJ67U1dm4/mmlOQSKSISFoKqczVyaO7subLG3QoazLAbLZi2ihPKGTSK7vRSbXUGhOe+7QQ85N9ceu0wF57KW/Uo6BaK8acHKWCh5tLp/qVTXq88mUxZo/xwd2zgp004qtvtlGthtFoRHBg7/O8+h74TibABAaLgNlsRm1DA3y8vKB0cxusZq9ZOywQekFvMhtxvuoUEsMnQCq5OqNIAiH/4D8x87Z3+xQIh9c9DXVNvhhR6tLn4R+eOqgPht5kwVfZtV123VYrkBiuwqRo8nJ0LX/fXoncwlbxwVM3RyEuWDmo46LGzBbgnQ1luHd2MIJ9FL2236w14dlPehcIOqMFr31djLpmo6Mt8jb88aGETvOvbjbgxf8WYcEEP9w+49tjhC0WC7ZlZUHd0gKJRILlCxZA5e4+6Ny5weuDgE6vR97Zs8JHGRsdDT8fn0GbWN7ZfOj1OtFecFAQIkJDB63t662h2voGZO7fJ6aVNGoUJo4bN6ynyAKhl+W7UHUaL3/2E7zzyCfw87g646FpqYa65jRC4tIhdenbI9BSfx7Zq590ikBo15vx+3VlMFusaNGZodGZ4ecph9xFgmnxnlieGtAjjfpWI371WSGevMk5AsFotuKn75/HzdMCsCjZr9dfKpPFihMlbQjzdUVID2LiQrUWv1tbigfmhmBKnCfa9GZIJRJ4u8s6tW00W3CitB0Rfq4I9u5dmAzlb7pGq8X67dsR6OeP1AnJ8Pb07NK91WpF9tGjCPL3R1x09FAO75r0RUxovulTp0IhlzttDEVlZaiurUXa5MlO62OwG25oasKBI0fQrtVi5pQpiAwLG5QuaEe8NSsL9Ky1trVhbEICkseMGZS2r8dGLFYrmtRqHMjJgYtUiqXz5w/rabJA6GX5CqrO4CWHQOjZeHbXhK69HnUl2YBEIlR9WOISSKWd3dt0n6alEurqMzAa2uCmCoLcTYWcDc93KxBoN6nV6QbFfXWooBnvZ9bg7Qfi4Srv6h2pazGAjKzRZIWPSoYgbwVe+qKok0Awma04WtyKM+UakNEO8ZFjcpyXw9DSLv5wQSshQJivQtSrazVgVLAS00Z5Ofpt05lBdV/4bxHmjvcRAsEKgNILOhp0EjbZ51vEZ/TvMeHuCPTqbNQpn6CwVovSOh3WHK7H9xaEwtNN9v/sfQV4nNeV9js8o5FGzJJlWWZmZoY4sRM3aTjZtlvYbrlbSP+2STHdcrtpSrtt0jA6iZltmW1ZlkG2JcuymDXM8D/njmbEtmRJY2lyzvO0sWbud+E99/vOew98A7pxR6ZoguERu5PmZoRUKoGX+srQIiGqs9GhNebd8K/R4/OJddAaE3X+tvS9mJMEkEslgoxcLLfgapW//dyRujvyuJgtFmzfvx+zp07F8MzMLnep0+XCh7t3Y/L48RiVnT2gDyK32w23xwOZTAaFvD3J6q+ByQjRmojIKRQKkHGi8QJSUlaGswUFuH/9evHw7U5cbjfIA0MkgrwvtxIK30ikUsjbjJN76hQcDgdWLFrUX0vrsh9ar8PpFHNUKbsnpwFM5LfBvdlgwO5Dh7BmyRLEREf369xpru9s344ZkyYje1jX+5GwpHuTdNcV6rSH6D6k/XM7vfRl8oF9RONIu9gntK/EXia9d4Fp4HvSiViTzwdlB/14vF7xXXe6O3DsGJqa9di8bm2Xc+jL+kJ5LROELtD2+rzi0+s1V/Cj17+C337mFcRo48VnPQ011JQcRGHuX+HzeeH1OLHs8VcgU7SPSTVW5CFv53PiASWTq+Fx2UV7ko4hhsDNT9/JpTJsXr+uTxvv+DUDXj5Ui189mQONsj1xKSgz44WdlZDLJFDKJHC4fcIgkwRCDGTQv/Wv63C6vSKuH6WRo8HohNPtw+fXpGNKViTqjC48/95NkOeCRKOUioc//b1sYiwemp8k2n/31esgktBR6Nn+qydGIkLlnx9d9/3Xb4iHkM3pweOLUzB/TPsHYWGFBS/sqhQhC3oY0RoCD6unl6dierb/JF6jd+IXW8vEd1aHB08sTcG80e37ovG+/s9iQXBojZFqORpN/jV+eUMGxqVrYbJ78KO3SkUfGpUUI1MikH/DBI1KBiIhY9I1+PL6rh+ot7rRDSYTdh44gNnTpiG7C4JAJ0aj2YzT+fkYN3KkMAi0lsSEBGFsTuXn42Z5hXiAqdUq3LNyJXbs3w+L1Qba38sXLMCxM2fgdLqwYPYs5BUUwGy1QhuhxcpFC6FW+b1d9CDNv3QJ10tLg9OdOHYsJowe3a/PqbLKSpw+lw+3178PaN4JcXFinmTsa+rrxRzqGhqwcPZsQSToAZ+anBw0NvWNjTh6+rQwuoE+1i5bBl1kpNgzZDyNJhNkUhlWLVmM/bm5INc8yeolSwRuRqMRp86fF+GcMTk5wjhEarWI7UeDS31WVFcLbwgZI5JonQ4rFy0SRKXoxg3kX7wEpVIBhVwBk8Us7nUy/LoWTxL1QfkpuSdPwe50iEMDeQ0uXLmCTWvX3pJw3IniGpqasC83F2uWLhVjBYTmEcCddEISFRkp1hLw8hAxoP1YXlUlviejTPqNj43Fkrlz72Q6na45dOIE6uobEBsTDZPFAmcL8aL5BrxvtI8OHj8u5huQwP1Fn+0/6g8NBITCKXX19WIPzJ02HVmZGWIvXi4qwuVr18TnJCOHD8e0iRPbPY+JIDQ2NeOBDesHlAz1C3i36IQJQgdw/r7317hQekZ8SjkIzeZGxEclBZV/z+wHsXLyph7pxet2Ql9/BXk7nsWyx/8FmaI1du/1OHDo1X8ThGDOxuehjkqC02YA5SE4rPpOBIFcnnQTBB58965eHXyI92gyHRp1RxDqDE48+1apKLj4wZbhwntAxvSn794UPQQIwmtH63DoUjP+fWUapg6PFCdxk80j4v5EGn7x2EhhnK1OL77xUjFm5kSJ/AJqR65/vcWNnz0yQnhY6g1O2Fxe/OL9Mswbo8OKlhADGTxy+7c9BBJRoXDEM6+V4IE5iZ0IAnkDKJxQVG3DX/dW4XtbhkOn8RMM8iS07YtO/3SLP/PadWyendiJILx0uAbHrhjwxXXpGJ+hFeSm2ezGj9/x4/P8ozlijeQ9eetEHQ5d1AuS8K37shAfpYDJ5hbf6zS9P3HTw2Vv7hHMmjoVI4YNa6c9euC+u2NH8AHV9su506cjKyMDlTU1wljSw3jR7NlIjI/HuQsXcO3GDWSmp2Pm5MnIu3ABNysqxOVkoDQqlTDEdAKk/UXrpTAHGdwp48cjNSkJJ/LyhGGaNWVKv4U1yPjQw5nWOXbkSNysrBTx9LTkZCyaM0cYU1pLRyEjs2nNmuDp7uCx4zCaTZg6YYLAhgzw+NGjMXHMGHFpaVkZrly/DiJfZHDJ8BN5oP7JFXzk5EmQ56ajJMcnYOmC+Xdym3V5zeETJ1BdV4fM1DSMHzMaN8vLxbwoEXXpvHloexhITkhEekoy8i5ehFqpwr1rVguDc+pcPm6UlyEyQovU5CQU3ygF7WYiOfetWdPvRon0Xlldjc3r2h9MaA8Vl5YKUkB7j9Z1obBQECwipeTN2dayh7KHDRO5EecvXRLEk4gvGej+kOraWhw5dUronTxuNA7NjfYT7V0SapN76jRGjxiB9NQUQRZoj9OaiCjSXicCQNcUlZSAvAS0l4gMEPmif+84cAAU6iLySPv17IULgrROHT8eY0aODC6FCAKRjnvXrIH6Ft6h/lj7QPbBBKEDurmFe3Czrlh8arA241jhPqyceh8UMr9LeUbOAozNmNxjnehrC3Fm2/c6EQRTQzFOvP8NTFjyn0gbtSLYX8WVnSjMfbETQaAb7fzly2hsakJWZqZIgOmLdEcQcq8a8OrhGvy/T2QjtU18/9wNE/68p0oQhKxEDb75chGsDi9mjIgSrnUSMraXKiwit+G5T44QbnjyPlBuwbc2DUNWgt+D8vqxWpwqMuFXT+QEH2SBHIR10+OwYdqtwzlk2L/9ynXc3wVBCGByucKM32+vxM8ezUGstnsDTXOmvjbNSmhHEIiIELGhkAWRG1kLs6D25GFxOL348SMjEB/p3xeCIFzS49ubs0Q+w50KubbPXbwoDDw9RLtzF9ODkDwAVbW1uL/NQ7ut65aMrsFoxMZVq4SXateBg/6T6NIlAvdLV6/h0rWrImadnpoqPBDXSkrE+HQCvHr9ujj1zZwyJXgKowfpsdNnxANz3sz+idEXFBaisKhIGPK42FjhgiYjSSe/pAT/XqD1vr9zJ4alp2P6pEnis45uajJOZMTowU5+o/LqKvEgDxAEuubgsWNoaG4WJ8KMNH+yHfUd6IuMyOGTJ4VHIXBS7k93eEVVNY6eOY1haWkYRfdwyymUxiT86fRPhOyDXbsxLCMdc6ZNE3Mjg0PeDyJuRKBO5uUFyQ99T5nzB1pIFpHK/hQ/9rvE6ZwITED0BoNIpCXCSeQgIAWXL4u9Q6EgmjeFRlcsXBj0wlTVkDE/icVz5ggPUH8I3Svv7dghciQmtBBCCtGlp6QECQIZdvLO2O12gSntA7vdIcIAgTUmJyaIHJcPdu8WBJI8WBTGo8RP8u7QM3jS2LHt9iURSyKzc9vkrBTfuCHIA1Uy0HfkYWgbLuuPNYeiDyYIt0A5kIPwu8+8itjI3uUgBG+ibghCXelxnN/7PKau+g4Ss+YEZ2Gou4JTH3y7yxwE2sT0gCb3b18fWt0RhL0XmvHuiTr85ulRULUpZ6w1uPDDN0rwTUEQ1MLok6Ge2uKybwujTAo8vDAFEUppkCD8vweykBrrN5xDgSCQV4DWSKWd07KjBPlpKwQNrZHCJgGCcOKaEb98vJX03MkNTA/TvYcPi/AIGXMyCF0l5AUeaGREly9c0OVQFLM/c/68qIAg1zN5oVYtXhyshqBTOeW0EBkICBnZIydOipMqPfxtNjukpNAOMn7kKHH67Q8RrvJTp8RcAkIP42ULFgSz8SlBbsf+A5g/a2anLHrCgk64FKagUACdZskYkGeCDGzbHI4P9+wRJCNwquw4f3FSrqnxn5Rvk79wJ2unHAo6cXdlLGKiorBy8WJxIqXTbaByhcIQRI7IM0RkjYghnU7JUxCQgNdh5cKFiI+7dZJvb+ftcDixdfcuTJ84ESPb5LrQ3qI91rHC5tLVq8IjsnntWmzdvRtZbUhdYGzST4Sm/6qhyBNGuiOvRaDah3Impk2YIDxdtfX1gviRh4VCV4Qp7XUioER6aD60NxbMno246GjhTSDSQ8b9vZ07RS4QebUoDNeV7sgrMblN8iaF//YdOQKXyw2FUiEwGsjE2t7qtKftmSD0gCD4qxjukCDUFeLMR+RBaJ+DYDfXIfeNzyJz/HqMnvsp8e4Dkvw9P0X9zVOYvu4HiE9vdb/Rw3Pb3n3weD3BTd0XknCiyICXDlIOwsigkaPxKSHvL3uqsJmqCabEi0RBOk2/uKcSF25a8F+bhmFEkgY/eKsUdXoHnn9sZNCFT9fTidti9wgXOz1fAx6E/7clC6kxrQThdLGpnTENeBDWTovHPdP9+R5EQChsERMpb5f0FPAgPDC3c1ggoM7LlRb8flsFfv5ojgiTdCdBD8LsBMwb1T4H4ftv3hDhj18+MRLaljwI6ofCJrRGSmoM2BDyIBy/amznFenpTdhVu4AhWTR7DtJSOp+yLFareIjRg4tctwIvt1uQikBiVsBo0CmtprZOVENQvDQgdD2dcOh058fbg9yTJ9GkNwiCQCcnMq50+gmISM5yukReQ0ACBprc89FROsye1vMTLF176PhxMYZarRYuafJa0Cl0xuTJwfmSh4FIDhnFQEIfxbwpHGJpSegkYzBqxAgxrYDBIE9AIH+A3MdkNAgzMrYdheZCJEStUmJ5CyZ0Da25bWImxbfJ2NB3U8aNE6V/PZXDJ06KMAgZjMD925H4k9HNv3hRkEMKEVGy254jh7GW4uk6HShEQfoPZMjT9eSFodMxGeW2BuxKUbHAU66QC0N4J88M8lyQa532CRnXgIh4fkMjNq1dI/RAQvrbdeAApDKZ8H5RKIxc9nTqDgjtE9prHXMZiPiQoY6NjsHMKT330lK/FH4ljwZhRmskor374CGRTxMbE4N3tm0Tc9zYEjqjPAXK8Zk6cSJGDR8uyCR53AhjIqyUM0EekOqaGhzPy8P65cuFB07Vks/Tdu/Ts5nuo7bYEvmm0BV5sCg0MVSFCcItNHe18gJ+8ubX8NtPv4q4qJ6XOXo9LpRf+lDEqa2mGlRc3oOcmQ9BJvNnKouXIMmUyH3zc7Cb66GNzcSIqQ+g6OTLsFubhLM+KXsuJi//VnDT1dKp4tgxcT1tRHIb9/ZFHJRneLbECJcHIBf8mWITNs1JFDHyYfEqZMSrRALe1/9ZJOL8YzMisHh8LD48U4/qJn/i18opsbhvZiJuNtjxy61lUCukIimRCMGBS3ocuawXhOIXT+RAJZPi2FUDXjtai/XT/Yab0WsVAAAgAElEQVSf8gN+u61C9PeplSmYke1PeCJP6zf/VQyvF6K/0nobtp1pFPP48cPZiNUqcLnCAr3VI/p/+1gdJg3XYnyGPwFtdIpaVDSQ4T5dYsKVKivyS0zYMCsBWgVlqUuwcGyMIDwkeaVmkURID9dXj9Ri5sgojEnTinyCSZlaEZagaoQ/7qiAWinFF9dmQBchw74Lehy7qgflkv7iCX/M8WyJCYcv61HZ6MCji1uT5mblRELRxem7Jw+L2yUp0kN22759GJ09AiOyhvk9BPX1SIyLw5IWN7DIPN+2TWA7PDND5DMEhIwrnUqpDZVJUoiBjDB5qMglT25a6p8e2HRdZmqqcBtfKS4WBqjt6TXglqe+OxqR262VTnJktKNa3Ln0EA8kkrXti8IhhUXXMH/WLEEWT58/LxLRKEdBoVBiz+FDGJ6RgZzsbBHjpgc+ybL580X+BZ0WKbGT4smUf6FSqaDVaITxaPuw375vPxQKuYiN0wOe1kzhCnJDBwwAGSPyxpALmgxHb4wuzY1O10RQiKhU19Uj70KBwJ08OeQdJOPU1NyM9S2nTkoSpdAPkRbSL+VWlJaXC+8KhVuITBIZJDJB8wk8FwKnYlofeUzIUPdGCC8Kd1DZ3sWrV8V8ST9EuOiUfvkakbZCkWxIuqL2ZBhpLSsWkCcjVpBYMqA0fkpiIs4UFIh29C4FCm0FJEDoCMt1y5YJL1BPRZzWc3MFcVy1aJHQx9HTZ1BT7/eYkZ5or1OC+bIF8wVhohAAET+aF3mUCF/6H62DPFHXb94Uz9hT586JvUP/pn1JZIkMPhFtmnP+5cvwuN1Y3SYZkubtr2Jo7pSz0dM1DZZ2TBBuoQk6rdcaKpESk9Hj6gXqzmFtQu7r/w6v191l77M2/hQxyeNht9Tjwv5fQV97RbSjjZ02ehkqr+4XyXuLP/l3qLR+xk43GbF4Kq2hBx49+HrzYKI+6DROlQfkvu4oyybG4KH5/pNqk9mF/9ldicoGf4a3LkKOZRNiRNkgybMPZSNJpxT5Bv88WC36DciETC3WTI3D6NQINNK7E964IcoI6aT97IPZwui+eaxONI+NlONnj7TmUlyptOJPuyvhcPkrOdLiVFg3LV6UDtL1lABZ3jKnjvNfNy0O981KREmtTVQndBR6SdLPH8tBlFomSiq/+XKxKOHsSp5eloI5o6JBhOpCmVmskfIt/DoCJg2LxOopcaJskjD4w3Z/ol9boXa0tlt5L7ocvOXD2xEEOr3SKZZcpyRkHChpimKwZPxIqM0Hu/fA43HjnlWr2mW2k4Ghhx8ZDTJY5E7XqDWYNmmicKuSkNGh+Gpb1z895KmKgYxCQKgN5ULkDB+OGZMm9WpfBowY7eVAVjhVGcyaOqXdKZ/aURVCoEKBHvpUSUGGljwnFG8OVCRQ4iEZGAoVkDEj128gwbct5uTtWLtsaTs1XLt+XTz0A3kJlDhIhCmwXuHu37VLjEnxaboXeyOUY3L8bB5qG/x6I6G10BwpXk4GlrAkId0QYSCCQEIuaiJmtE5aDxkrEjqJ04mcSCMZu8D7G4jMUcycwlAUumhbytmTOVNMP1CZ0LY9GUfy7hBGlK9CnouAxOiiMXvqlCDxolM97dPAHiLdTho3Vni92rrcKX+C8ih6e+KmOby7fQfcHv+zdvqkyXC5nIIwk5AHjMJMlLAYmCfdK+Q1oH1PkpKUJBIYSSgRl8gPhYEobEBkhv5H+qG8G/IytL0fiKTR/qA+2j6PA1UM9/ex2qwnehrINkwQBhLdHvZNRIF+s0ETmQTc4o2NdDPQgylQJtTD7u+4mcHqFqfzaE377P+2HZIRpXZ0qtOqZeKlS30R4i5UXqiQS9rlQPSlz75eG1yjBCLU0Nc19mQ+5EKmEzwZYzL63Ykwij6fIAUdCSOd+sgrQKeotu5c6ovitfUNDcLleishkkGGh8IWFDPuWFferPcnqkVEaNq5zXuyxkAbWgOd/ui/ZIDpAd0V+aX9TwaWEi67em8AnSQpFNBbz1rHudI9Rq5yqn3v+L6FgKGh0lJ6/8SdCmFKRJ0IwJ3EpkkvlJdBJ/quYvlk2D/as0ecktcvp7dw9l+8v+OaSSd2p1OsoyvsSW80V9o7XemWEq/35uaKPUpliQMldE8RbjSHrt6P0NNxaZ/RU45CYt29E2TfkVxYbFYR8hjKwgRhKGuP5x62CJD7nBK86IFGp1iq/e/JCZAMAp3q3C43blZWCANCcdW2RoROUuRqp7aUQEbkom2mf29ApdMtnbbIo9XWq9CbPoZKW9IFeQ+InJAbvC9GZqDXHChzpZNvb0MLAz23jv2TJ6u8ulp4ZPrzfROhXgeNR8SPcinI+0ahO0q0HcrCBGEoa4/nHtYIUOz34IkT8Ho82LByZY/ee0Gn8N0HDwaq58QpdfWS1soFfyLefpFdTUJ/JybEi9IuFkaAEegbAvWNTTh04rggkSsWLEDEEP/9FCYIfdsPfDUjMKAIBOLyvc03GdBJceeMACPQLQKiRHkASmTvBuRMEO4G6jwmI8AIMAKMACMwyBFggjDIFcTTYwQYAUaAEWAE7gYCTBDuBuo8JiPACDACjAAjMMgRYIIwyBXE02MEGAFGgBFgBO4GAkwQ7gbqPCYjwAgwAowAIzDIEWCC0AcFSdAMGegtYv43DrIwAowAI8AIMAI9Q0ACH2LgAb0Cu/c/Cd+zMfrWiglCH/CTI4/JQR/w40sZAUaAEfi4I+D1pcAryR6UMDBB6INa5Djeh6v5UkaAEWAEGIGPOwI+6ODB4PzFRyYIfdidTBD6AB5fyggwAowAIwAmCGG6CZgghKlieVmMACPACIQIASYIIQI61MMwQQg14jweI8AIMALhhQAThPDSZ3A1TBDCVLG8LEaAEWAEQoQAE4QQAR3qYZgghBpxHo8RYAQYgfBCgAlCeOmTPQhhqk9eFiPACDACoUaACUKoEQ/ReD3xIOhrK1FZfBGjZyyBQq3u08waK2+guuQKRk5bAHWkrk99DeWL7S4JPjyrwfgMJyZkuAfNUvRWKXadV2NChgsTM12DZl63mojPB9QYpJBK/K3UCh+iI3whnbvd4QXNQ6OWhnRcHowRGAwIMEEYDFoYgDn0hCDcvHQGl4/vw+Itn4E2Jq5Ps7h8fBduXsrH3I2PIjY5o1NfbqcDpqY6xCRnQBKi3yNvMElR3SwDmZT4SC9sTglSYr2IVHmD8zPZJDDapUiP9fRp/YGL9VYJvv1aDFZPsuP+2bZ+6bNjJ24P0GSRoiOMCZHeTp8Frr1eK8fPtuqwapIND83rPC+3F6hslGNYgrvbPgZkMbfotM4oxXdfjwm2GJfuwtc3mEIyDSIFl65Zcf6qBcRPNq2KQ4RGFpKxeRBGYLAgwARhsGiin+fRE4JQV1aEa2ePYM66h6FQa/o0g6riS7hecAIzVm5GhK4z2ai9cQ35Bz/A0k9+HiqNtk9j9eTiF/dFIK9EDW+HA+dTSy1YOLr19dPvn9Hg6DUlfvGwoV8MI5GQF/ZqsWC0A3NHDsxJ/WSxAn87ECUMV1v56noDxqV3TXQazVL87UAEVk50YEZ253nVGiR45o1YPLvFgPS4/iFLPdHTrdqQkba7ZfB5ffjTvghIIcFX14eGIJgtHmzd1wSpVILZkyORM6xvHra+YsHXMwJ3AwEmCHcD9RCMeTuCYLeYIAG9b9sHtTaq04z83wPKiCgY6qtgbq5HXGoWInStJzq6yOf1wmGzQCIhF6wPqojILldXd7MY5/a9jyUPfbbL8foTkkazDN99PRpLx9uwcbodChlwsUKOF/dGYfMsK9ZPtQeHe/+MGvsvqfG7J/RdEgQyUiY7mSYfVApAKfehySzFzQYZYiO9GJ7QakytDgm8XsALCSKUXsg7HDgp/OByAxFqwGIHrtfJodN4kZPUtUG22KVwe/1udY9XApsDUCog5lnVLEWVXoq/74/Cf641IVbrRUacJ+iOb4un2S4h1YD8JlFqX5frrDdJ8J3XYvHMZgOyE7snCB4vUFQjg8EmRZQaGJ3ihlzWysIcLsDh9lOXKI1P7KGbDVKQTkYmu6HTtLalNV2vk4G8OBEqH8amdu+9+OOuSLg8oSMIepMb2w40Y/60KGRnMjnoz/uT+xo6CDBBGDq66tVMb0UQKosuouDQNtGfRCrFqie+AplcEezfYTVj/2svgIKvmigdbCZj8LsJC1Zj2Lhpwb+vnj6EkvMngn8vfehz0ERFB/9urq1AScFJ2M1GGBvrkJAxHFKp33IS2Rg3dwXNItje4wF2Hm6CxebFiGFqzJzYNeG4FRg36uX4yXs6fG+zEcMT/XkAZOhfOxaBCRlOTMlyo6pJig/PRaC0XoZ6owwzsp1Bwzk+3YnF45ziuoOFSvzriH8Oo1NdSIjy4niRSvRHhvqHD/hP3GSEv/JSbHBaTy02Y+FYfx+B8f/rtWg0m2WIi/TAaJPC7fGve/ZIBz6zjEiWv22jSYZ/HIlAYYVfJzFaLyLVPlQ0Einx4BePGAVhuVEnxU/ej8HPPqlHoq41bNIWGzLRn/tbjCAYJF9Zb8LEjFYPApGaV49FwGiT4HKFEtlJbhGOEfpRefHEIgpH+I163g0F3jwRgQaTDFqVFxaHFPGRHjw034bpw/1r/Z/dkThXqhT//tJaI949FYGKJv+PvdD6fvVYsyAJhVUK/Oqj9sQ0UefBjx40Qi7tnGcQaoJQ3+jC7qN6LJ6pQ2aaqi2k/G9G4GODABOEMFX1rQgCGTeLvh7GhloUHNmB1U9+FVJZ+1/s0tdX4cQH/4JSHYGpyzeKU/+JD1+FTKHAkgc/G0TN43LBamqG1ahH3t730BVBKMrLhdNqgam5EbEp6UGCoImMxqTFa9sRhJoGJ/YdM4j+1SopHlgT32sN1Rpk+H9vRgtjumW2TZyuI9VeYURlLblmlc0yvH4sAnVGmfAIjE1zBWnK5GEurJzk9zL4fBI0miX4yVYdTFapMIzkhUjQebGnQIPPrzRDrfQbtGazBA6PFD99T4eH5lmxYEz7X9K02CX4wTs6mGwyPLLAgtk5TvzfYS3Olyrx68f1om/KL3juPR1q9XJsnGEVp25KLiysVkCj8OInDxrFaZukJwSB2jWYJOL0/ew7MfjimvYEweKQ4G8HIkH/LamVIyvBDW1L/5EaL/59uUWMRQTo269FI0IFfHG1CcMSPChvlOEPuyJBnpHnHzZAo/TB7pTgSrUM/7NbJ0gU5XY8OM+COoMU58tU+MIqs/DCXK2SY2eBBhun25Cd6MaRqyq8dFiLTy83dRmaCTVBqGtwYc8xJgi9vvn4grBCgAnCEFOnq7rSfxzuIBKZDPLk1OCntwsxUEN9bQVObHutS4JAhn/Py7/F5MXrkTbS/2Mdl4/vRfnVAqx56mudxrcYmnH4rb90IgiBhrWl15C/fyuWPPS5W4YYvD4J3txeJ1z1SfEKrJzfPqTRU3XlXlXgldxIcXIO5CGohIE1IEbbil8wxPCkQZzKuxKC+5k3dTDbpfjlowZh4LoTMvDfeCUGn5hj60QQqJ/vv60THoSvrvMb3rJGGZ57Jxo/e9iAxCgPrlbL8N8fRuNLa00gohIQIih6iwT//YifPN2KINAcZLK2fhkIHP7zHzH4wmpzOw9CUD8tOQjfuc+InOTO1RcfnFXjg7MR+PcVZkxok+dw5KoCb5+MwJfXmTCppTqiokmGH74djcRoj8A7UIXQFjMKVeSVyvFhXoQgL8nRblwsU2HJeBseX9g5iTJUBIF0ZLV5sOuwHjanF+uXxCE2mpMTe3rfcbvwQoAJwhDSp89hR92T9wGezg9wiTYSSf/7LtDivu8vgjD3nkcQk5QeMoJAA1FpmdvjE6Vlsq6sSw915nBRhQLF7qW4Wi0X7vGJmU58ea052AMRhL0XNfjDU/rbEoTkaG+7a7uaRk8IwrThTtw/y++h6EgQimtleP6DaPz2MT20mtawwdsnNTh5XXlbgkAG7juvRwsPxrThrQSjrwThT3sjcLak+1j844vMWNISlgkQhB99woDULqpDiBw882Y0Gowy5KS4MC7NhdJ6OS6WK+86QahrdGHPUX8+ikohwebVCZByhWMP7zhuFm4IMEEYShr1emDdtwPieN1BJCo1NEtW+QO9APqNIGx4WJQmkvTdg/DBbZMUycCduWiGze5FZoryjhLEyOjvuaDBrx7Ti9r5gPz4PR0Uch++tbE1E743HoSEKB++dpss+p4QhKlZTjwwu2uCECAMC8bY8dRiq1Anufefe1cn/Bu38yBQguCX/hGDTy8zY1ZO7wnCM5sMyO4iafKVoxocuKTBf91rRFoHo087LhCWIKwDBOHHDxqQEtM54ZHI2n9/qMNnlpsxZ6Q/dyEw74Vj7XfVg+B2+3CzyoErJTbojW5sWBqHGB17EIbSY5Ln2n8IMEHoPywHVU/dEQSfzwezvkHE241NdSg4uB3z7nsMspYcBG10vHhPgamxFke3voTJSzcgLWcCPG4XCg5vB1UjLNj8FCJj4uHzeWHRN4p120wGnNn9DmatexBqUckgQWRsQhATCjFQjsKkJeuRkJol5lB1/TLM+kbM2/i4SJYkadS7sPOwXvxbo5Li/jvIQXj7lAY78zXYPNuGVROpisEHyjn41bYo4T7/4upWD8K2c2q8fyZCxNUpQe9mgxxnSxTCGD+9xIpmixRON/DfH+lECODppf7QABGPthn51M7lgUg8/PkHOqybahOJj0R4qAqB2tM7En6+VYex6S48PM8mQhXnyxT4464ofOMeI0ZSRYAU+O3OKFwsU2BKlgMjkz04fEUl5hGl8QqCQCdwesdDWZMMf94Tha9tMIrkSb+hleJH75DxNQmCUG+UirWQB+HZd3R4dKEZY1I9Yl40f8obIKH+6P0NyybYce8Mm/j7/E2lCHl8a6MFlU0S/Pi9aGQluvHEIgsSdVTNIRFtDl9R4snFFoxK8YjrKpsoNyFKJEQm6fxjxURQFYh/rABBoHGWjLcLT8KO82rklyoxfYQTjy2wiLk53RI0WSQiRPHPw1qRn/GpZX78ad5UkTFQUt/kwu5czkEYKHy536GBABOEoaGnXs+yO4JAyYSH3vpLl3kMNAgZeK0uDgff/HOwzYw1WyCqEfL91QpSmQxrnv4Gyq/m4+KRXV3OjcoeVz31Fchk/kx8h82MI2//L1yO1viyXKlEXEoGZqzeEkxUbGj2P5iFYY2S4Z5lvX+B0+nrCvx5X+fSTTrlfnU9VTa0L0185s0YUWoXEGo3c4Qdjyyw4btvxKDR1NnHPHOEA59b6TdWNNdvvhoNvaXrk+aicTY8sdCGr/8rRlQvkCwc68D6qbZ2LwL6j1VmTMt2CgLwl/1aFNf4sYuP8ghycq1GIQhCd+trq4jPrzJhdKob3/hXrOivK1kx0Y6H51uDX1HCIRn8gJBBJ0IV8JrQOyP2XFCDQjcBoRJHSv789r0mqOQ+fPEfscKQd5Qtcy1YO9mftEl5JpTTUW9oxYvIj8stEQmPGpUPf3hS31JB0vU7MyZkOoJ5HL2+OXpwAVcx9AAkbhL2CDBBCFMV38qD4LS3GoWOy1eqNJBIJXDYWtso1Rp4PR64XX53ML0/QamJEO9AcLYx+B376vhCJPJCEEFxOaxQa3WiD7micwmZxeqB3eGDLkoGhbzj64BurzA6be8qUGLFBJeoszfaILLusxO9woh1FHJvUyUDGadojRdatS/Yjtz7gRLBttfR6T9w+qbPqQogULbYsX/yHpCxbdsXXUvG1dRCGOgaqrQIVFnQ3wFDS589/2EkDFYpfvZJozD4lDB5K6G+yClD/XeR0youDcwr0A+9TdFgkYq3NNIJnoy2RtH+vQlUFlneJIPd5fcKUEkkVVUEUkWIaBEB6ChUMknvowiO5YHwNOhtEiTpfMIDQuslrwHhQiSN8CRcu5KO+N9+V/SuhcHkwUcHmrBklg4ZqVzm2Dv0uHW4IMAEIVw02WEdPclBCNOlh8Wy6JRe2SxFXKQP9ObEtynBcpjrtkmSYbH4QbAIk8WDD/Y1IUorw9hsDUaP6NubRgfBkngKjECvEWCC0GvIhsYFTBCGhp66m+Vvdmhxqbz15JoR78bX15vE2wlZBh4B8roczzOhtMou3hO1eXU8/2DTwMPOIwwyBJggDDKF9Nd0mCD0F5J3px96d0NJnUy42SnRjzwJLKFHgN7sSULvlWBhBD5uCDBBCFONM0EIU8XyshgBRoARCBECTBBCBHSoh2GCEGrEeTxGgBFgBMILASYI4aXP4GqYIISpYnlZjAAjwAiECAEmCCECOtTDMEEINeI8HiPACDAC4YUAE4Tw0id7EMJUn7wsRoARYARCjQAThFAjHqLx2IMQIqB5GEaAEWAEwhQBJghhqlgmCGGqWF4WI8AIMAIhQoAJQoiADvUwTBBCjTiPxwgwAoxAeCHABCG89Mk5CHdRny6PT/xyolImgdPjg0wCyAI/UnAX50VDe33064j0q5K3/g2HUE+TXgjl9Hihpp+xDDOhvUCYK2gjAKD9QXuj5RfZw2y1vJxwRIAJQjhqFQB7EEKrWHo177M7KyCFBN9enY7vbyvHzGGR2DI1NrQT6Wa0XYUG7L9mxLdXpSE2YvC8FvDPR+tQ0uDAFxYlIStuaPwoUqPVjUs1NvGz6CRT0zSIUnXG9EaTAy8eqcOENA0ilTKcLDXj6bmJGJusHhR7gifBCNwOASYIt0NoiH4/2AjC9fyjsBoNmLR4/RBF9PbT/vWBapjtXjyzJg3f21aJaRkReHBa+5+rNjk8ePNck2hHzgW1Ugq324dPz08K/tohkY2/Ha/HnOGRmJzWPz8StOOyAXuuGPC9temIGyCCcLrcghsNDrT9/UWtSob146O7Be+vx+pRWGPDl5YmY3gXBOFoiRnFDXY8OTvh9goIUYttlwzYd9UQHO3JOYmYkt5ZT7UmF57fU437psRCIZXg7XNN+PziJIxKYIIQIlXxMH1EgAlCHwEcrJcPNoJwbt97aKwqx4pHvwgJ/Q5xGAqdhuvMbjyzOg3P7qjEvOxIrB3XahwbLW78+kCNcDvPytLC4fIiv9L/s9pkuGM1/lMoud2/tbUcY1M0+NTc/jGM1UYXbjQ6MCcrst1PSvenGl4504jrDXYYbR4RatGpZdAopfjq0pSgm73jeKVNDlQanJieoYWmi/DHO+ebcazEhJ9tzITyDn76uz/X17Yv0lGz1Y2f7KpCdwRBb/PguR2VeHhmvAih/N+Jejy7PgNR6vDc/wOFNfd79xBggnD3sB/QkQcLQfC4XXA57LiYuwPNtVVYeP/TkEj8D0ilOgJSmQxWYzOaayoEcfB6PEgePlp8XnPjmojX0meJmSNgaKiBy26DNiYeEqkE5uZG8V1kbAJiktKCLl/q2+WwofZmEerLr4uxYlMykTJ8LNTayE64W6weWGxeRGhkiIy484f3Bxf0KG2y40tLUvDzPdWYmx2JpSOjguPtuKzH/msm/NfKFCRGKsTnp26a8frZJnxrZRqSdXLYXT7YXB78dHc1MmMVeHJ2IiizQQKJMLiB+HVhjR0WpwdeLzAuVSOMVX6FVfx3ckYEpqVHiP4NNg+u1tpBx3o62RMxaSs0XkGlRWCXHKXApVob6kwujEtWY2q6tpNRLtc7UdnshFwmQVq0EnqbG2aHF/FaOXIS/CGCvxytR4PFhe+sIp10vc0bzG5BJkikEgmmZ2rbERe3xwez04ttl/TIK7fg26tSgyQjQikTsfyAUGz/YrUNBVVWeLxAZqwS0zMixJwChCuv3Aqfj3AEpmRGoLTRgYJKK+xE1oZpMTrJf6qvN7twvd4hyJTT60NGtFJgRth3FML6Rzu7Jwg0r+9+WIFvrkiFx+fDr/fX4LkN6V0SoQF9GHDnjMAdIsAE4Q6BG+yXDRaCcGr7G2isKu0SrmHjpmLCgjUoPncUxeeOwef1CpIwZ/3DUEVoceSdvwsCQIRi2or7cPn4PtgtxmBfUqkU5I73+byCVExbsUkYOofVjINvvCj6kytVgmw4bX4DMe++xxGTmBbsg36t783tDSKJj2TTynho+0ASbrUv3jvfjJM3zXhuQyaUbewNkYQZmf6T/W8P1qCsydllN19ZlophsX5i8dM9VdBbPHB7fRiRqEZJvR1yqUQYIpLnNmRAq5TiWKkZW883C68EGcfnNw2DRJzv/VJtcOO3B6tFAh0J9UFGnf5emBOF+6e05lC8mdeEE6VmERohnD3UKejfQFqMEl9fliL+/nMLQfjuLQjC4WIjyFVPXdCcf7whAxHKVnL20UUiU626bgvImGQNPrsgUXxE5OT72yrEvxVyCdRyCSwOr+j3cwuThOEnEvDs9gqxJprxpHQNCipsQbzitHLh9SH5zYEaVOidfhxaEgtjImT43pr0TmTndgRhsD8jeH6MwO0QYIJwO4SG6PeDhSDYTAY4HTYUntgHY2MdZq9/CFIJGXYf1JE6qDRasvCoLStC3p73EJ86DLM3POw3XtcvI//Ah5h7z6OITckQZOHw238F9Tl2znKkjRwPr8eN8/s/QHNdFSYtWoeMMZNx+J2/w9LcgJlrtiAhI1ucvs2GJhx7/5/QREVj4f2fCj7smw1ubD/UHNTyhqWxiNH5T579LReqbfi/4/Xi9EunWzI8oxLVWDJKF4zbUxiCjN4fDteKE/3DM+KEUfN5JUiNlgdP0WScbS4ffrC9QpCkteOjsSgnChanVxhuujYgDrcP1+rteOlkA37RgSBQG5Pdix/uqMCUdC0enBYLqVSC3x6shcnuFmSGCEWNyY1f7q3CyEQ1PjkjXngQ9l814GCRCVMyIvDErIQgpj0hCDRnqvSgEAOFZjoSBMrVaLZ6sOeqAZeqbfiPhclQKvxeA0oIjGkJx/zzVAPOV1jx9LxEjE9Wi7lT7P93B2pEBckP16cLY5bULgMAACAASURBVE8eiaM3zNha0Czm+W9zE5GTqILJ7hEejIC3ocbohlTiQ1yEHDKZRORt7LxswNdWpAhvQlthgtDfdwj3N9gQYIIw2DTST/MZLAQhsBzKQWiovImVj32pyxwEIgwnt70CfW0VFj/4WWi0UTjyzl/hdrmx9KHPCS8AyaE3/yL+u3jLp4P9UBjjwGsvIC41ExMXrMW+V/8oSEfG6MltTn0SVJcUCpKx8vEvQ6ZoNaB5l8yornMiNUmJKWO1wjAMlBTW2nD6pgXF9XZBBEjo5Pz15anB6gI6/X77g3LhGfjcfP9JuSuh8MAzH5ULcrBqTPeJgHTtlVo7/n68vkuC4HD58N2PyvEfi5MxIt4fJvjX6QZhmH96r9/jsOuKAbsuG0QCZsCYUjtKwkuLVuDxNkmEXREEo90j8i0WjYhqdxIvaXTij4drOhGEwHopB+FoSw6CqkMOAnlPvveR3zNAYYJAVQExqnOVVjjdXnxndRoSI/2EL7fEjHfzm/DEnARMbQnBdMSVkjkpVNFkcYt5EsmwOb344pJWbALXMEEYqLuE+x0sCDBBGCya6Od5DDWCQMs31lfj6NaXkD1xpsgruHBkJ2atJS9AThAdIgja6GjMXPNQ8DOv14NDb/wZam0Upq3chAOvviAIQFxKpiAKbUUmV2Lq8nvbkRRRi+/0Qq268/yDnqivqCUMkN1ihClefrzUhHfzmzEpIwJPtxjZ3hKEf5uXiAkpt6526AlB+OqyFGTE+E/J3RGEH6xLR3TL6Z3a/XJfDZKj5LclCGfKLHjtbGMw9BHAqy8EIRDjJxWPTiJi057YkZfjoemx0LbEcwRBON+E59ZnILILXeeW+HUxIkGFGcO0grhdrLLhbJmFCUJPNji3CTsEmCCEnUr9Cxp0BGHvu2isKsPyx/4TUqlMhBgokVAmk0OmaHHd+nw48MaLcFhMkMhkiIqJx/xNT7XTEBEEm0mPpZ/8vCAEJObmBuS++7/IHDsVY+csw56Xfy9Ofysf+zJk8tZwAY3ncbuD19G1ZFy2H2yC3uSBSinF5lVxA+ZB+NX+Gni9PnxzZWpwTQEjNz5N04kgDI9X4gsLk0Vbmie53SMUUuHeJwmc/PtMENyUTFeOry5vdaN3JAiFtXb87WgdpmZEYMu0OOG2P1VmxjvnmkU55+08CIeKTfjgQnMngnCjyYk/HKrBT+7J6DJ57+38Zhy/YRLfB17yZHV6hX6p6oFCLBanD8+tT2+Xw2BzeeFwexGtlgc9FlQy+c75JvxofQa0XRCE3xysQb3RhR9vzBR5FiQ0bwpL/OeSZASIXUB5AQ/CU3MSMbmLMscwfbTwsj5GCDBBCFNlDzaCUHh8L0ov5WH0zIXQROpQUnBKVC/EpmZgVhtvgNvpwN6XfycIBCUmpmSP7UQQ6DpKPkzMzIbb4UBD1U2RkDjv3scQk5SO0gunUHjygMhxmLb8XkFIivKOorHqpsioW/XEV4LuaKPZg4/2NwXT9gYyB+H3h2pF9vyoJLV4YY5E4sOrp5twocqKR2bFY2amv8KAfB7f/6gCVpcX906KFYSAXnRkd3qxeUocZmdpkVtihNnpw74rBszM0iIjRiEy+OdlR4lEPUEg3F4Rd6eXFFYb3ThVasY9k2LEGx4pL2POcBpPgsPFJmy/pMeSUVG4d1KcqEx4MbcODWYXHpoWh9nD/ZUfL+TWorjOAZVcKhIqyQgTcQkQhHK9Czea7DhwzQiX24dVY3XCONNY5ystuNHoFASBFkjkgtz3lNtwosSE1eOjEaGQwO0FFmZHBasnDl834f3zzZiTrcWYJA0OFhlRY3QhRafAV5amiAqHf51uRIRKKkiKTiXD/iITLlZa4fJ6hbeAjP3RUrMIs1yvs2PlOB0ilVKB1+ysSJHMSfLHw7XipU3TMrUir+LDC80i1EBrJAzWjIsWpaiXa2yiSoOIyZ5Cg6iKyI7zk9zZw7RQKwbPi6jC9PHGywoRAkwQQgR0qIcZbASBKgtObnsNFkOTgIJO9pQjkD15NjSRrfFzIgYHXv0fkUw4b+Nj/hT5NkIeBE2UDkqVGjWlRYIY6BKSMWH+KkEOSCjkUH7lHK6eOiQ8BgFJyhyBEVPmipLHgNBLinYeaYbB5BEhhnuXx0HRkgzX3zoLJNS17ZcS5JaOisSGCbHtlkplgGSwKHZPolJIsWxkFOaPiBKf/XJfdZfT+9LSFAxvMVb07oNf7q1uU7PQ/pKvLEsBxfV/QW1aIjFfX54i4vf7r/orCMgVL4w6IComyOVO5Yk07zHJauwsNCBR6w8x/P1EPS5V2bqFjV5/QZ4AKkl85XRjt+2opDGpJcmSxnyR3rZY7xDtydhPzdRixSgdUqOJFPlAJYzkGaD3S5DQjhker8LKsTqMS9aASjN/s7+my/Ha5hYQ4fnDoVpBQEjoFcn3TYrF1gvNIs9h9bho8V6L3x2qxc1G/3w6CnlzJqb2z8ut+nv/cX+MQG8RYILQW8SGSPvBRhACsDntVnGCVKg17d5bEPi+qvgSzh/8CNNXbhalix2FCEJ0QiKmLt/sP2uTTeim2N7jcsFuNYoySbVWF0x07NgnGUciCgNFDALj1ZhcsDq8Is5PLwei8r5UnTJ4gu1qa5kdVOYpuWWbu7UlydX/3M5KYRAfm9U/L3Tqbi2UKOjy+hCpkgXd/23bkjegyeong9FqWZ9eqkSVJLSt4iNawxN3C2MelxG4mwgwQbib6A/g2IOVIHS1ZDrlG+qrRIXBmd1vC6M/f9MT0MX74+8BMTbW4syuNxERFYvRMxaLREMqf2QJHQL0Hge91YMErRwfXtKLtyY+OD0Oc1vCEKGbCY/ECDACA40AE4SBRvgu9T+UCIKxoQZH3/9nO6QiY+KxaMunWz/zAXtf/i1czlbXLpU+rn7q6116Iu4S7GE/7M/3VKHO1Bq2eWBaLBZkt74tMuwB4AUyAh8jBJgghKmyhxJBoAC4g0IPbYSqGygRsa3QK5spvyAgFDpQqjneG8otTDF/Sp4koSoCqmZgYQQYgfBEgAlCeOp10JU5hinMvCxGgBFgBMIWASYIYaraIeVBCFMd8LIYAUaAERjKCDBBGMrau8XcmSCEqWJ5WYwAI8AIhAgBJgghAjrUwzBBCDXiPB4jwAgwAuGFABOE8NJncDVMEMJUsbwsRoARYARChAAThBABHephmCCEGnEejxFgBBiB8EKACUJ46ZM9CGGqT14WI8AIMAKhRoAJQqgRD9F47EEIEdA8DCPACDACYYoAE4QwVSwThDBVLC+LEWAEGIEQIcAEIURAh3oYJgihRpzHYwQYAUYgvBBgghBe+uQchDDVJy+LEWAEGIFQI8AEIdSIh2g89iCECGgehhFgBBiBMEWACUKYKpYJQpgqlpfFCDACjECIEGCCECKgQz0ME4RQI87jMQKMACMQXggwQQgvfXIOwhDSp8vjg8Ptg0ImgUrOP5s8hFTHU2UEPhYIMEEIUzUPRQ+C1+OBqakOuvhkSKTSkGjGZjZAKpFCpY0KyXg0CBGDnYUGHLhmFGOqFVI8tz4dchmThJApgQdiBBiB2yLABOG2EA3NBkORIOjrq3F860tY9MCnEBmbEBLgT257FQqVBtNXbg7JeFaXFz/ZVQWb04uJaRqsGK2DTiVHrFYWkvF5EEaAEWAEeooAE4SeIjXE2g02guB2OlFfUQSfD8JDQN4CpVoDtVYXRFZfX4PjW/+JBZufEm26E4/LhaaaMrgcVihUEUjMzGnX1Ov1wmk1AxKJGEMqk8PYUAOzvh7RCWnQxsQH25/a9hpkcjlmrPlESDT83vlm5JaY8MjMeMzI1IZkTB6EEWAEGIE7QYAJwp2gNgSuGUwEoawwD5eO7YVUKhOhA4/LKRCMTcnA3HsehdNmReGJvbDbLGiqKkNcaiYUKrVoo1RpMH7BanEtSV1ZMc7ufqedBrS6WMzb9CQUSpX4vODQR6gsuiT+nTl2CqzGZjRWlfmvkUiw5BOfQXXJFRibatFYeRM+nw8J6cPh83lFk6zx0xGfNrzdGGVVDpwqMIvPFs/SISle0etdYHF48YPtFUiIUuDf5ibC7fEiMVIhchBYGAFGgBEYbAgwQRhsGumn+QwmgnDwjRehVKkxf9NTYnU3Ck7g2pkj0CWmYt7Gx+CwmpG3731BHExN9YiKTYRM4TfACqUa01fdD6mslSCUnD+J0TMWIjY1C9fP5aIo7yhmrN6CpGF+T4LH7YLNpMex91+Cx+OGSqPF2DnL4LBaUFtWhFlrPoFrZw9DX1cDc3O9IA0ipEHuDQA5U+ciadiodprYd0yPmgaX//thGsydGtlrTRXW2PDXY/Ui18Dt8Y8VrZHh84uSkRQp73V/fAEjwAgwAgOJABOEgUT3LvY9WAgC2dxDb70It8OBSQtXQ5eYBoVCBZfTAYlEAnVk5xDDwvufRlRcUpfo0Wm/vDAP1wtOwed1Qx0RBUNDLcbOXoLsyXOD19C4e1/6DRQaDZZ84nPEAboUykGgEMSstQ/eUlsXrlpQcNUq2iyYocPwdL+3ojdyqcaGvx+rF3N5cHocJJDg9bONgiR8b20aZN1NsjeDcFtGgBFgBPoJASYI/QTkYOtmsBAEwqWmpBDn9n/QDiKZXIHk7DGYsmRD8PPb5SA4bRbkvvd/whNABCI2ORV0jfEWBCFn6jyMmNJKHDrqiQiCTCbHzNsQBCIcJotHGPfICFm3hONW+yBAEMalaPDp+YkgzrL7ihG7C/X4ycZMLnUcbDcRz4cR+JgjwAQhTDfAYCIIxeeOIT41QyDtdrngcthx48IpUInhsof/A0QWSFoJwtPQxXf2IFRdv4yCgx9h2spNSM4aLa6xW0048OoL3XoQRkydh5zbEQS5AjNvk6TYZHCjsNgKmVSCSWO10Gp6X4ZZVG/Hn47UgQjCZ+YnivmfumnBm3mNTBDC9D7kZTECQxkBJghDWXu3mPtgIQh08t73yu+h1mgxdfl90EbHgioazh/aBn1dJZY9/IUgQSBPwNH3/4FR0xcic+xk2Cwm1JUWofZmEeZufBR15SWCIExcuBZJw0bAatSDyEdDZSmyJ80SngKlOkIkJVLCYe57/8CwcdMwbOwUgZRKEwl5SyJjALpT21+HxdCIWeseEp4EQ301bhbmITEjp53n4dBpIyqqHeKyUVkazJ7S+xwEjxf40a5K8XKkry1LER6Df55qQKXeiec2ZELJlY5hejfyshiBoYkAE4ShqbfbznowEYQDr/2PSERsK1TNkJCRjZmrtwQ/9nrcOPD6i6BQQkAoOVEVESnejUDJh4fe/AvcTr+hJiGDT8mNlJtAXoeZa7Zg/6svdInPqOnzMXL6onbflV/Nx+Wje0ClkUIkEpEjMX7BSqTlTAi2PXzagPJqf/XFlLFaTBwdcVsddNXgeoMDf86tg9vrT1KUSoBpw7R4dEZr6eUddcwXMQKMACPQzwgwQehnQAdLd4OFIBAe+roqyBVKcaq3mvSiWiA6MbXdOxACuBFJsOgbRckjeQPU2kio1FphuEncLgeaqsvgstsQGZsEbUycCFn4vF7hiVBpImA1GwC//W0n9E6Ejh4EamC3mGAxNMHn9SBCFysISSDsEeiAqg6aDW6RNxAXo0BfXvSot3lwrsIi3qg4PkWDjBjlYNk2PA9GgBFgBIIIMEEI080wmAhCmELMy2IEGAFGIKwRYIIQpuplghCmiuVlMQKMACMQIgSYIIQI6FAPwwQh1IjzeIwAI8AIhBcCTBDCS5/B1TBBCFPF8rIYAUaAEQgRAkwQQgR0qIdhghBqxHk8RoARYATCCwEmCOGlT/YghKk+eVmMACPACIQaASYIoUY8ROOxByFEQPMwjAAjwAiEKQJMEMJUsUwQwlSxvCxGgBFgBEKEABOEEAEd6mGYIIQacR6PEWAEGIHwQoAJQnjpk3MQwlSfvCxGgBFgBEKNABOEUCMeovHYgxAioHkYRoARYATCFAEmCGGqWCYIYapYXhYjwAgwAiFCgAlCiIAO9TBMEEKNOI/HCDACjEB4IcAEIbz0yTkIYapPXhYjwAgwAqFGgAlCqBEP0XjsQQgR0DwMI8AIMAJhigAThDBVLBOEMFUsL4sRYAQYgRAhwAQhRECHehgmCKFGnMdjBBgBRiC8EGCCEF765ByEMNUnL4sRYAQYgVAjwAQh1IiHaLyPgwfB5XQgf/9W+DweSGQyzFj1AKQyWb8j7PMB5XonCmtsMNo9uH9KHGTSzsOcLrOgtNEBh9uLeK0Cy0ZFQa3oomG/z5A7ZAQYAUag/xFggtD/mA6KHj8OBMHrcaPg0DY011bCbjVj9RNfhUyh6Hf8/3CoFjcaHf5+JcDz92ZCIZO0G+fl0w04V25FQqQcOrVMEIX0GCW+vDQZUkn7tv0+Qe6QEWAEGIEBQIAJwgCAOhi6HIwEweN2wefzQSKRQCaTA20MJ30O+k4qhc/rhcfjhlQqhZTadSHUhoy1RCJF4fHdKL2cP2AEocLggkouwZ4rRpwpM3dJEH65vxrRajk+Mz9RzPbt/CYcKzHjU/MSMSFVMxi2BM+BEWAEGIFeIcAEoVdwDZ3Gg4og+Hw4f/BDNFSWwuv1CoIQFZeIORseEYCSJ+DI23+H1+tBUlYO6stuwO20C3Iwack6JGbkBIH3uN3I3/8+jI114jNdfBIionRdEgTiEEdOG+D1AUvnRLflI3ekyFfPNnVLEEwOD1RyKZQtnoX8SiteOtmA9ROisXJM9B2NxxcxAowAI3A3EWCCcDfRH8CxBxNBOLb1JRjqq5E5dgoS0rNhaKxBSf4JqCIiseTBz0Iqk+L6+RMoOpsrvAhJWSMRl5KJa2cOC0/D0k9+HnKlCg6bGSc+ehVWQzMSMoZDHRGJiqJL4hqy/h1DDEfOGFFW5Q8N6CJl2Lg8rk+I34ogdOz4hdw6XK+344frMxCl4jyEPgHPFzMCjMBdQYAJwl2BfeAHHSwEoar4Is4f3IaMMZMxccGa4MJvXjqLwpP7MXXpPUgdOQFejwd7XvoNImMTMf/ex0Wooar4MgoOfYSlD39BkIHivKMoOncU4+cuR9aEmaIvU1Mdjr73D/iATgTh+DkTSsrtol1inAKrF8b0CfieEATyVmy7pMeBa0bMHxGJLVP7Rkr6NGG+mBFgBBiBPiDABKEP4A3mSwcLQSg4vA2V1y52C1XayHGYsvTeIEGYunQDkrPHifb15TdwdvdbQYJwdvfbIrRAHgUKUwQkb++7qL1Z3GUOwqVrVri9PkwZq+2zum5HEIgcHL9hwjv5zciKU4kERRZGgBFgBIYqAkwQhqrmbjPvQUMQDn2EyqJLmLx0AyK0UR1mLYEuMQ0yuTxIECYvXofUnAldEoRT21+DxdiMpQ+1Jwgnd7yGpqryLgmCyeyBx+NDTHTXyY69Uf/tCMLOQgN2FxoQEyHDM2vS0aHQoTdDcVtGgBFgBO46AkwQ7roKBmYCg4Ug1Ny4gnP7tiI1ZxymLrs3uFi7xYzr+UeRPmoiYpLSReXC7n/+GlOX3YPk4WP9BKGiBGd3vY1lD39B5CtQTsL1/BMYPmk6xs1ZKdpQ4uPpHW8Ij8LqJ78GqbyVCJy5YMbVGzbRLjVRieXz+pYs+PrZJpymKob7MiGXti9d/PCiP6wwOkmDz8xPgEwqwbvnmzEhVY0xSVzFMDC7nHtlBBiBgUSACcJAonsX+x4sBIEgOLPrTREu0CUkIy45AxZDkzDsJDNWbUZ8ejbO7XsfdWXXodFFY8K8VVBqtLhweDtMTfWITkzBxIVroVRpcOzDl+GwmBEVmwClWoPG6vIgyslZozB91Wb/ywoAHD5lRHmNP0lRq5Fh06o7ywd4K78J9SY3KvRO2F1ejEhQQSmX4MnZiaL8scnmwU93VopcSZ1GJvIhSIw2D1aM1WHD+L7lPtzFbcRDMwKMwMcYASYIYar8wUQQCOLr54+j7max8BRQ+aI6SoeRU+chMiZBaODcvvfgdrnEv0dMmQOFQomrZ44EtTNu7gpExsTD5bDh/MGP4LRZIZHKEJuaASkkMDTWQqWJwOQl9wSvMZjcOHPRAp/Xh5kTI+84zPBufjPqLf65BUQCCZ6cEy9KG4k0/OtMIzyUhNBB1k+IQWaMMkx3GS+LEWAEwhkBJghhqt3BRhDCFGZeFiPACDACYYsAE4QwVS0ThDBVLC+LEWAEGIEQIcAEIURAh3oYJgihRpzHYwQYAUYgvBBgghBe+gyuhglCmCqWl8UIMAKMQIgQYIIQIqBDPQwThFAjzuMxAowAIxBeCDBBCC99sgchTPXJy2IEGAFGINQIMEEINeIhGo89CCECmodhBBgBRiBMEWCCEKaKZYIQporlZTECjAAjECIEmCCECOhQD8MEIdSI83iMACPACIQXAkwQwkufnIMQpvrkZTECjAAjEGoEmCCEGvEQjccehBABzcMwAowAIxCmCDBBCFPFMkEIU8XyshgBRoARCBECTBBCBHSoh2GCEGrEeTxGgBFgBMILASYI4aVPzkEIU33yshgBRoARCDUCTBBCjXiIxmMPQoiA5mEYAUaAEQhTBJgghKlimSCEqWJ5WYwAI8AIhAgBJgghAjrUwzBBCDXiPB4jwAgwAuGFABOE8NIn5yCEqT55WYwAI8AIhBoBJgihRjxE4w0mD4LF0ISG8mJIpDJ4PR6kjBgHtTYqREj07zA+H1BV50RctBwatbR/O+feOiFgMLphd/qQFK+ARMIAMQKMQCgRYIIQSrRDONZAEIQbdVVIj0uEUq7o1UqKzuai+NzR4DVTlt6DtJETetXHYGhc3+TCnqN6EEkYnaXGrClDk+QMBiy7mgPhWnDFDLcbiI6SYcQwDd7YVg+vD1CrpFi7OAZajWywTp/nxQiEHQJMEMJOpf4F9TdBoIf3p174MT67ejPmjOq9cfd5PXA7Xdj/2h8xcdE6pA9BgpB7xoCbVU7MmxaFzBQVFIreH2m9XuDoWSNGZmmQmtQ7otWbrUpk5uI1C5bMiYG099PszVD91tbl9mHn4WYYzR4MT1dhwQwdrDYPrpfZUXDVilmTIjE6W9Nv43FHjAAjcGsEmCCE6Q4ZCILw6T/9GJ9b/QBmjRx3R6i5nE7sf+X33RIEh9WM+vISNNWUAfAhNikDicNGtgtH+LxeNFaXo+ZGIdxOB3TxSYiKS4ZF34DMcdMhk8uDcyNS09jsgg9AYlzfjfHuXD0aml14cH0C5LLurS4ZOhpbIZfA4/W1a2u2eLB1XxOWzolGerKyWxzdHh+8Hh/kcgmkt7HwHmrrRTvCUnDVguKbdmxaFT/gBMHpovX6oFRIuw0DBNajVN4+LPPOrkaMG6HB+FERAh+Hy4d3djRgzAgNZkyMvKO9xxcxAoxA7xFggtB7zIbEFf1FEOjBT0L//5kXfoL/WLcF07LHiM8kvQwK34og6OuqcPyDl/3eD6USEkjgdjkhkUqx5MF/h1qrE0bo3P73UXvjGqRSmfjO6/WASAMJtYvQxQb1czLfhOIyu/g7KUGBVfNj+qS793Y1wubw+gmCvDNBMFk82Jurh9Xhnw/ZdZlMgk+sTwC1bmx2o67RibzLFsydEgWNym8sE+OVULTwFzo9HzhhgNnqaelDgpULooME5+JVKy5cs4jvNq6IQ/5lC25WOcTfk8dqMTZbg0a9G2cumODy+DB7chQkPkClliI+ppU89QmIlotNZg/2n9DDbG1ZrxS4Z1kcorQyEBH68ECT0GNqogIVtU5x1dSxEZgwWhscnsgUrbehySUIxsKZUdh/woAls3RIT1GJdgGCQN6DmZOYIPSH7rgPRqAnCDBB6AlKQ7BNfxCEw5fz8d7Jg34yAKC6uQEx2iholP4H9/ScMXhs8boeo9MdQSAOkvvO32A1GzD/vicQGZMg+myqLsOp7a9DrlJj2Sc/j7qbRTh/8CNEJyZjxupPQKFSw2rUI/fd/xUkoSNBOHjCgMo6v2GK0EixeVV8j+fasSHN8c3tDaDTelcEwe0B3t/dCKUSWDQzGiarB7lnjFAppXhgTTzcbh/e3NEgPAsdZdmcaKS1eBPyCy0oKrVhyphIaNQSHM0zIS1JgcWzo8VldY0uFF63oqLGKTwUxNGGpapwvdyO6eMjUVnnQE29q9MYMToZNiyNu+P1d7zw2g0rzl6yIDJCJlz/5EU4mmeEQi7F/S3r/XBfE+xOr2gzcXQETp03ifVvWZcApUKCiioHjuQZIZNKMDxDjfIqh2hPa7p/VTzULUmgAYJAbeZP57yPflMid8QI3AYBJghhukX6gyAUVpTiRNFFgZBMKsPOc8cxOSsHyTF+QzsqJQMLx03tMYLdEQS7xYQDr/0JSVk5mLHqgXb9XT62Gzcvn8OCzU+h4loBKq5dwMrHvgyprDVZzdBQjRsFpzBhwRpBGgLSqHfh3CWLcPNPGx8pMuHvRK7dsOFGhUOEF9KTlFg612+s2wp5B3YeacawNBVGZKqF8XY4vMLj0DZuvu+YHgaTB5tWxwvSRdLWEUNzLq1wCCJCHprKWidio2VY0kIQqP2VEhvOXjRjwqgITBwVIbwZZHgD/QTmsnxeNFIS/GGMXjp7bgmTze7F+3saoVJJsWimLtj3pSIrKmuc2Lw6XiQVfri/CT4vsG5prCAElEtAXh0iCE6XFx/sa0JcjBxEkIhIOZ0+vLu7AWq1DJtWticzH+1vgtHiQWaqCuNyNEiIvTNd3on++RpG4OOKABOEMNV8fxCEttCQAaIchC+s3YIZI8beEWrdEQTKHzj89v8ie9IMjJ2zol3fldcKUHB4BxZsehLlVwtQVXwJK5/4MiSS28eyqSNXID7eg9h3d4s6eNKAqlqnMISUO5Ca1Dl3gMbZe1yPJr072A21p5j5mJbEOsrGf2dHI5IT5Vg8qzPJoES8C1ct0EXKEKOTgwwxJRuOzdFgxoRW1/qxPBOajW5sSMF5AQAAIABJREFUWNoaTmk7dzLU1M+D6xMh7RlMvdJnXaMbe442i9yIjsRDIZNg4/JYQW7e3dOISaMjMH6kP5eAEhDtDq/IiyittIPWsXG5PyRBQqTo7R2NGJ6hwpyp7T0FJ/JNKGkJF82cFIXR2a1EsFeT58aMACPQYwSYIPQYqqHVcKAIQn8kKU5avB5pOeODgHrcbux9+XfQ6mKwYPPTIreAxOt2Y//rL8Blt2HZw19AWWEeruefwNx7HkVsSkbweouhGWVXzmL09CWQBYL5gDiJk9ubZO6USORk3XkGPMX1dx1phlQiwUMbEjoZxoIrFlGCl52pgc3uETH4fSf0SElQYPk8f+6D3ujGtoPNIr6ekeoP01DoQSqjSD3w1o4GZKWrMKelfLK2wYm9xwxYMluHjJZ4PF3zwd5GxEQrsHiWrstNefSsCY0GF+5d7j+FE7mjJEHyagREhHXOGGC1e8VpvDfJfyXldhw/Z8LGZbHQRbXmNVCYQSb1511YbB5s3duEZXOjkZqoFOO/tb0Bo7I0mDk5UngTThWYcN+KeBH+IaHQyL7jeuEtyUhpJWFErCi8Q/On9m3yUIfWTcmzZQSGGAJMEIaYwno63YEgCE/98Vl8bs39mDd6Uk+nIdrVlRXBZtLD43Hj6ukjSMkejbjkdHi9XmSNnynCBYUn9qP04mkoNVrMWvsJkVOQv38rrCYDssZPw/j5q2EzG3Dw9RfF6TRrwnQkZoxA2ZXzqCsrFu2JRLR9AdPhU0aU1/gT+MjlTbkAfZFbJSlu3dMIp9uHFfNihNv8crEV5y5bMC4nAtMn+JPymvVubD/cLBL10pNVOHfZjHq9G9lpKkybEIW3dtQjOUEp2pMHgPIMyDgGCAJ5E8irkHvWiKxUFYZnqoWHgAxwW6HcByI0dF19s1uUO9K7BbasJWLjT4K4ftOOE+dN4noiEtqInr9foEnvwY7DTSL0sXxOjEgipKTIBr1bhDzIY3K11CYSKJfOjkZ6ihLl1Q4cPm0UuQiTRmtRWev/W6WUYNEMHUqrHCDiQfmmC6ZHiZyEgHCSYl92LV/LCNw5AkwQ7hy7QX1lfxMEWiwlKSZExUDRyyPc0ff/AWNDbWe8JBIsfuBT0MbEw+txo6zwnCAKAaGSxdEzFyNr/IygV8Hc3IBz+7eC/huQhPQsEZqIiktsN0bgpEvnZnLRj8m5cw8CddwdQaDTOJ3+PW4fKJ+f3O702dgRfnIQcMPTKXrvUb0w3iR0Ih49XINxIzUiBr/riL+MkoRi9pQ/UFbtgFbz/9s7D/Coryvtv9M16r2AkOgdJDC9F9Mx7kmcstlsnHxJdv1sSzaJ8yXrtE3bb7PZlN2UTbcTx93GdDAgOpgmepOEeh9JM6Pp8z3nDhpJIEAS0mg0eu/z+LGYuf9bfucP973nnHulxbqlSXhzZ4PaiXcskn8gwqfjscuS8oDnpC0hMjVJj6njYzodqxRvSF2jLOgxyJsUCAF0t0hOR+FluxJBbX2I50BCCeNGmVFR5VLiQ0pCnIRT4lU+ghSxhZy+kBMch0+34OatExgyXzllUVnrRpQkdq5tF3NtAkHaloRIFhIggdAQoEAIDeeQ99IfAiEUk/D7fcrbIMUUHQfdXW5tlMRGr8cNozkaBuPd49FeL+Dz+Xt1qdHt81W5CDUutSDLgt6x2Ft9ylUuMXZxtcvPd7srweHwqWOj4tW4PYYvxxxlVy+Z/w9SJJ7vdPnUOMXl37GoGyEPWJSnY+2SrvMYutO3eDMkEVPuNmgLE3TnuY51ZL5SZL53y5eQ45QiMKZNDHgfWEiABEJDgAIhNJxD3stgFQghB9WDDmXXLBcQxURpMXNKLHKGB/IIBlvZf6wJlXVurFmUqJIhw7WId+L9QqvKV/D4/J1yN8J1zBwXCUQSAQqESLJmh7lQIPS9YWVXvm2fBU02jzq6OIu3+vU95A4tikB4+d06+Px+5TmYNqFnoZB+HRwbJ4EhQIACIUKNTIHQf4bteOdA//XCltsIkDffBRIYGAIUCAPDvd97pUDod8TsgARIgAQimgAFQoSalwIhQg3LaZEACZBAiAhQIIQIdKi7oUAINXH2RwIkQAKRRYACIbLsGZwNBUKEGpbTIgESIIEQEaBACBHoUHdDgRBq4uyPBEiABCKLAAVCZNmTHoQItSenRQIkQAKhJkCBEGriIeqPHoQQgWY3JEACJBChBCgQItSwFAgRalhOiwRIgARCRIACIUSgQ90NBUKoibM/EiABEogsAhQIkWVP5iBEqD05LRIgARIINQEKhFATD1F/9CCECDS7IQESIIEIJUCBEKGGpUCIUMNyWiRAAiQQIgIUCCECHepuKBBCTZz9kQAJkEBkEaBAiCx7MgchQu3JaZEACZBAqAlQIISaeIj6owchRKAfoBv5NcZ2hxcmgxZ6veYBWuKj4UJAbNrq9MFk0ECno03DxS4cR+8IUCD0jlvYP9UfAsHpccOo00OjGdh/+GzNDTAYTDCaY8LeDncboNvjx5a9jbDavUhJNGDtksRBOxefzw+H0x8cvzlKiwF+RQaM5fWbDhw53QKtRoNVCxORmqwfsLGwYxJ4UAIUCA9KMEyf72uBIDujv/3V9/GJFRsxe8zkAZu13+/Hzt/9EGk5ozFjxWMDNo4H7fjAiSaUVLiQlWrEzCkxSEwI/UJib/VBFncp0WYdtFrAavMGpxYVpYW+G7vgknInDp1sDj732KoUiEgYikWE35mLVlwuciAz1YCVCwav8BuK9uOcOxOgQIjQN6I/BMKz//0tfGb1k5g9dlKPqfl9PtRXFKPV1gyDMQppI8ZApzcE23E7HfD7vPB5vTDFxEKj0cJhbYZWp4fP50VUTFygrgiEP/wnEtIyMWfdM12Ow+f1wdVqhWxjjVFm1UZzXRVaGmuRmDYMMYkpwec8LicsNWVwttpgMJqROmIMtLJS9nPZecCChiYPnl6XqhbmUJfKGhf2HGkKdrt8bgKgAd7r8Nmc6XEYNzLqvkNzufxosnpw5qINjc0ePLU2dch6ENpgiX2dLh82rki+Lz9WIIFwJUCBEK6WecBx9ZdA+Nzap/DQ6Ik9Gl19RQnOHdgGe7MFWr0BPglVRJkxcd4KDB87VYmCHb/7D4iIkDJx3nJooMHFI3uC/czf9FE0VpejsaoU1TevQ6vVIT1nNMSjIGXC7GWISQj8Y3x232aUXz2vfh4xMQ+2pkY0VN4MtKXRYOnTn0J0fBKqS67g1O63gv3K17GJKZi97oPtguTWCGSXfLzQqv60ZHY80lPaxU2PYAQ0DjbvaYDd4cMH1t+5mMou9Gpxq6zXiI/TIzFOj+JyB2x2HxLjdRg/yqy6rKx1obbBDYfDD50OyEg1IDvThFaHD8VlDlVH6IwbaYZBr0Gz1YvyKpf6VNqVZ68UteKRFcnBHX95tQt7jzZh4cw4jMyOgsfrh8y9xeqF0+1DlFGLsSOjEGPWdZq2zOnd9xoQE63D8nkJwe+kj7oGNwwGLcbmRqGq1oXGJo/6fmyuGQZDIFzlcPpQVOZAi9UHn9+vwi7dESc9YV9U6lD9SG7A2JFmXC9uhcXqVWymT4hRQq3F5kVZpQu2Vq9iFxcd4C0hk0s37AqofD4sw6jsIuXSjVb4fWIDTdA2uw5a0Gzz4onV7WK0J2NlXRIIBwIUCOFghX4YQ18IhAZrE65WlgV3gz/Z8grWzpiPcVnZasQZianISc245+jFM7D35f9WHoG8ZRuV56Cprgond70BV6sNS5/+NKJi49HSUIOTu96EvbkRs9Y8hfiUDOx9+X9gMsdg5sOPIz41E1dO7FcLvaWmAlq9HvHJ0rdf/YM9deEaxCWnqbF4PW60tlhw6M3fw+v1wBQdg4lzl8Nlt6G65BpmrX1aeS8qb1zAzYunMSZvPlKHj8SNwqO4crwAE+cuw8ipszvNa/chC6rq3OqzMTlmzMuP7bXVZDF9Z3cDHC6f8iDcHq+XhVwWaclPEFe9CACTSQOXSxY3LZ5el6IW7Lf3NCDKpEWMWasWNq8PeOzhZFTVulUcXEpMtFbFwqWeLGSnLlghOmzimGikJelx4P1mPLE6FVEmDbxev2pTqwEeWZmi/n+91IGjp1vUQimJlOIhSIzXY/3SpE7z9/r8eGNHAyaPjcbksQEBI+XMJRvOX7UjIU6PDcuScPSMFaWVTrjcPjz2cAqizVo0WDzYdcii6ks9+U4YjMg0Ycmc+F5zvv1B8Y6IYJGoilGvUeJHRIHL7cemFcmIjdFhy75GxTY+VgeXx69CLvNnxCErzai+E4ERF6NTYSERY+IlkFwSEXtJCe1cKBD6zGxsaAAJUCAMIPz+7LovBMJfDu3C60f2Bocpu3W137u1ouWPHocvPfbxe07jxulDuHyiABPmLEXOxBnBujU3r+HM3s2YunAVRkyaqT73uF3Y9ccfw+8N7DCNUdFY+dHnOrUvY9glIYbUDMxZ/+G79i2L8K7f/xAGsxlLn/7MXVzefpRePI1rZw7D5/MhPjkN9eUlGDV9LibMXtqp7cIrNpy9ZFefLXwoHiOHm3ptvrZENlmEZPfeVZHcgNd31MPp8mPm5FhMurXoyuLeFpJQvhPZ0foBCRnsP9GkFl0RFdv2N4qhVPLjtoJGJMXpMTc/Dn/ZUov4OB3WLk5Wi+WOAxasXpiItBRDUEB8aENaJ163nDRqmMfOtKCu0Y0NyzuPWxbT17bWYfGseGRndWbz1q4GJSqW3lrsCy/bcbmoFU+tDeyuX91WD6NBg00r29vcd6wZtQ0uFa7oy3Lw/WYUlzvVYr52cZJi6fVCeWDaiszX75c33YfXttdjxuRY5f0Qr87xs1Y17qIyJy5cs+Px1Sk4dsaKG2UOfHC9cAt4tNr6ES/MghlxQz7k0pc2ZFuhI0CBEDrWIe2pLwSCLJqtbnFJy1Kjwd/96vt49uFHkTdyvPrMpDdA3/Ff1i5mWFiwFWWXz9517qOmzcLEuSuD30tOwO4XfwKf14NJ85Zj5NQ5DyQQxuTPx+i8eXf0L2LkwGu/Rqu1SeUkpA3LRUNtOZprq1X92wWCLBqyo5dlIyZGFxBKvSi7DzWhqi7AVBZM2YV2VUQYvLa9Ti0ussh0LDKWtt2w7ILbiuzwH1+VohbbI6cCC/n8mXHYXmBRO2DZ3e8+bFE7edmpy2749e31GJNrQv6kWMhCLou79ClFdvaHTjWrHfWtXEb1eVqyAasXdU6+q5DQxLEmPLI8GXGx7aut6mNHPWZPjcW4W6GRghPNKgwibVwtsuNYoU2N2WRsT8aQnbno0L4UCMLtrV31KnyxePadngnJoRDxJmMWqmJj+b+InpxhJtQ3eLDtQKMSddsLGpUwe3p9Kl7bVo8Jo82YNj46aAs51fH6jjrVgMxDPEU8ytqLvzB8ZEAJUCAMKP7+67wvBMLti1JvkhQvHd2DosLjyF/xCJIzczpNWP7hNETFBI9Nuhx2HN38EpwOG8yxCbA3NWLaknXIHNWe8xD0INwjSVE6afMgjM6fjzFdCARrQy0KXv81pi5agxET89W45Jk9L/4Y2ROm3yEQZLG8eN0OrVaD6RNjlFu/N6W6zqVCFRev2ZGaZMDDC7vOci8udeDQqRa1Q739RMC5K3YUXrFj1tRYDM8QkabB9gMWSO6CCATheu6yHVdvSmw84HGQcRsNgeOHsjDL/2W+srhJ+EJ2+PUWDx5ZnhQ8v791fyPcbj8emhqL9GQDmlo8yuMwZUI08iZ0PmK675gIHzeeXts56fKGhCjOWFUs3mQMyKo3d9YjPcWIBTPjcOj9ZhSVO9VcZIwdi8w7O9MY/Mje6kVpZUBc5Q43qbBJT0qb6JqfH4dRIzqLLglpbH6vAWNGmDF+dBRio3UovGzDxeutyrMhYQWrzYe399RjWJpRJZhKKERCNZdvtOLRh5M7jefY2RZcLXaovJAxOVEYOTyKXoSeGIt1w4IABUJYmKHvB9EfAuGTP/smPrPmCcwZO6XbA26pr8Ght38Pc1wi8pdtVLt1p92K2rIiFBUew4RZS5A1ZjKsjbUoLNgGS20lFj/xN0og7H/1l3A5WpG//BGkjRitTiP4/T7s+sN/qb3d/Ec+Bq1OB0ttBYrPn8DoaXOVmLA3N6jkxQNv/BY5k/KRc0sAmMyx0BsDO3YZ14E3foNxMxche8I0tFpbcOXEXjRUliFnYh7GzlwEU3R7nsG+480oq3SqZ8flmjEn78FyEFSSotOHD9yWgyB5ABITLzjeBEuLV+1WZRdrNrXfLSA7cBEsEj6QupJ8J4IhIyVwrE4Wfzlmd6IwkIeQPykapy/a1cIvIQjJN2gr+442oaw6sOjOy49Ti5kUCWW8srUOI7JMmD09VokDyV+oqfeonAZJ0my7FEgG+M6eeiTF67F4doLqv23xFlF1+qJNufOjo7Q4d60Vl67bkT8pBlPGReP9QisuFbVi7vRYjMk1w+3xob7RAxEWwzNNnUI5Et64WuJQO3ERMnI0sztFxilegfIqJ44VWlX+hNGoVcmJ8p+Uylo39hy2YMW8BBV+qK53qzCBeM6eXBvwykiegXgghE3epBicvWhTtpk9LTaYnNg2np0HLbDwREd3zMM6YUyAAiGMjfMgQ+trgSBj2Xb6COaNm4rEmJ4tjjfOHsW19w+ohMG2IpctyUVHczc8o5IKD77x2+B3k+YsQ3RiCt7f8VrwsxkrHw16EqqKLuL0e5vbTx9oNOroZN7yjYhPTseel37aJbpxMxdg7MzF6jsJMRS8+is4bIFFVIq0IWORY5XxKelY+Pgngt/Jgn3z1u5VFoep49rdyT21U+AUgyS2ee84xSDJheLmvr3My4vDmNzA4n3inFXtWoPjloQ7TyBZU05YyKIuMXK5m2B0ThTGjIiCLFjD0o2dThjI89dKZIffguR4PdYta088lDG+uasecleCFFn0xVMhIQ2dVqMSJY+eteJGF2OVus9sTFfxePn+yJkWJSakSBsigmSRF7e7LLZv7KxTuRbt7wZUuEGOXiYnBk4KtIUq5Of1S5PVaY7uFhE1Ow9KTkbnkpqox5olgTk3NnmxdV+DYihF5ihEZXxt3CTs8cbOBnVL4iMrUvDK1lpV/8k14h3p7M1gkmJ3rcN64UyAAiGcrfMAY+sPgfAAw4GED+T0gdvZiqiYeETHJ8NkjlYeADne6LC3BAK+mkByohxjDH4m+Q7RMcqD0FYcditslnoVnhDvhNEcDZ187/ejVRb9jpl1aoUDDKYo6A3tMX8RCU015eoOhNjENMQkJMHjdqv8B+lL+mwrsjBamgM5CLLDfNC7C+ScvJwIuP0UgyxCstjfXuTSIlm0pMgCK0cH5RiduOrlJIC4u4WfuOXFVS8xfjmWN31irGJx4aodE8ZEq51wxyInH+ob3GpObUcO276XRbui2qnYSd6BhCjcbskN0Kg+7zbWtu/b2pF5Nrd4VRjDbNKoUIhGq1EeBSkSxqipd6kriqNNWiQmGJQHoiNjSQ68UtyK7AwjlsqdDT0ocsLC4QgInY5FRErbwi6vi83uVfkhsdF6JUDkM0kWbasnf5YEy9zhRpXDISItM82EhLg7Qx2Sa2JzeNXpCBYSGKwEKBAGq+XuM+5wEwgRirnX09p/rBmlVU6MzYlS7mlZoFm6JiBySZIpRdxsXJ4c1rF8EXdyukGOlKYk6nmTIl/qQU2AAmFQm+/ug6dACG/DSkx/z+EmFdfu6lRAeI8+9KOThMHMNKNiFc7lekkgpCK5DXIT5cjs3h+HDed5cmxDgwAFQoTamQJhcBjW4wmcwR+qv9xocFipZ6OUq6clXEOb9owba4cfAQqE8LNJn4yIAqFPMLIREiABEhiyBCgQItT0FAgRalhOiwRIgARCRIACIUSgQ90NBUKoibM/EiABEogsAhQIkWXP4GwoECLUsJwWCZAACYSIAAVCiECHuhsKhFATZ38kQAIkEFkEKBAiy570IESoPTktEiABEgg1AQqEUBMPUX/0IIQINLshARIggQglQIEQoYalQIhQw3JaJEACJBAiAhQIIQId6m4oEEJNnP2RAAmQQGQRoECILHsyByFC7clpkQAJkECoCVAghJp4iPqjByFEoNkNCZAACUQoAQqECDUsBUKEGpbTIgESIIEQEaBACBHoUHdDgRBq4uyPBEiABCKLAAVCZNmTOQgRak9OiwRIgARCTYACIdTEQ9QfPQghAj1IurlU7YDd5cXMETHdHvHV2laMTTND0+GJyzUOaODH+HRzt9u5veLNRhcSzTrER+l63QYfJAES6H8CFAj9z3hAeqBAGBDsfdJpVbMbWy40dbutJLMOj+cl3bP+Lw7WorLZha+tHQ5NxxX/Lk/5/MDX3i3DlCwznnkoJVjrpwU1gN+Pv12ScceTLo8fb55tBODv9N1jeckw6gKdHi224eWT9RibHoXPLUrv9hxZkQRIIPQEKBBCzzwkPVIghARzjzuRhdfu8iHaqIXH54fb60eMUdupnaJ6J368rxqjUkww6QPf+f1+XKl1IDvRiBhj+867uMGJ5Bg9Pr8iM9iGtHmxqrXDMq3BtToHDl5vwcZpiUiJ1nfqb3x6FMyGzmN4v9SGF4/X4++XZyA3yRSs/98HapRH4TNdLO5Ojw+/PVqn9IEPgAidVrcP396YDYNOI7oC39peAZlSnc2Df1yeqeZze3F4fPD6oLgIKxE0t4+vx+D5AAmQQI8JUCD0GNngeCBSBUJjVRkaKooDiyaA3MmzYIiKGhxGAXCpuhWym980LRHVVg+OFlnxtXXZSDS3L9AiEH6yrxpfWDUMmXGBxdzm8uGbW8vx8XlpmJTRPt+f7K+BLKgdBUJ5kxv/b3dlYNd+L2+BH3B5/fjnFVkYnmjoxPAHe6rg8viQFW+Ax9vuEShpdKmFfmRy+8JuMmjx8Tmp6vmKJjeqW9yYkR2NLectOFpiw9fXD1fPvHamAUeKrPj8yiz85VQDalrc+L9rhiHqNnEic7pR78Dzq7LwbzsqYdQD392UM2hszIGSQKQQoECIFEveNo9IFQgXDu1AyYVTwdnOXf8hJA/LHTRWLG104YfvVSn3+uVaB3ZfbsYL67MRH9WVQMhCZlxg4Zad9DeUQEjFpIz2+L+4/GWX3lEgVLV48P2dFXh+7TBE3/JAdAXI6vLiuzsq7xAIdVYPvrOzAo/nJWPbBQu0t4ZmdYhfoL1Em7TQaqDyCf5peZb6YvN5C86W2/H86mH40b4qaDVaPLckHW0eiadnJGP+qFjlXfj+rkokmPV4fnWW8jC0ld8fr1MekG9uGIHn3ylFlEGDb6zPHjQ25kBJIFIIUCBEiiWHiEBQngOfD011lTj89h8xd8OHkJw1eARCRbMb/76rEs8tzUCpxYV3z1nw3U0jOuUFtIUYJHSglxVYeUv8qGvxqAXVqG9fTBtsHqTHG7oUCLcLj9tf9WaHFy9sKe8kEJweP769vRxWpw9fXJWFjFsCpanVi29uL1eufq1GA6vTi6+sGYbk28IVfzheB7vLj08tSMPXt5bjoZwYpETr8PqZRuVFkLCJVqtRjo0bdU74/H5kJxnx7Py0YNLin96vx7lKEQjZeGFruQpDfHpBWoT+TeW0SCB8CVAghK9tHmhk4eJBKC48DrfLqVzdBqMJI6fMws1Lp+G0W6HRyNbUj5HT5kBvMKKuvAh1ZUWwWuqUCIhPzcLo6XNgMN2ZMd9cV4WDb/7uDoFgb7Gg/HKhWlBzJs1AVHQsis4dh9ftVn3lTpkFg6ndRV95/QKqiq/A5bBDbzQiI3c8ho2dAq22c4a9y+1HebVLtZGTZYKuw463J4ZqcfrwwpYyPL9mOMotLrx2ukG54DuWNoEwOzcGcabAOCSv4FCRVSUNpsa05xCcLLUh2qTrUiD89bzU4PNdjVHCFr8+XNtJIIhH493zFlW9o0D4y8kGlFqciDHp1FjEE/JUfjLm5HY+FSEejeRoHZ7MT8YL75Zj/dQE7LncjGEJRuQkGdHsCOQU+HyATgtkxBuw+ZwFm6YnYv7IWNVvwfUWHC+x4Z9WZOI/3qtCTpIJT+XfOwmzJzZgXRIgge4RoEDoHqdBVytcBMLRzS+hoapULbgJaZmYu/EjOLnrddSXl8Dn9SA6PglzN35YCYSdv/8RtFotouMTVVKe1VIPc0wcln7wM9Dclnp/N4FQX3kThfu3oLWlCbPXfQApWbk49NbvlEiRz5Y8/SxiElLg9/twbMvLaKi8CXNcAqJi4+GyWWFrbkTmqImYsWITOm7rj5214mpxq3oPZkyKweRx0f32TrTlIEisPishEGJoy0H4q7mpmJzZLph+vL8asuvvKsTQ3QG25SCUNjrxn+9VIylGD/FMtAkEyVOQ/Ic1kxNxrsKuxJdJr0NxgwNfXTO8U3jguzsrMSbNpBb7/9pbjadmJEOSIN1eH1JjDDh+0wbxXDw8IV4JjZ8frMHycfFK+LCQAAmEFwEKhPCyR5+NJlwEgviVD7/zB9hbmrDyI8+p+Ymr+b0//xQ6nQFLnnoWmltBbq/HBY1GB61Ods1+XD91GNfPHMHyZz57hxfhbgJBLaZNjSh49ZeYte4DSB02UnXocrZiz4s/weKnPqkEgqW6Qo1r5NSHMHHuSiVARJQc3/oy6itKkLdsA4aNnRq0x66DFlTXixcCGJdrxpy8wG63P0p7kuL9cxDulaQoXoqEDrkNdxurXhdw+TfYveoUwmPTEvGT/dVBgfB+mR0vHqvDl1dn4ZVTjeoehE8vysCX3irFuskJWDE+PmBXAF95pwxO9y0vgT+gsTZNT8LbZxvxkdmpKKpz4mSZFd/aMEKFKb6xrQIfm52C6cP7T3D1h43YJgkMBQIUCBFq5bARCABuXjyF8wd3YNqSdcgePx1lV86icP9WzFrzJNJGjFUWcLbacGbP22huqIHH7VKeBAlByE5/+TOf65lAaLbFiainAAAXiklEQVSg4JVftAsEAC6HCIQfBwXChUM7UXLhJOKS0zq17bA1w95sQe7kmZi8YFXw7bA0e3C80ArRLvPy4hHd4dRBX79CbSEGSdy7lYKgFl+5Z0ByEsQ131Zkd5+VYOzkQXi/1K7uGvi3R0aoI4U9KbKrv9Hgws8LAgLBoNWohEVJLHwiLxk/K6hRi/5nF6Xjt0drcaXGiS+tylL5A3KEs6JJwjDtRY5rfuChZBwrtqGy2Y3nlmTguzsr8LdL0iGyRL7/5xWZGN7FcceejJt1SYAE+p4ABULfMw2LFsNJIMiCv/fl/1ELvngDjm35M9xOBxY/+ckgq3MFW1F29RxGT5uDlOG5ajtace08Kosu9VogzF73QaTcOuEgAmH3iz/GklsehMKCLSi7XIhhYyZDb+h8xE8SJjJGTUDq8JGdbGlv9UKn1cBk6uGq28M34nylA785UqPc8213JEgY4eWTDVgxIR7Zt8IO0qxcqCRj6hhikITAU2U2leTXm3K51hkUCG+dbcS1Oic+MS9VJSi+dlouQgKeyE9SdxX8/midyjn4h+WBexhEsBTXO9WdDUtGxylx8dnF6WhyePHbI3X42rrh+NHeKszIjlGnL+QY5Hc2ZndKvOzNmPkMCZBA3xOgQOh7pmHRYjgJBAEiXgTZtc9c8ShO7nkL42ctwei8eUFWRze/CK/HgwWPfVx95vW4Vf3KGxe7Fgj11Tj4xm8xd8MzSM7qfEbedsuDkL/yUWSOnKDau376MK6c2I8lT38KMQnJKLt8FoUFW5G3bKNKSmwrImZaGmsRHZsAU3R7GOHi9VacPG9V1ZbMTsCIrDsv+Okrw++41IRdl5vxjfXDg3cEtOcgpGFyZnuSZVc5CLLLd7h9KsmvN6VNIEwdZsaFylY8KiGCQgu84iK4rSwbF4e9V1tUMmJti0clF4qHQY4+ym2LP9hVib9bmgGjTovv7KjAc8syse9qs/KMyEmFsekmfHo+b1TsjZ34DAn0NwEKhP4mPEDth5tAkFMLe176qaKhMxiw6mP/EMw9kM+Ob3sZdWXFyB4/Tbn9r546CI/TqXIDRufNURciGc0xKD53DF63E80Ntaguvob0nDFISE2H1+fFqKlzYYyKVickxGPh8/kwZcHDsFSXo/zaBdV37pSZmDh7Obw+D/b9+edwuxzImZSvTjzUlFzFtdOH4fN6MWG2CJj5Qeu9d8SCippADsLYXDPm9lMOgqzBX367FEa9Vp1uaAsx3E0gSK6Ao0OSotxp9MW3bqrEvw1TEnv19rUJBMkdqLC48eFZyZB2ZSyy+zfpNfjMwgx1W6Ic5th+qQlrJiZg15VmlcC4aGQczEYtHG4/vrK5VAkVOS75tS3leCIvCbNGxKhQxL/vrlIiYkxq+02NvRowHyIBEugXAhQI/YJ14BsNN4EgRC4e3oni8ycxftZSjMlv9x7Id63WZhx5549w2FoUPNnlS52z+7aoP0u4IDkzW510kNMPXZUFj34MCWnD1FfVJVdwas/b8Hu9SpBMWbBanW6QRMTFT/4NYpPSVF8nd72BptrKYHNRMXGYsmAVUrNHQatrP054/aYDR04HxvbwgkRkpN4elugbmx+7acOfT9TjkwvSMKXDaYWOAmF8ugnX65yINenwq0M1iDbq8IWVAW+B3ENwusyOr64drnbxvSkdQwzpsYZOdzR0zEG4X9tvFDbiwLUWdeSx3OLu1E5NiwvXap2YPTIGErBZOykRCb0c7/3Gwe9JgAR6R4ACoXfcwv6pcBQI6uhiY606RRA4qdC5yPdOe4s6EimegG79VqF7WELCFOIN0OkNXfbX9qjcgdBWr+MdCbc37fFIWj4gWf/9VWSBlzsG5CbCjkXi9d/bWYlnZqUgKVqnbkBsKxumJmLl+Hi0unz4+rZyzMqJfaB7AzoKhLaLktr66o5AkN/XIImWckXzQznRKkxypsx+V2TiNRHPQk9+02R/8We7JEAC7QQoECL0bQhHgRChqPt0Wk6v3Jjovm9Wv1y9LJmceq22U4LfwSKrylFIMnf+hUw9GWSt1YMD15uxamKC8lJ0LHJZk5ykuP2CpI51LK0e9cuYREaNSR08vyejJ4xYlwSGAgEKhAi1MgVChBqW0yIBEiCBEBGgQAgR6FB3Q4EQauLsjwRIgAQiiwAFQmTZMzgbCoQINSynRQIkQAIhIkCBECLQoe6GAiHUxNkfCZAACUQWAQqEyLInPQgRak9OiwRIgARCTYACIdTEQ9QfPQghAs1uSIAESCBCCVAgRKhhKRAi1LCcFgmQAAmEiAAFQohAh7obCoRQE2d/JEACJBBZBCgQIsuezEGIUHtyWiRAAiQQagIUCKEmHqL+6EEIEWh2QwIkQAIRSoACIUINS4EQoYbltEiABEggRAQoEEIEOtTdUCCEmjj7IwESIIHIIkCBEFn2ZA5ChNqT0yIBEiCBUBOgQAg18RD1dy8PgtvjR1GpAzHROmSkGvr11xeHaLrshgRIgARIoI8JUCD0MdBwae5eAqGyxoU9R5rUUFMS9Vi7JClchs1xkAAJkAAJhAkBCoQwMURfD+N+OQg2uxcHT7ZA/v/YqhRoNH09ArZHAiRAAiQwmAlQIAxm691j7PcTCPLo0TMtKCl34qm1KdBqqRAi9FXgtEiABEigVwQoEHqFLfwf6o5AOHK6BTcrKBDC35ocIQmQAAmEngAFQuiZh6TH7ggE8SDcuOnAE2tSYTLSgxASw7ATEiABEhgkBCgQBomhejrM7giE8moX9h5tgk6nQUKsFqsWJfFEQ09Bsz4JkAAJRCgBCoQINWx3BEK9xYPtBY3w+4EokwabVqbAoKcnIUJfCU6LBEiABHpEgAKhR7gGT+XuCITTF2y4cN2OmVNiMXG0efBMjiMlARIgARLodwIUCP2OeGA66I5AYJLiwNiGvZIACZDAYCBAgTAYrNSLMXZXIJRUOPE0jzn2gjAfIQESIIHIJkCBEKH27Y5AkATFBosHj61OAa9BiNAXgdMiARIggV4SoEDoJbhwf+xeAqGpxYt9x5rQYvMiKV6PdcuSwNTEcLcox0cCJEACoSVAgRBa3iHr7V4CoaHJgxOFVhgNGiyYGa/+z0ICJEACJEACHQlQIETo+9CdEEOETp3TIgESIAES6AMCFAh9ADEcm6BACEercEwkQAIkMHgIUCAMHlv1aKQUCD3CxcokQAIkQAK3EaBAiNBXQo8jAPwROjtOiwRIgARIoL8JUCD0N+EBal+HM9DAPkC9s1sSIAESIIHBTsDnz4ZPMyIsp6FpbGzkFriXptGgFVr/VWg0tl62wMdIgARIgASGJgEtfMiEDzlAmB6Cp0AYmm8mZ00CJEACJEAC9yRAgcAXhARIgARIgARI4A4CFAh8KUiABEiABEiABCgQ+A6QAAmQAAmQAAncn8CQ8SAU3byJKzduwGg0Yv5DDyHKZLo/HdYgARIgARIggSFKYMgIhOraWhReuoT6xkaMGzUKM6dNG6Im57RJgARIgARI4P4EhoxAaEOxedcuxMbEYNn8+fenwxokQAIkQAIkMEQJDDmBsGXPHvj9fmxYuXKImpzTJgESIAESIIH7ExiSAkGwrF+x4v50WIMESIAESIAEhiiBIScQduzbh6aWFsydORM5w4YNUbNz2iRAAiRAAiRwbwJDTiCUVVbi4PHjikq02YwNDz8MrUbD94QESIAESIAESKADgSEnEI6eOoXi0lKYjEZkZWRgTn4+NBQI/EtBAiRAAiRAAp0IDDmBIEmKDocDm1avhl6v5+tAAiRAAiRAAiTQBYEhKRDgB9avZJIi/0aQAAmQAAmQwN0IDDmBsHXPHhVSWLt8Od8KEiABEiABEiCBuxAYMgLB6/Wq0wv7jhxBekoKFs6ezZeCBEiABEiABEhgqAuEc5cv4/zlywrDjClTMX7MaL4UJEACJEACJEACQ10gtDocaLRYEB0djYS4OJ5c4F8JEiABEiABErgHgSETYuBbQAIkQAIkQAIk0H0CFAjdZ8WaJEACJEACJDBkCFAgDBlTc6IkQAIkQAIk0H0CFAjdZ8WaJEACJEACJDBkCFAgDBlTc6IkQAIkQAIk0H0CFAjdZ8WaJEACJEACJDBkCFAgDBlTc6IkQAIkQAIk0H0CFAjdZ8WaJEACJEACJDBkCFAgDBlTc6IkQAIkQAIk0H0CFAjdZ8WaJEACJEACJDBkCAyoQJBfnuR0uRTs6KgoxMbEDBnwnCgJkAAJkAAJhDOBARUIB44dR1VNNbw+H0aOGIG5M2aEMyuOjQRIgARIgASGDIEBFQhujwdutxvb9+7FsMxMCoQh89pxoiRAAiRAAuFOYEAFgsDxeL14Z8cOCoRwf1M4PhIgARIggSFFgAJhSJmbkyUBEiABEiCB7hGgQOgeJ9YiARIgARIggSFFgAJhSJmbkyUBEiABEiCB7hGgQOgeJ9YiARIgARIggSFFgAJhSJmbkyUBEiABEiCB7hGgQOgeJ9YiARIgARIggSFFgAJhSJmbkyUBEiABEiCB7hEYUIHgcrvR6nBgd0EBhmdl8aKk7tmMtUiABEiABEig3wkMqEB47+Ah1NTXqUmOyc3FrLy8fp8wOyABEiABEiABErg/gQEVCH6/X92kKEWv00Gj0dx/xKxBAiRAAiRAAiTQ7wQGVCD0++zYAQmQAAmQAAmQQK8IUCD0ChsfIgESIAESIIHIJkCBENn25exIgARIgARIoFcEKBB6hY0PkQAJkAAJkEBkE6BAiGz7cnYkQAIkQAIk0CsCFAi9wsaHSIAESIAESCCyCVAgRLZ9OTsSIAESIAES6BUBCoReYeNDJEACJEACJBDZBCgQItu+nB0JkAAJkAAJ9IoABUKvsPEhEiABEiABEohsAhQIkW1fzo4ESIAESIAEekWAAqFX2PgQCZAACZAACUQ2AQqEyLYvZ0cCJEACJEACvSJAgdArbHyIBEiABEiABCKbwKAQCH6fB7Wlx5GcNR16Y8ygsUizw4E6qxWjUlJQY22Bw+NBblLygI/f6nCq8eQkJ8PSaofN6VI/85dtD7hpOAASIAESCBsCIRcIPp8Hx976PGTRTx6ejwnznr0vjJrigziz6weYuvyfkDVmyX3r36+C29GE97f+qxqDRqvHnE3fh1ZnvN9jPf7+ncLTKLh6GZ9evByvnjqOBpsNX9/4OMwGQ4/b6ssHXj11AseKruNTi5dh+4VC1LW04Pl1j8Co0/dlN2yLBEiABEhgEBMIuUDw+70oOv0KKq7uRVxyDvIefv6++BqrzuHs7h9gypLnkDpi1n3r36+Cz+vGjVOvoKbkEOyWciz/+J+g00fd77Eef3+8pBivnDyGr67bhP89tB911hb864bHYNDpetxWXz5wrrICvz9cgM+vWg8RMeWWBjy/9hHotdq+7IZtkQAJkAAJDGICIRcIbaxO7/w3aDRQAkF28j6fV32l0eqg1bbtZP3welzyKQAfdHrTrZ/bifu8Lvj9fvWd29EMj9sOgynurqEIr8eh2pD6Fw/9DOUXd/abQDhTXoo/HT+CFzY8hu0Xz+PkzSL1s0YmDsDtDczZDz8MOr2aZdtnioVGE1y0ZY52txsOt1vVizdHQa9tFxryvdvnU9/ptFpoNRq4PB60OB3KMxAX1S6ArtXV4Bf731Neg4PXr+JU6U08v3ajeoaFBEiABEiABNQa1NjY6B8IFG0CYdryL2D/nz6pFncp8amjMfex/1A/V1zdjfP7fhwc3qwN30RS1rTgn62NJTj82t+rP2dPehhlF3er5Vaj0WLBUz9CdMKIYF2Py4Zjm78IW0OZ+iwudTQS08eirAuB0GKzoeDoURgNBqxctCi4oPeUU621BT/dtxtfW7cJR0qKcKWqEn89f5Fqxunx4IXNb8Dr86k/j03PxKcWLcVX335NLezKOFotvr3pSfXzj/ZsR3VzgJGU2Kgo/Mvq9YjSB8IVB65fxdtnTqqfx2dkYcaIXLx84kiw/qcXLcPY9Az1Z7vbhW9vfUd5Mw7fuI4LVeX47OLlPZ0e65MACZAACUQwgYEVCACmLvtH7P/Ts5AFPHvSamSNXYHEjImBRdTegJqSo4DPg8tHfoOH1n+9k0Dwepwou7gVV47+VtUfPfODMMel4cL+n8FoTsCiD/4CWp0BrS3VOPbWF+ByNCNj9EKYY9NQUvg2/H6fWvxvDzHsKihAfWOjajM7KwsLZ8/u81fA5/dj75VL2Hb+LIYlJuGDs+YiKz4B5yvL8cejhxBtNOGJGQ9hctZwNNis+N72dzEhaxhWjp+Ecksj3jpzEjkpqfi7pSvV2BrtNlysqsKbp0/ApDfA7fMiJzlFiYLdF8/jE/MXY2JmVp/Pgw2SAAmQAAlEJoEBFQi2xlLlXne1WjBz7b8iMWNSl5Tdzhbsf+kTqk5HD4JUbm2pwoGXP4NR+U9g7Ky/Us8XnXkVRadfxZJn/leFGq4e/x1Kzr6FaSs/j4yRCwK76KZyHHr1OeVxuF0g7D18GNW1taretIkTMXn8+H6z/g93b0er24Uvr9moxMqNulr8fP8erJo8DQ9PnBzsV04bSMii1eVSAuBUaQmcHje+tHpD0MMhouMrb72qvBKP5s/EwtHj+m3cbJgESIAESCCyCQyoQKgtOaboJmVOxow1X4XOYO6lQPgslnz4VzBFp6jnyy/vwuXDv8SSD/9aCYST216AzVKOxR/6Zaf2z+75HmqKjtwhECSef624GAa9HiNHtIcp+uNV2Hf1Mt4tPI2PzF2IvOHZ+NXBfcpD8NX1jwZzAo4UXcfrp06oP6fHx8Pl8SqPQaI5Gl9ac6dAGJmahv+zaFl/DJdtkgAJkAAJDBECAyoQnLY65E5/DOfe+yGGjV+BSQs/p5IUby/d8SAs+tAvYI5N71IgvL/1q7BbKrD4Q7+SzL9bzftxbPO/oLn62h0Cwe3xoK6+HnqdDqkpKb3OQejOO+Tz+/Cv77yBuCgz/mHFapWXsHDseGyYmqcelwSRb299WyUafmHVuuBY3jxzChcry7sUCGPSMvDswgc/Dtqd8bMOCZAACZBAZBIYMIFwdtd3VXghb+WXcOPMK7h+4iVkT1qDSQs/e3eBsO7rSMqc0ul7h7UWBX/+NJZ99HcwRMWr7yquvodLh34eDDFcO/EHFJ1+DZljF2Lass+rUwzVxYdxdtf3VELjir9+WeUqtJWOIYbROTmYnZ/fr9aXXIQdF84hJzUVN2pr1IkC8Q60CYSvb34Do1LT8PF5gQTHa7U1+M2h/epkwhc7hBjE8/H8W69iXHom/mbB4n4dMxsnARIgARKIbAIhFwhypPH45i/D2liKlGHTkbfqefg8Lrz3hw/D5/UgNjkX42Z/FDGJI3BGRITfD7k7wdZYBnN8RuC+Ar8f+Wv+L+D34dT2b8FmKUN0fKa6SKmloRg3TrwEZ2sTYpNGIG/Vl6A3ROPY2/+C1pYaRMWmQW+IUv23lYT0CZj9yHeUWJCyc/9+NFgs6udROTmY088CQS5Q+u72zaq/uaPG4MkZne96+MWBvbheU42sxCSVX1DT0qy4SMghMyERfzV3IXZeOo+yxgZUNzepY47pcfHK+5AcE4OPz13Yr16QyP4rwtmRAAmQwNAkEHqB4Pfh+vsvwet2IDZlFIaPXwm5uEh2+f5bR/5GTFmv8gmunfijEgNdlVEzPqAW9BunXg7WyZ3+OFpbKlVeQVuRkw1yL4Kckrh24kVIWEOrNypPhB8+2C2VMETFYvSMDwWfqWtoQFFpqbpTIH/qVBVq6O+y4+J5XK+tVuJAFveOxep0Ytel8+paZJNODwkhZMTH43Rpiaq2atJUdfqhwhI4edGxyHHIFRMm8xrl/jYg2ycBEiCBCCMQcoEQYfw4HRIgARIgARKISAIUCBFpVk6KBEiABEiABB6MAAXCg/Hj0yRAAiRAAiQQkQQoECLSrJwUCZAACZAACTwYAQqEB+PHp0mABEiABEggIglQIESkWTkpEiABEiABEngwAhQID8aPT5MACZAACZBARBKgQIhIs3JSJEACJEACJPBgBP4/cLdnTISIAQcAAAAASUVORK5CYII=;labelBackgroundColor=#F4F1DE;fillColor=#F2CC8F;strokeColor=#E07A5F;fontColor=#393C56;" vertex="1" parent="1">
          <mxGeometry x="557.66" y="242" width="224.67" height="213" as="geometry" />
        </mxCell>
        <mxCell id="jNVcOdFPqT6PLHqW6wM0-19" value="通过访问器模式（Visitor）遍历所有节点" style="text;whiteSpace=wrap;html=1;align=center;fontColor=#393C56;" vertex="1" parent="1">
          <mxGeometry x="370" y="425" width="140" height="30" as="geometry" />
        </mxCell>
        <mxCell id="jNVcOdFPqT6PLHqW6wM0-20" value="修改节点" style="text;whiteSpace=wrap;html=1;align=center;fontColor=#393C56;" vertex="1" parent="1">
          <mxGeometry x="370" y="535" width="140" height="30" as="geometry" />
        </mxCell>
        <mxCell id="jNVcOdFPqT6PLHqW6wM0-21" value="生成修改后的代码" style="text;whiteSpace=wrap;html=1;align=center;fontColor=#393C56;" vertex="1" parent="1">
          <mxGeometry x="370" y="645" width="140" height="30" as="geometry" />
        </mxCell>
        <mxCell id="jNVcOdFPqT6PLHqW6wM0-23" value="" style="shape=image;verticalLabelPosition=bottom;verticalAlign=top;aspect=fixed;imageAspect=0;image=data:image/png,iVBORw0KGgoAAAANSUhEUgAAAngAAAHQCAYAAAAyMBckAAAgAElEQVR4Aey9aXcUR7ouev4OskoIlVBpnqo0lKTSCJpnCZUkNA9oQBKDxGzA2NCAjTGY0QzGYLAx2G1wb7t7t+11oL1PN3ufbnutu/eHe/0nnruiMiMjcqhJqiqk4v1QK6XMjCHfeCLiiXeI+F+bEu2gH8mAMEAYIAwQBggDhAHCQPxg4H9RY8ZPY1JbUlsSBggDhAHCAGGAMMAwQASPNJikwSUMEAYIA4QBwgBhIM4wQAQvzhqUVm60ciMMEAYIA4QBwgBhgAgeETxatREGCAOEAcIAYYAwEGcYIIIXZw0aD6u2hOQs5LtrUV5ZC5ezGInURjTwEgYIA4QBwgBhICwMEMEjwIQFmGgSyITkasydvI47D74Rv/tP0Jy9dd3UMZrfT3mTSYUwQBggDBAGIoWBDU7w0vBOfTd+6NmJJ9srkBQLspaUjc+6BvF8Rx+uFBcQ8YigzEdOPxbETiN5D1BPBI9wFkGcRWrwpHxoIiYMEAbWMwY2OMFz4Hr/NF5OzODlUDtKbKnRnwiTnfjz+IyvzL82V4RUXl2mC0eKy7FcUBAbErohJ8MSnLqnau7uP8H0jmYkJztCku967mBUN5oACAOEAcIAYeB1YGDDE7w7A7sUgjcaO4L3EyOUEzN40eIJgYA4cHc4xnXcgAQvMcuLa/cVgvfJh8shyJUGjNcxYFCZhDvCAGGAMLAxMLDBCZ4dU8VVuFq1HaeLCmNECjJw0lOLj6rrsJyTFUKZDlzv41rG1thoGTcgwUvY6sUV1Sx78dBACHLdGB2MBkJqJ8IAYYAwQBh4HRjY8ATvdQgt3DIvc4I30ATHBiRf4X7vat6XCd5Hx0eI4BFOCAOEAcIAYYAwsAYMxJTgbU5x4rP2bjxp3xEwQGGgaDuetPfgaUcbZtPSdA3M8rjV3I7PmlqlXztuecqC+re5HC7cbh1UTLqqmfXl6DR+6OnER6UlcNqsVxl1OZV41NwmldeKz1racd6Zq6sbJza+72ztxpOWDjxq2SHKm5xQ7jV34BH7tfXg4bYKP6TPgT3lzfhhVDEH/zSmXL/vbMVSZoZlubz8bbnVeNrZgyftTWjYnIrG3Eo89Y6JeoxN4ElTHRqSzT6LRV37cfrCFbxz+iOcPn8Te6ZbApbFy1zrlQieNfbWKldKT3IlDBAGCANvJgZiSvASthSB+6+9HGr1Q6gc0PzqJkawaCB4RdmNgqhwksauQXzwelzt1ul4HpMTprJ4p5jfNmGZ9q8t1kEWfuvIy9JdO81mW1s27ntVvz3duwrJY/5/n5T6j+Cdr+MkdgSfNUoE05DXvWIzQe079kAXyXolRtq0hNRuzURLGrw3czDi/Y2u1P6EAcIAYWDtGIgpwWMN9ofOKYUsTe7C8ax0k3YoOa1cI1MvumpNWrnNWwpwta4RV6vrcbW6SYtofTngjzAyIWXjizFBmL5vb8HhwmLM5ZfitKcJ3+3chZeTu/wSvNKsMlFmfZdWv++brAleQnIOTnvq8FFlDc5XNGnvv5wYwhVPDc77nrHndThf4jR94zvNEqGcnMCtyiosOytwp2tS5DW5C4czzPJjMp6u6hfvcVI31I9bVcx3sAnP+5U2sCJ4XQc/1RG8WJGtZPeCVm6syqQBZO0DCMmQZEgYIAwQBtYnBmJO8Nz5QgP3fW2xieDJ5OSTIrOGyQgkOYDBn4l1k7S1yY+tVaYyWZ7dWbl+NIqGhrMVaKTSH8Ez1vFyjxpkEYIPnk7LOTGCw5l6EvdOw4hG3vyVL8uQafu+r/eYzMD9+W4MbzVvIPw6CB7b4Hjl0tcawTuz0GnZRka50v8GbK7BV4NkSbIkDBAGCAPxhYGYE7xNtjx8p+4jZ9q7zpaFL0a4ps0L7xYzAdEDUB+h6pfgJYm9635sDWVrkwCNLOXlj2Ctqo7q5NxTJEzJ39dbaAiTnZKZ23prGJngvfA2mMidvn76b21b1mvwomWiTa9dxAdX7uDsh3c0YsdOsLh94zyKt5h9AwPVmZ7p25DkQfIgDBAGCAOEgdgTvEQ7jjarWqjJXXgvRwQMZKRXa9qpvzaHQsTCJ3hMo/VjbztOFBai1p5uMo8G7RRRJnjCf24G1hpM6ZsnRjCzVR+EwuovE7x7pXlhasMcSMkqwJbUbGzNKkBycnQ6SW7nWR2xU8jdBZRvJXIXFIOkqQsT09HBMLUTyZUwQBhYzxh4LQTPlbVNI3Lf15dpg7VMbj4uCH+POb8avEQ79tTywAMRqMDIns+E2dmKWYeZKFk2XJQJniBnI1h2WJ3kEB7BuxiSHGPfSZPz2jE+swfj04dw5uOvJLL3CC0FIbYFER2t71hileRD8iEMEAYIA28sBl4LwWNBD19zM+1oB2o3M62NfK/Lt71H8ElLIjt+o3IFeRlx1eKHnao/HA8+4NfJCcugD1MdYkbwhiy1c5sSHdB8+oJq8IYwk7oRyFI+FiUfPNroWGDWhD8arN/YwZqwQP2CMEAYCAcDr4ng6TVq53Iz8FaGMM/KWr3AHxMeweN5JSU50JhRiDO1IiKWafKsonZ5Gu26FoI30BQ0kENo8GbwcWGOxWQmfbPFNjKsniIPaxOu9i3riCykVi5qWjyKoqVBbD1ilOpEuCQMEAY2EgZeG8FLdlQJM+22cuypVk2oBr+8wMKUyE4IGjyrvBJSSrWoWFPQhxUBCpvgpeFCJ9caejEcJHBktMKryeUrj8tM8OQglVFrTedaCN626XO4eecRrt54hGt3nuDknh3mOljJZY33aB88Gjit+ifdI1wQBggDhIHVYeC1EbxNiRm4P8wjZiW/uCHryFDrBpYIXkDtWBpKUvyZKiXT8FAIZ8UmSdukSP6D1vVTGkUjXJMTfveu4+mTHR6N4L20IHDyhs0vurZZBolo5fkx4fKyrK7GjY5jpU2jkyxW14Gt2pDukSwJA4QBwgBh4DUSPDtkbRUPeHhWUxRAY5SGxvRcdKu/xrRCfDHISaIXsxniWbcjUyM/rqx6LZjiRIGIni3dWohrnaMaobLc9iTJoZXXnZ6DxuwKbZuSF70N6N6aoz1v2GoVFGHHaHmPVsbLIS9OO4vRn5mLkewC9DsyDd8rn+Qxgxfedgynsb3w0jBV0izymfBnwl2bifZ17IPHBiKZ4F08TGfR0uBMgzNhgDBAGCAMrAUDr5XgJaS6dYTlZRANFydqnAwGvEpHj7myFYIX7H2rkyGm68TGwgHTs2CN0XZrHztpo2VTHhZHrGWkS1o8HgRiuL7orPW7v900N3f78dELBJiuQ/qjymKlwUvM8uLa/W98fng3399tIL3UyQO1GT0jfBAGCAOEAcKAEQOvleCxiFDtJAoW5BBkU95QiI8gUAMYtysbJW9OceJR95CeTEqEie2Lt5Qp9uOThTRQ2uk3nShLMTEHqj+rw+32Qfw0xv3xeBrrwIvkVCee9nPtpGTCnpjBw8oyTTsp15X/LTSG/iJx/XeExvlrWrAD25sudtq07Th9TyF4d+4/wVi7B4lr9Ovj8qCr//Ym2ZBsCAOEAcJAfGLgNRO8WAs1DSX2HPRnF2Ay14XJnAI0pFqbVdcL4EsdOZjMd6n1zUNJcvxuBDxy+qmOXDKCeefBXdTS5sek0SSyTxggDBAGCANhYeANI3ixJpRUXjhEOSG1GccuyZsefwOmzWvODnZkHck5HDnTu4QXwgBhgDAQ/xgggkcrgrBWBLEYFGyp+ch3N6CipgWVlWVkqiWMrjuMxqIfUBnxPwFTG1MbRxMDRPBo8qTJkzBAGCAMEAYIA4SBOMMAEbw4a9BorgYob1ptEgYIA4QBwgBhYGNggAgeETxatREGCAOEAcIAYYAwEGcYIIIXZw1KK6uNsbKidqJ2IgwQBggDhIFoYoAIHhE8WrURBggDhAHCAGGAMBBnGCCCF2cNGs3VAOVNq03CAGGAMEAYIAxsDAwQwSOCR6s2wgBhgDBAGCAMEAbiDAMxI3jZ+aVgP2L+G4P5UztROxEGCAOEAcIAYWDjYoAIXpwxduqMG7czUttR2xEGCAOEAcJApDBABI8IHmlVCQOEAcIAYYAwQBiIMwwQwYuzBo0U86d8aBVJGCAMEAYIA4SBjYsBInhE8GjVRhggDBAGCAOEAcJAnGGACF6cNSittjbuaova7s1sO1tqPorcDXC7a5GTl0OTLI3JhAHCQEQwQASPgBQRIBE5WefkxFaNt69/jTsPvsHVMzPU5ol2pFYu+uTBZDLZXBBzmSQ7vThx6aFWB1aPO/fOw0FjUszbgsavdT5+UZ9YVZ944wheYlYXsluPorD3FAo6jyKnYQpJmUWrEl6sBoWEtDl0XPwX+i69gsc7sO7qmphahER7xprrZa+75PvGvku/IKc0a835xap9olXO1sYHGPv0d4ze/G/tN3bndzQvHApbNo3z1zQiMdnsCjt9tL4xEvkOlLbgx4Fh/LCjE8MpW0P/Nls1Tt37xieX23diTaxKtLJ9xI6Ruwff4PaNd2C30WQbCVxQHoSjNx0Dbw7BS/Zi2/F/YOrT3y1/4zd/RWlnj9/JIWFLF1w7P0Tx0FnYczP9vhcNQCVmH8GIWu++w8djWnaw73Hv+6cmT09H3ZrqltH1WMqrMYS8XMjrOYuinR8ip7YhhPc31oCX0flHTR4ybnvCxcCWdnykEohblw9j8zpfDddlunCkuBxHCgtD0madaZvEy4kZvJwYwczWtLBwUDJwQSO+y31lYaUN1jcCPU9yTeGT+wqpu/PZNbRWlSBxnbdLoO+hZxtrbKH2ejPa640geAlblzDgh9jJE2cg8iRPtpU9TTGbCFhHTMx6x6fJYXUdOH46pmUHGwjKDsgELxRS5r9jhStjRnyZhms9yiWY3EJ5/lamF4U9R1HQcQCuoa80shcuwdu265JGYvZ0F68r/Jjl4MD1/mmVsO1Aw+bUIPXNwP3BXcr7Q+0osQV734A/WxMuvAbtWW7Xe1qbnNi1tn5jlqHhG4k4BsEQyYswFJ8YeCMIXu2p/0ebHKc+/RXl3gM+s2xSZj0yG0+hXtXsBSJP6W3hapciBximPfQsPETN3ofIraldV4NVJAmezbni+8bqhU9gzwg+USekHcGwSvDCJT0bbUBLSFle5beW4PhtVVN0/xqKwyVAsSYHSQX4bpxp42bwond7cA1eshN/Vt//sbVqVX2j79gDjWyNVmevKo9w8ZTTdkIrc3f7+nYRCffb6P3Ijf0kS5LlWjAQ9wQvYcucpL37FemZ1sQh2bWEzAr/5Cm1SRC88lY6co2DLpIEj+cZ8jVpSSM93Svh+6WFXE6sSY5Feasls1tr92lE4srxkZiQl7XINcFermrvZvB9bXDik5FZo73/pEr4FiYl2sF+odQltVKS0amJkNKEkm+gd2SCt6c7dqbhQHWiZ6HhheREctooGIh7gif7r/WfOh/G4J2BssXv0XXmb2g99RP6b/5/mhZw6NIvvnvsPvt1nf8JOR5r01fWjs/Rff5v6Drz1DfhZPd+ir6r/63lNXnnf9Bx/DMk2/XEM7PzU7Sd+gHNJ8Sv5dRPKOnw7yeY2fk5utSyUrbWo2Lfj2BO+dwMPXb1F+QEILFbay+g76r4Tla35r3nkFZ5Cs2nfkLbqafIMPgfro3gZaB07lu0SN/Ivrft1DNkOK2DLPg3Mrn3XBRynLj5q65NOs/8DZU7p/20twsl099ip9SmPjPvxT8jy087+jq0rQ8Np17Cl/fgIDYle1F7+KVOxsNXf0FprxQIY6tCdueHaDzxEkOG8kauvsK2hXOwJQcfMFdL8NqWP9UI3mCZtUx1g5UtG9dae/CkvQcXXU6MuGrxw05uMp3By6EhnHfmW8s1yYGpQg9uNffo00zM4Me+Xpx3FVqky8AHDV140t6BR80deNo9phG2l2NDvnvs/qOWbjxpa0D3Fn0QxUBpp/L+5C5cLCjESmUrfhpTNIBMC/h9Zysm0oL55bmElvPehyiMQZADEbzgmNfhMkSyTmlIroQBgYE3iuCNX/k6DEfm7egNwW+Pk6dqP355niPcR+1XNAcI8jD69VUd/381YsbLYFdvAB88UdbvmJSInZye/V1gQWKy+7+1LM+Y1ljPtRG87ei5LQioXJaxHN5p/clFTsv/HnzH7K/I/DF7DESLv8+vVTsHLYiIHfJioe/MD+j3I+PJ299pOJP9Cnn+xuvk7V9gT9UTfP69/Lo6gpeFfR8rW6PcefAI9dl6csTzlq/JaR5BsHyBC4IsKYEMyv8Py8xkbbp6OGja7+sr9LJNdgZNo5U7OYFFA1k72jgSQvodJmIofzP7e+jklyoRfoT2gmCEUAygxnxC/T9LMtGSBm/t8gxV7vQeyfpNwkDcE7yENOG7xCbWvjOPQo6CzfXeRM3iQ3jm7qH1vNBs9Z566rtXvfgQ7Fez7x4cBs0WB5FMgPjEPnHzP1G3cA81+76FV9WYGQlNeutlbF95gtq9T7Dt8EuNfAXyNTOX9Stqpi+iaOhzzZTJ6rDzzFXdJJuYd0YLVmDPhy8+R0HLAZQvvtDK5XX3dOgdwuUyjc+4DPxfM1A0+ZX2nS1n/qWV5y8vu+cdn59e1dw91B4Q9Ru59JOuTVi7FLYYtZ2d6NKRu19RM3sReZ2n0PiuKJt9a57FNi0yyeLyYNfeU8/gmXuI5lP/wMSnv8Mfwes58xwVkxd92/OUzX6lRUazPEbO69vEKDO57EAY0KXb0i4CCO6cCe7PlmjH9oIWPWGanMDD2irMFZThi341mIERv9EuQwCEA9f7VE3fUD8+27YNR1zFvnS324ekPEcwkyoRKFsWTnpq8VFlDU6XN4n3xoZwxVOD8546fFSp/spLDd/gwJ2BXXgpaexeeLtwutiNM7VdIq+JGXxSlKvDvE5OiXZ0HRSazlgQruopOfCFTLTG9qD/iYgRBtaOgbgneAwkVSfkIAtFY8TMY82HH8LVuxc2e3BBrtYHTyZAbCLvWjmPtwzmhpzeD5HmhyCy+ofqYK8v6z91/oYsEpdvtTJ552dskcxQ8lYngwbyZ9TsGYmXXKbxWbgdVJZxKHklpITng5cz9FeNQI5eeo4tBtNo3tC/ac93nr5kIgQyyVII3n8ix603zSdmzaHIu1dLm5i7hPKpdy3NsKz+Irr7P7E1gBZPLjtUgpeY5cU1dSuO2yESvPm6QYkYDWExXSJjidn4YoSTPPOWJI3ZJZjNtN5CaE9tv5bvxQJ/pzVk42seYOHdHtyHLkkEWDAt35Pack3uDHuj5T1amcEInrxPYLQJXrJzp7ZtDdv7brQu9pssh9s36f3gcwTJiGS03jDwRhC8TYmdaDov/LWUyVlvGqybOqibHIwNtdooWpkAjV76wkTujOVY/R/q5C6X1TS7YPoeEU0sBZvYqtCu+d39DzJzDWY8WxU6tee/w0i85DKNz6y+JdC9cGUcqlx8Zeq+83fkl8rEhQ9MLulbfzERQLk8hqGShhKTjAN9n9UzIT+pTQwLAJZOLjtUgpew1YsrfP+7K2+HsIGupIWbmMG90jzT901XqURtchfOBViUGL/Vnd+oka2PC60JXvJWt/bO9/XBtVoZGSLA4uVAk0G7Z0dRzjYtv2AEL6v1qOarGA2C17DrHC5d/gTnLutPrrh0al4z5xtlRv/zfklXwgJhYDUYeEMIngKO7M6b6Dj/L58ZzYrk9Z/6yDShcaGGSz54OjGB/44qb6/f/Pn7VtdQJ3e5LKtNh8VzoS2StUgTN619FEW6jUzw+tAr+fuxoIzBq+afCEoxEy65HSbv/AU2CyJm1X6bEjN8gRYtZ1ighXIqhVK2vOgwlyfnJZcdNYJny9O2KHk52oFaiz3oBMGbwPGsdAOeHRgp9OCzth34YWAcPw2N4wd2wsSA7Jtn1vzx73TnChJ4rziwSZWl6Slq1wjcwzKzFmy+WtVGTk5g2eEw1FU/YUSb4Hk1Hz91y5oH3+DCqf0hkG59Pbms6EpyIQwQBoJh4I0ieEIYLqS451E88TkGDY7yRTXWWplIELziVWp8Qp3cBRH7H2Q5DZq4RDvEc0Em5MABf0EoIt3GJXjyd1qRe/O9/9GZuBl25HYIVRubmLUMr87vT685FuWKNhE4FQOYXHaoBC9cE20oGrQD27kJV0/Uegpqtf3otKAIyyCNHfAaImH598qE7HCGkTwKWfD3DzSoARaWBM6Baz08+tfrt0yeV7RNtPmN4xif2YOJ3e/gY/V4NOVostMmzSOvE13NbU4yIZkQBkLHwBtK8CQB2arQKJlv/U2eayd4v8IRwMcqEGhDndwFEbMmC1bPZeITzxo8+TvZZtfFvcp5xOxMYqufs+eAyXQmt0No++5lYPsZEZwz9en/oO3wIzjVMgs6T6HjEn9u3WYcF3LZ/jDK39WuYQZZyBo0a5NmBu4Pcx+8Ie1YMFeWMIUycvd9ZzvOl1Vi2VWMpYJizBULzdwLb4MfQuPA5TAI2aZE6cQLK22jTfbnM5tvNRmpWthYBlkkpHZrwS+M5NFGx9J4HLJWnNIYMUz/EyaMGCCCl2jH5rIbmtnW3+QpE7zyltDPXLUiVcZGCPZ/qJN7sLKsnrNtQwbV7WA2GsGTSVswwiWbopmm0hjoEqwN2PNQ24HnJUdw+9sKRQS4BCZ44XwrL39TYnjbpExrJk1r/7qEVOEjJ4ia3m/vk1KzqVT2lTNtk8In9DAJ2aakAk1j+KJrmykgIyGlFD+pGsTvmwxbs/Aypau2Tcr9JzHZJmXbrmtR9fkTGKBJj2RBGHhTMUAEz0fwLgUlePa6B1qEZYtFAIM/AFmRKn/v+rsfKrEIVpblc13wgQXJ0D1fZyZaKQp19OL9wKRNFyxi8Z3SZL/WduDpWbvxyGVrArpdCuoIXCd2Iku/SsRDNQ+zeoS+0XGapEEbsfRZ0/zvJmbwVYV6aoR0VBg7Wszq9IgLndxUOgN/vnUJW4rCImQZ6WK/vu/r9JHM7LvdufWaf55VsAhvI+UqbXT82ccx2eg42j5/+u+jCZ7kQRh4EzHwBhA8F6oPfw+XaU80AXgRXfo7Whf2WTpjyyRrMEAwhhFElqQqBDIh5yNrgqyJgvItwcry97ziAN+M+XfsOK4/7UPWXDJ/MWOkrMjzd6z1CLc06bzfkLSkEvlkW78EC3oI9J2yvJNdk7DnmI/JkjHgT9Mr5yMTPCvMZPeLbVmY2djfMXq+PHUE9T+RYtjiRS5X/jvko8okDRozs35Vod/ImGnvuEbs5cQQxu2qj6e0VcmLLvNRfz1F0t52k1aBGQp2XdmCkH3lEUeOyd8i/93kEvv1WZmTNTI6uQvvZWdY9mmeHx1VJsZCLhO6kkwIAxsfA/FP8GxV2ua2I5d+gWfiXaS5u7E5tx6ZjX9Au3TcFSMwBR7rw8aZiY+bMtl7rSu3kFk7j8zGPchqnLfc54x1EEGAgkzgEulLSK2HwzOp/Cr6kdl6U9uIePTiF0h1erXndqfQXgQry99zm+uCpsFk39Z36hHSK/p9mxCzjXvZPf4LRPC8Z56jekHZnJlt0Gz8VRm2oknKFd/B2qR4WuxT17rwNuxuVQaeSSSlWk3SLrRqPmy/Y+f5p8htnEd6LWuTPUgxkDSZcLHvYe9neRqQmJyBzbldaqSrsuHxgMWJIeETPP0m242z78GWmgHWvqVz4lsV2QbHh7yf49jVn1HUo/gRurzHTEfdicG5RBzDdf8aim3WJ2bIJk0lSGIE552FcG5xoD+/SjOHsmfyma+bJA3ey8ld+MTtgsNmh9Oegw8aBzQtmpKn/2AHeUuTl0M7cKKwCP2ZuRjJLkB/hnlvvb3bAkXIpuGSpjUcwHCKOeBIyMeOvmMPNHNprPakk48qW+gWfViuF/298SdYakNqw9eJgfgneIn+j8PipIVfu1beDrjSl48C42n41XgSBW9Uf6SKP7e6eo6YN2bm5Riv8qkJwcoK9Lxw0kg4BKmTywxE8OT3rP6W67pJIt5W7xrvDRw/btk2gY4CsyJpGV2PNbJqLEP+3yqt7AcXigaPta3wsbOWpygzOMFLzBObVYt0Sr7+8MfqsG2XfGqCNZkozREaNIWMWR9RxvzdHNJiZFNiGmQTbKC0bK86p7TBtg77kk+dOY9OlOiIqeT3ZzpRw45NsjYyUJnsO2xNWsDD7RunY7ZtSW7XexqpPLFLfzqMTi46WdNkSbIhDBAGQsfAG0Dw7Mjr/xw9l371O7Gzo8PcPVOWBEIPJn5I/X9jwrC9SqmfwIuSxX+o5QafwHlZrjlxBJdxIjf+L/tjiXTWZbn38bqIffB4meya2fkphgzf1bpyBRV7eX1+NW2EXGxxnJmxjvz/sUvyPnsuNErHv/F3/F39mc6Vet9E76VfTW3SsfeQZZvanCsmza1cbt/5H5Bb22BKKwekdK1Y5y3LU/nbhXJNfnqS17ryEco0+Vm3mTG/xLxltJ3XH6vG6u4Pf770W9q1kxNuXT6MzRakQZg0J/BRaRW+1k6sEETvSV2FgdypA40tG9faRg3auhm8HOzF4YIyLS+/ARZqfVyOYjzqHsLLUeGzx8jei85ag2+fOFGD+f3pCacdLADjO/VEjGABFiUDFzSitTJYZWpzo/wj9X+ye0Er9/ady6hzWm/+HKnyKJ/QJ0WSFckqXjDwRhA8rbGSXT6zX1bDCnJbDiC3dQ9SC6tjNqhr9bCYYNfTs8TUIrAfr1MgzR9/ZyNemYk4m+Gg5YDPzJ7qrA8cqLGGdmNm2SxeVsNUSMfjRVKmjfOfaIRiwnQ0lqyFG8Cwb5+6NDSm52My14XhrDw4k6xNu3IdmVmWvT+ZU4DurVYm9XU2cdiq8c5tZePh23fOI3MN7SvLIaS/bdU4Le2Hx7ZLYb9bV96JmRYxpHrGUiZUljbmUtuss7Fig2LzzSJ4G7SRYtLZk13W5MY2pzsvNVTn/pjUmdoz9AlBIjNXz+w2pBMasZcDrf7NqHEm70NDc5AAACAASURBVMwmcTzZbItY0MQKu47KKVy8I0628JG8e+fNGsk4k3us5EvlEEl60zFABI8GT99kr2jpfkX93k+QXdOPpIwqZDRe0J3CECiC903vSBv5++UtSv7aEnzPuI38reux7ilZRShy16KipgVutz56eT3Wl+pExIkwsDEwQASPCJ6P4AUKIGE+XhM3/owtIW7NQZ1/Y3R+3k7yFiUPy4hgcLnQdWPhmNqL2oswoMcAETwieD6Cl73jc1+gghxswP9u3HvOdGwXdSR9R9rI8tD2lJu0PsFiI38b1T1+cEptSW1JGAgPA0TwiOAZ/LEykJha5dsnkO0VuJojvagThtcJSV4kL8IAYYAwQBiINAaI4BHBMxA86mSR7mSUH2GKMEAYIAwQBmKNASJ4RPCI4BEGCAOEAcIAYYAwEGcYIIIXZw0a6xUClUerUsIAYYAwQBggDKw/DBDBI4JHqzbCAGGAMEAYIAwQBuIMA3FP8LLzS8F+tLpYf6sLahNqE8IAYYAwQBggDEQHA0Tw4oyxU0eJTkchuZJcCQOEAcIAYWAjYYAIHhE80m4SBggDhAHCAGGAMBBnGCCCF2cNupFWF1RXWg0TBggDhAHCAGEgOhgggkcEj1ZthAHCAGGAMEAYIAzEGQaI4MVZg77pK6GUrFIUVzb4Dm9PT3XQgBUjfCck5yPfXYvcQjcysrJJ7jGS+5ve3+n7o6P5IbnGh1yJ4NFAHBeTcXnnfly88w3uPBC/G6dG4+LbNsJgm9v1nk72d+4/waHdXjrDmMYX6oOEAcLAa8IAEbzXJPiNMGlvlDom5o3pyYVK8j44NBC3A0tidiH+7cs5/PJ4Hp8fKH/t35nTdsKyDXa3F732um0UHEernhnpHvywcxg/7BzCuVzSrkZLzpRvfGi94qkdieARwYvQBFyI3qK3sVD2LoZz6iKUZ2gDRkn/WY1cXPvwGEqyc2Ja/usYEJKcRfg/z1bw2/MV/P1y/br5XltqEUYO3dLa48rxkXVTt9fRTtEoMz0lD0eKy3GkqAS1m1ODyrenqB0vJ2Z8v0+KcoO+H406U56hjWUkJ5JTJDFABI8IXkQG/AT7Pny5+A88XXyFx51HIpJnqEDvO/ZAIxSDZW+G311itiB4L9YRwWNtlpDajWv3FVP5R0TwIt4XputGNMJ2PCs9aP4HtvP3R7CYlhb0/VD7Hb1HZIQwsL4xQASPCF5kBvzkfXiwoBC8e20rkckzxLbpOvipSvAeoD57a0zLfl0D3LomeFu9uKKayW/fOA27bX0Pgq+rDVdXbhou90yrBM+L4S3B8O7A9X71/dEONISg8VtdvaiNSW6EgfWGASJ4IZKI9dZw664+thlB8Jr3xJRkCYL3KG4JXoLdjs0pYgDdMATvzhkieBEdY7Lx9bhibn3hbUBSsLyTCvBn/n7XNl2/DJo2WN70XCfPdTcmU/u88e1DBC8GnSDBPoFj7c/xxZyi4WJmTPb7zPsYK0UjsFnVwebBVO2XeKCm4Wk/8z7ARKbLArjpGK39Ejd2fIfLTSeRa5/A6c4/+8oR5d1F+xb/PjsJKRM42mKu5xfj3+HctvdQbVj9VxZexw3vd/i46xvc3Pk3Udaun3332H32Y3V6tzx6Ea3RJ3iZuHF5J/5ydxR39pahoqMcf3ow6/N/Yz5wvz1fxg8XGuAMoKlydpTijzzNt/uVtN/uxpNTdUi3an/1XlJhHj6/NaUr6293ujHcXIoXqg+ePxNtYnY2Pr64E//lq6Pir8fq+tPVDuzIjZ6pLkHW4MUdwUvD0bouPGnvwb2qMvRku/F0x5hmMn05OYGHlWV+iFcaerJLcHV7O34YGBdpmH/c0BBuecosMTTlbvaV96i5A4/aB0W6yV14wu6pv6cdHTiclaEbG5IdHu39JzXlGCiowQ87uQZwBi8H+/Bevv/Ai6Ku/Th94QreOf0RTp+/iT3TLbr8idSIRRfJgmSx3jBABC/A5BqJxqotvi2Ij0rsOOFSrr9gPM1gZkkawkdjejKoT/MKZ929+oHW5sEfJgOn8eWx8Ce0J5tJXlLmmSD1fIULxXpn/rHWvwdNw+v9uCt6fnnRJngsoEFPkjhZ0l//ea/TcmIf298lETR9GkYQf308gKatBgwk2pHRWKYFUihE0pyW3bcieBU9tUHSzuFES5YeQxHqC4lZXs0HL+5MtDahQeOBC1bXH1urTLLNyNymkS2rNOzeC28TSmxy/3TgwdiuoOl4fvcMQRRNhS3B007uwnvZemLIxz7Zv5VtQURBM0RiODbouv6xQAQvQpOaFdjz827pCNCTie9wpOwQhp1v4+j2L1WTppHgpWO5RyZOv+BczVnMlP4B7w/K919hd7qkhWEEz0gKd/0JR0oPYV/d17p6XK/aYZh80rEklcnr2Z+/HwuVNzTt3IVSPcHLyziIE9tv4ETNxzjR9Fwr48noNzhS/TFO1N3QfrsL2g1lRq5zzJ17qvrgPUJzFHzwZHMoJ1r/+NSLU/PVuHtdr117r1WvDclorNaRu3982o9391TjzEk96fvnTaNmJBPPv1kWab+exIXdHhw91G4im0aCl+x269759fE4Pt5Tif3ztfi3h3tFns9G0JQkk4lItYkLx2+r+xHe+xCZEe5jCVuG0PvgGUYfhv4bvPYhEiJQj4SUUvykRqRyUvV9ayOWC4pxqWlAkKnJXTieqQ+AGK3wKs/HRvCkqQmni92Yyy/F+9u7RbqJGXxcqI8CnyquwkeVdThfVofvVHPry8ldeFi7DefL63zP2POrVVUmH7u92ySNH6v32BCulFfgSGm9Zrpl3/F9U4Vl/xSLJwqasRrj6V6kxgzKJxpYIoIXgUHfsmEMhOte23vYajTh2VpxrO0OelKE9iYh9ZgWjfp08WfszpS1LOnY3/FSI1L3WiWtmKG8JyN3deYeV4Egm1/tOKc3C8tp575CtcWk78qYRLXdepXv+/6k1+ODV9x7VIugvfPgFtwBTNCW7RRC+xsJ3o/nt+smw8PnxzXS9Kej+j3pTl6e0569vNqs0/BldVRKRGw39nuEfKuGG7R0v329Ez3JAiNbG8uldGYN3ulroswXlxtNJuBzl6e1vI31Xa2M9OmysO/jr7V2ObHg1clL/274A3ti9jwGwiB3PiL44AreCqGtg9XNlV2vI2NXDBqzd5pHtefGLUnStxZguaBAhwFenjtX5PusptivvM60Tar5D2BYwgTPR3914HqfMMf+2FWv21ZlS2aNVlcieOHjUC9rSk/yWH8YIIIXgUHfCtiO7MsaEXs69xUqLEiTVbq2imdaunvN5mjUBPtBQQCnPxckTiZpi69wOFevBdiU2IVLs6oJV07Hvl9OG0ZddfWPWRRtFmZOXsf7H97EhRvi1ApmPjowatSCRabD6QjesykMOgTZYjJIqRGE6+9XGqTJOQc/fsu1cHOYzzdv4XJSIlv3F4Rv5bJEGr/cZ94s+MhFQdJkDV5itlOYZp9NWGroEuwu7Z1/fd5lSTh0bbuKPpLTtB+fqFulsLa5fecRzn54B5cun0P51jVqDW0euPe+j5ojH6Bq5f2gv+ojH6BiYTYiGrzpqn6NFP21xaz1cmUJM+yTKtGeweSZsKVI0wx+v80tYUjGcDa+GFHNtQOtou/7a5+kAqHxmxjCuF2P203JTk2L54/gtS3zCHWlr5GJVm4P+jsYrun568UIETx/g+Ma78vm2Vvbp/0M2ObGH236USN4Z4uqzelkMrb4M4a475a/+/w7pOdPRj/RaxOlZz6fuV1/wXuVh9GcVqt/j+dldY0ZwXPhxD09sWMEYnm6wywrq3qu4p6O4H09YJpY5ef/fka0mbwZ8W8W6djgVzXcomnTBFFLw637e9T7u7GvRGj2+IBpnU5PNpk5+dWjGd9pF+zEC/nHTc3M/y9QcAgvbzXXgtb9mi8eayP+a88xEI1VtMlq6rP2NGm40KlqxCYncDhDb4Jl+csE72FZoQmTjVkluNbQjR8GhvHT0Ljv6vt7TImMZeZSo+aP11smgVbkkr/Hr8lp5RoZfdFWaapLUY4go/dK80zPlXwcSMkqwJbUbGzNKkBysnnM4uXRlWRDGFhfGCCCF6XJxeX6QiNq77rEpB+sA+ys/6ua7mdMOyQfO15PHRnzQ/CmLTSGcrppvfmW1amy6DOtvjwwgl+ZT96Ks9PPBKACOmYEz4H6/iWMT+/BzKHLOi3RR8cnAteRyzDMq0zg/n6zyVSG/FyQNDvk+3rNnhgErImaAw+/UCNtny/hkCfTVKZ1OjtqJts0wshJXMDrt4NRIXiVwxc0QseI3YdnTmJsZA/Gp0fhCFP+wfpM7J7LGrQmS7ltL2jSSJVM1NLTivG0P4RgCRbwkGNub/aNMiGzIo9GOch1uVdsPsFC8wmc3IVzudZlGvOk/0XfJVmQLNY7BojgRWmykU2t71pp4vyUKxM8TTsnv2vz4NQwj5a1JnhPJu4ix+TvJwVhTFs8Z9qHnFO4OSJtd2KI+r1cGWCrk5gRPP2gktl4QCISD1DPNZqyzNb4t0zUZALHO7e/57r7H+r99njaYq/wtRN5ywRvBWfrZT9M5fv9ETz5/r8eDeDQdAUOz3v8/KpxcCR0MyKvc/BrPg5el3zwdrWaCGrwPPTtrH8/Hzl9e1E4GOpvBfndg2uug6xB82fS3KudGiEFSyQJU6gvMGOwD1c8VTjicmOpoBhz+eWaqfTlxIDZlKriN1xCNl+nBlhYahuZNpL781mYb9fYZ/TtFagt6RnJijAQLQwQwYvSQJaeL4IaLld0hTy5CIL3CpaaP1kTt/iz2GJFvm9F4II9l+VgK4QnfRKzlbe1ffh82ryFP6HZjy8hO6pMO8kiphsdOzB3gZOJ6EfRChImBiUdkZOODZNNtL8+7rPU+JQMNWsaN3GmrAMPH+5T789hOs+syZXTyXVy9mzX8nvxfm3IuIvoAJPcjHPc/y4KUbSvK8hCNr9a+tfZsoSP3MQAhtXgqSmP8Nv7vslj9nm0ic2IX/r1rQuXkMkBFjvQbTzxQq7rUAj+fPL4QH+/nn5Fcie5h4kBInhhCizUiVD2wTP5vAUos6+Om2hf4Xr1mBnQSTP4VD0S7OncH0XEazACF+y53zp14dKU0Bia9uzj6ZJm8Ilaryc7r4buu8fTr+HaqTmCR+ckC38EjmPB33NjwIMcCcvTzp4a1giZHNG6fF5sv3JrKN+Eg5kTQ1o6meDJdfn1Ua8lqeRlR+sa7X3wEtLG4A0zinb47tq3SdE0aBMzsDJ5yibUF12cXEtHhU144bWIfB0o7dTMuv596zJwfzCMAAtbnu7EC5NZXAqw8F+mHY7KRVy+8QiXrtzHpSsP8eGZ/di8hr4aLcxRvmLBSbIgWXAMEMGL1mBlG9IID9N+nS2x9mGrzJmBU9KKJWXJ0bcSgVPr2SpF2X7lvSi2OwlG4II8z7XXmEgEB4nYl0/SGBrlJuc/98eQo4Z5GWu5ir261hfB25SYhlsPuCZuBd8cLDPIOAc//pFH2S7jfI+IfO5a6NYI3D/vGvcQzMEPWjrjNil68+7ne0sMZYrBr7mjEO7UNUa0GnGQaIfuJIsonUWbkOqGLSv031tbzRHM4WJObFEygxednMBxeUr+ebq97PSatC7DJuPpaW7JPDsDv751EiF7YThyzOo7mHy0ffrqA0f7flXh30yf23VCcoFg0dBnNrAPJW8rulphhu7FHy6I4FlMUJECelel2PKEkbzr9SfhsTthYybQzAUca//JF9ig14rV4IKmMXuFJ6OfoyfNiU22Qgx6vtQFQuhMuDLBCtdEm7zPt/UKC6Y47uHRs+lIS+nGYqPYwPipRXCGkFWh5Bv4Co+8dzGeN4mO7Fn05s6iOtXpl2iIPFbXwQTBexCVs2hlrZisLeP1DvS8YbZdI2os2OHhkUrfvnR5NUV49iUPpFBOs5CjWRPsBdpRZCzdi8vNPjKW6s7Hk4cinfJMvwG17IfHnv9woRl95VnYnJIGT00elvc34t8fLvjq9eWCeQsW/l2rveoIXrwQAlsW7g/rgySeVJWhZIsDdekufCEFULzo3S6RIFmDN4NnjZWoTU7F5uQM7HG3aiSMkzG/wQ4SwXs5MYIrZW4MZ+WhP7vAdzVq6OR99ay0jaPlPVrZFwvMPp687XPaDAQvSoSdl0fX1Y2BJDeSmxUGiOBFkeCx/eUO9YqNiXlUqv5qPMnCDt0eeoZAB56WbVas2zg5TIKnJxPCf47nb3W9VBbYl9BV6D8S93GntClzhGUuH6c0WLR2TY2xo8i+dOESPKbFu3qHb3lifdTYb8+XcL7HHOXoDXLEGSNvVgSP1f/Q2REdseTvGq9RIXhbunBF3RblyqnoRDYb2yjq/+sIltjShBMzcd0Br8HfTTbBives8ggU7CBrAg1pJ3dh2aHHvRxgcTzLvJ3LO80TKsEbwkyq2ceTy9O54z2DBu+8RF5pUuVyoithYT1igAhehMmGVSN3um9rAQhG4vRZ101Lc2aS4yBujnPft1c6zd3lmhVhmtXqX4i3B5SjzPxF0fLoW3bKhS7KNqkLJzv/LDZQNpLKXX/BkWLD2bdaufqOXVl4ATdHfsLTOX3d7zXsiZoGr3r6Q20Sunb+ELJS9ZOdVZuEc49p0/iGxS8somGZr92LZyrZer/O4jvTcOzdAUvC9evjYSxs879FRd9Cs+7UCoWg7cbdI81amfLee/J3tQ3X4X8/5SZgA7n8dgk/XOnEzggT4oTkfPQtX9PaI142xpXPkX1SXYVrWgSqIFvftzeiWzqVRrRFGlZqujSNmSB5I7hS4saldvX0C78BFmofS8rGpaZe/DQmTqfw5TXaZQqiONo4opbnxbCBcG5KdOByj5rHQKvh7Ft9fx48+bnWlmy7m/f3Go851L8vvpnukywIA68bA0Tw/BCVyDdMOjyZMxhwLqK/YBE92T3I3Ry8A7Ajwnia/oJJODdH3mdKfGs6cu1tPrMqqyP7tWQYfY2C11nkF5t3k1xTukmIb6j7wcqABdmKTZ2sZGDLSsf4iBvzo2VYmC7HcJPwubN6n99LSHFgbKDUl25qhwvOMP3mqpoKfGlZuVMDLjSU+zfJ8TLDvea0yUfGiU2N9/YZ/Q5fn/zD/Sb5/YEycV7sx4UKIS9NzcFkrguTOXmoTQneL5lZdiTH5UvTn5FljqaN2VgUahuU4B1+prBPI3sLnigcBSjLmf4OtW3oPcJKcAwQwVt3g2rwRiNgm2VUM3Jat+kxI3k34sU8uAEwmtulN+Xduf8Eb+8ZQuIGqHso/UmYNEcws9W/STOUvDbKO2zhJB83d2bBOlBso3wP1dM8bpJM4lsmRPDiZAKijso6qgNpeaUocjegqrYFTgvfI5JTdAa0hNQiVNS0YFtTJ9xud9wQOwUvGbgzoAZYDLUHNGnGE75c/fJpJLdQbAuupYyn76dvic5YQXKNnVyJ4BHBW1dmTOr8sev8JOsQZS0FWLxoC/3YwY0u381ZNWho7fX9qi3O1d3o30f1DxH/NEdu2DmSCB6Bd8OClwZoGqBjgYHkrW78NKEEU1ieYEFjCI0hhAHCwDrEABG8ddgosZi0qAwiR4QBwgBhgDBAGIhfDBDBI4JHKy/CAGGAMEAYIAwQBuIMA0Tw4qxBaTUWv6sxaltqW8IAYYAwQBgIFQNE8Ijg0aqNMEAYIAwQBggDhIE4wwARvDhr0FCZPb1Hq0DCAGGAMEAYIAzELwaI4BHBo1UbYYAwQBggDBAGCANxhgEieHHWoLQai9/VGLUttS1hgDBAGCAMhIoBInhE8GjVRhggDBAGCAOEAcJAnGGACF6cNWiozJ7eo1UgYYAwQBggDBAG4hcDRPCI4NGqjTBAGCAMEAYIA4SBOMMAEbw4a9A3fTWWklWK4soGFLlrkZ7qoAFrA+A7La/U1165hcVITo7f1fSb3jfp+wnbhIHYYoAI3gaYAKlTBO8U5Z37cfHON7jzQPxunBolgrfu8Z2PE/dEm7H2u37lAhryM6nt1n3bBe+XNHaRjAgDrw8DRPBoEN3wE2li3piO2HGS98GhgQ39bcXe7fivZ/vxn18vab//+nYF35+p3dDfpR/w83Hw+tem9rt94x3Yba9vYNTXMR7r4cDVW1P45fE8frrSjCQaB+OoT8UjXumbVjMmEcGjgS1CA1sheovexkLZuxjOqYtQnqF16pL+sxpBuPbhMZRk58S0/NV0vFDS1Ey24bfnK6bfi8v1cfF9OhkkO5BXO4WPNA3sIzRnb42/71w3440DD7/Yr2Dr60GUJqWSrNdN24Q27un6D9Wd8GuBASJ4FkKhjhP+AJNg34cvF/+Bp4uv8LjzSEw7W9+xBxrBGyyLH7+7pMIc7J/3YN90OZaX2zWiF5cET+2HXQc/VduSCF50xyGZ4A3ASdrSmI5Z0W3b8Mdvqk98yowIHhG8yAxsyfvwYEEhePfaViKTZ4htI0jBA9THqdYnwV6I//NM0ea9GQTvG+zpLospjt6sSY4I3pvV3vFJYKgNA7crEbwQSQQBKTCQNtlmBMFr3hPTiVkQvEdxS/ASs4uI4FFfXVO/2pxil3ztiODRmB5kTKf+tqb+th7wRQQvBiBOsE/gWPtzfDGnaLiYGZP9PvM+xkrRCGxWdbB5MFX7JR6oaXjaz7wPMJHpsgBeOkZrv8SNHd/hctNJ5NoncLrzz75yRHl30b7Fv69NQsoEjraY6/nF+Hc4t+09VG/Wp60svI4b3u/wcdc3uLnzb6KsXT/77rH77Mfq9G559CJao0vwMnH3+jD+cmcUzz6olyZI/eDo7K7CX+6O+n6XZpxS+zgwMV2F+x8P4T+eqj5Pql/dq8dTeHR6O9yperlaDQzhELyOqXr85c4I/nJnBwbz0qS6KHXuW2j2Pf/zjS70pln5uaXhwNtdpvr+8vkgVrqi698o2jK+NHgdUw0KPm73YEdeJt491wcWMMN9LH99PI6T3XmmthJYcODYuz34DzUNT/u3T71YbskOmO7s+4NaOay8V4/GcLTPhU/v71N98PyZaNeCgxLMnfwY752/hJNnruDs+fdQvjU4zsX36vsX3Sd5EAbCxwARPCtyFcF7tcW3BfFRiR0nXMr1F4wbJ9mkIXw0pieD+jSvcNbdqx/UbR78YTJwGl8eC39Ce7J5oE3KPBOknq9woVjv3D/W+vegaXi9H3dFzy9PkIJoaPAy8fybZXWC3I3dxdY+ficvz2mT6P0ZQcD9BUrwid13/XYCYxZETB7QwiF4Ry5Oq3VZwr6SDD1OEu0I9DwxuxDPnvLvFQREru/nB9ymPOW6ruXvHYeEP+We7uKolbOWOq4mrZD5Cn6TiJ0s19+eL+N8T67pmxPsuXj2pX5xoE+3gs/3WrVJFp4ESefL52szwVsrDhKzduKT+/L2N+RTuRrcUJrwSQ3JTMiMCF4EyZwRWPl5t3QE6MnEdzhSdgjDzrdxdPuXqknTSPDSsdwjE6dfcK7mLGZK/4D3B+X7r7A7XdLOMIJnJIW7/oQjpYewr+5rXT2uV+0wTCLpWJLK5PXsz9+PhcobmnbuQqme4OVlHMSJ7TdwouZjnGh6rpXxZPQbHKn+GCfqbmi/3QXthjIFCI1yC/f/uXNPo+qYP3FcaEC+O2jlF5aDH79VSdGzCfQkC62YIHjL+PmOF1eObMO+6QqcOdmpmVzZJPvPe4HlEw7BWz4/HpCQ+n+eiac6LeNufPpOPRamK/Dg+pRGYBkRea81kNZo9W3r3PGeFjCzMlgeYczko/7iU4w+fIbhh898V/a3398D9uwh7JnmBVG4GBUy56R5Nx6eqMeJ5WY9Du6acfDRrSVJ9kt4+E4jju+pw5MHe6X7yzi+PUsnL3nR8dvzJdw9WoOF6Vr81UjgTQRv7ThI2OrFFS0imhG9aCy+Vo+zcNuP3idZb0QMEMGLFsEzEK57be9hqzFSzdaKY2130JMiCEFC6jEtGvXp4s/YnSkP2unY3/FSI1L3WiWtmKG8JyN3dZFxrgJBNr/acU5vFpbTzn2FaostE1wZk6i2m7VBGuiTXo8PXnHvUY0Q3HlwC+4AJmitrmG2ebLbjf9Szaq/PupFuiF91XCLNtEaAyCS3U5cfLva0gybYC8QxPD5LkwH0OLFguB17+/RvuNfjwZM5lvv/i7t+T/vturIxGpla0yX2SS152fXUJcfAHOGdjDmZfrf5kGXj7QFIHUmwvc1UiNO8HbpNMFJTuFf+du3I7oFgoy9357vxokWeTyw4+I1oTmWsZeY7ZSI45KBkOfotbQGghcJHDCCd82gwYvXACgTzsLFJb0flbGE2sUOInhR6lyO7MsaEXs69xUqLEiTFQDbKp5p6e41m6NRE+wHBQGc/lyQOJmkLb7C4Vyjr1QXLs2qJlw5Hft+OW0YddXVP2ZRtFmYOXkd7394ExduyCagb3BgtCVKA0UaPvtc9Vd6vhuHPPpTFk5Lk+xHfYH8qMyr4KVzQttmZU7lMo4+wZOc7p8v41yblYYuTeyd9mwKgw6xMOH1XPs1HwvnHkuk/RtcufwJzl2+j4PTHWtu3/zRM6g58gGqVt4P6Vd9+ARsETg+Tdbg/dupStN3CAzt1pnVJ455NVL94sPtpnSMHPLFx2/SfnYlQ81aur9faTClq50V2+78piN4kcFBQmq3SYNH+xqa+//a+wvlSTL0jwEieFEieLJ59tb2adMA6w+Uo00/agTvbFG1OZ1MxhZ/xtBWdZL1d59/n/T8yegnem2i9MznM7frL3iv8jCa02r17/G8rK4xI3gu09FW7OSK5QhM/v7ahN2XtRp/OuHR2oVp4V6o25f89u0Q6gyBKDzP4akqfHV7FP/xdNF3KgU7QeCXx4vaJMy0M/78+1ge0Sd4WZKv4Qp++3rWd8qBUk9WV+XHnfuD1Zd/9+quLsye0ZM81sY3zkxqcl9dvv4H1KlcgQAAIABJREFUwmjnJxM82UeTlyue6zW5su+eVbpNiTIhExiaOSHcCqzS6bSGOoIXORzYUrOxNSsbW1LzkZpqtWB4fe3B5U5XaoN4xgARPCuyEoF7LtcXGlF712VB1PyUsbP+r2q6nzHtkHzs+Ps6MuaH4E1baAzldNN68y0DeGXRZ1p9eWAEvzKfvBVnZ+DJNWYEz4H6/iWMT+/BzKHLOkfuj45PBK4jl+EqrjLB+vVxn6Y53T4lTpt48b75CLEkp9Ps82RxOsVvz+deK8HTTfiW9eO+Y/xqHcCx9sFyO07LZ9N+dhd7d+/F+MwetNWVRK19117vwBOlIHBLJl85VrZ4rtfgyfeNmmOlztYEb/m88Jn8cqHIJDcZz7IGb/3gILA8o91elD/JPx4wQARvFZN9KA0vm1rftdLE+SlXJniadk5+1+bBqWEeLWtN8J5M3EWOyd9PCsKYtnieaIcr5xRujkjbnRiifi9XBtjqJGYETz/wZDYekMx5D1DPNZqyzCL099U7e1SNm5ikhQP8Mt41OLkznIjnjBgt4YdLnTi+24PDvhMqKvDkIY+O1E/sRozJE7Lsa2V8j/0vJneh0ZHfk0kD1xrqJ/Y5XNhd6asjq6fV7/juCo3kynmv9e+sthOiPT/7GMUR9qlMa9oN5+heFA6G8ltB4eAMEiNqog29TZS25CZ8fwsAh859gLenaOMV/OVYxSoJ3uvDwVpxROn14yTJ482UBxG8CE3+xg6Uni+CGi5XdJkGWOP7/H9B8F7BUvMna+IWfxZbrMj3rQhcsOeyHGyF8KRPYrbytrYPn0+bt/AnNPvxJWRHlWknWcR0o2MH5i7ww+qjuxVDg+S39O8+P6oCzZFd1urxttQ5uvvZCmXpLJ/ArSd+npdMwF5c2BYQT4unhlUiavYXZPmJyV+UKQd8sG8xBpLwekT7um3XJY3gHRmsCvid4deldB0EWQiZy/W3ahP2XNxfwa3xQgt56DV43I9zWcOVdTodNiUT7XrBgSwb+vvNJCfU7mtvdyJ4MrGJ4N+yD57J5y1AOX113ET7Cterx8wDetIMPlWPBHs690cR8RqMwAV77rdOXbg0JTSGpj37eLqkGXyi1uvJzquh++7x9Gu4di6L80ujGakn+9v961EfZueFo7rsl8cHJp3WzZKU6Sdnrn3h6eUr2wuNb8ViFckrvytH9Zr9r/QBI6JMuS7+tEVrH3Dkelr9Hd198ErR+sm3/rdFMUXQsmjbSEfRhkfwxAJgBVYYkzHJInCb1AVYzaSI7P7ff6gxjSNZ3duE/6dE8PQ+fWvBQRZm3rmFK1fu49KV+7h64z521uab6mGFAboX/X5GMn4zZEwEbw3EImAnsQ1phIdpv86WWPuwVebMwClpxZKy5OhbicCp9WyVomy/8l4U250EI3BBnufazZMA/z6xL5+kMTTKTc5/7o8hRw3zMtZyje5Gx/qBQEQ7cl80dt2N/R7zdh4ywfvnTXOEb9dCp5hkgwRZ6CfeXRgNEMEqT+7/fkbv/+noqPFb5mHJb+vl1Ua/k3FeTT76ys3fu5Y25GlFW0bnJIuE5HzYstxh/CJDSoQmLjyCl9VdJ9pLInBcXuOHRJTtP+91aietpNSUi+haw9YrLO1Ht+ZFvjqCZ0dkcJCPo7f1Ue50trB+LOFtSFeSS7QwQATPSFQi+H9XpdjyhJG86/Un4bE7YWMm0MwFHGv/yRfYoNeK1eCCpjF7hSejn6MnzYlNtkIMer7UBULoTLgywQrXRJu8z7f1CgumOO7h0bPpSEvpxmKj2MD4qUVwhgBmoeQb+AqPvHcxnjeJjuxZ9ObOojpVPr4rsh1akIIHUT+LttjbICZGNRjhX593W5o0dWaw5yv4t1N1KMvZii3Z6Th2cochH+uJX8jXDnnj2l8fD+Os6st3fKkSzTliy5KtjR4p72V8fsCDDHsahqfqNZOychKCvkyZkLLn//jUi6WuPGTYU1FSluM7cu3zW4rz/v+9at56Q67rav8WbRkdgrfaeq013WoJHiP28ubTbH/C8bpMJKSkYe+xbqmdjaZYWVO7Al+6CpbOgXMXJ3Tp5CAL9p2RwUE+Dl7nrhMK0SOCF9lxb62YpPTx3x5E8CJI6EwdxubBoV6xMTGPStVfjSdZ2KHbQ88Q6MDTss2KdRsnh0nwnFIQhuw/x/O3ul4qC+xL6Cr0H4n7uFPalDnCMu87Jo63GiyyPkrM1DarrkMOfnimP8rrm4NWx0Qpg4fsC6WQKlnzJ/8dOMiC1T/ZXWwgaCK9PlJSdrwX75jLN5e5fbJRP/n7iaiNPsF7hPYCiyjyVbfb6x3M5cAX7icnY1ImgMbnTtmc6qc9/nm33bTIyGiUtHh+0vkw8fUASiUrAqvX2nHgwnHS4PnVgsttT3+/3r4Zz/IngheDCaPTfVsLQDASp8+6blqaM5McB3FznPu+vdJp7i7XrAjTrFb/Qrw9oBxl5i+KlkffslMudFG2SV042flnsYGykVTu+guOFBvOvtXK1XfOysILuDnyE57O6et+r2FP1Aa76ukPNcf8a+cPISs1uiRPTMaMPOn3LTMPFmk4fnbAkjT9cKERp97lz0Lzd0p2u/DV3VlTfkYH/MTsXMvzS3+80IxT7+5U01vX3VHtwpMHu01lKARxGX/7dABHd0TGdCnLK6N0Jz7QtkiJbsCMXG4s/hb70lm389JZHhhj3SYZjSX498c84lpP2r89VaeZZo3fktFYhh//qF+QsHb8/kyLdtSZPw30WnCQmDem28LozoO7qN269iPfjN9H/+vHX5IHyUPGABE8P0RFFlJk/k6HJ3MGA85F9Bcsoie7B7mbg4ORHRHG0/QXTMLpZyPdSNUx197mM6uyOrJfS4Z5b7fIlBX820MtJ8k1pRE8tiEu/32wMhA1Uhlq3fh7tqx0jI+4MT9ahqkBl89Uy59F89rSU+wrc37QhXpneBqxHHcOdo2UaXX21mWbtERrr3s+DnysN+Wx9rt95wwcMeubkcPi2uURuC7VnYVYmC5X2nSkKGQcdcYYB0X9Z7V+yNrzD3sDa/+jLTfKPzCuSD7xKR8ieDSJrBsStJZBpmbktEFj8A1unIrexsdrqSullQfTfNPJJNevXEaLS38cHMlMltn6/3vo5JcSwYvOGdGEifWPA2qj19tGRPCI4MUFwVMGEgfS8kpR5G5AVW0LnFnpcfRtr3egiOZAnVPK2qsDtbUNyKY2iwPMluDUfaFJPzXbGgffFL/9L5p9m/J+vbghgkcEjwZfwgBhgDAQQQw4UFLbg4bWXjS0dcIuBXTRhP96J3yS/5slfyJ4NLBHcGB/szoPDZbU3oQBwgBhgDCwXjFABI8IHhE8wgBhgDBAGCAMEAbiDANE8OKsQdfrSoLqRatcwgBhgDBAGCAMxA4DRPCI4NGqjTBAGCAMEAYIA4SBOMMAEbw4a1BaHcVudUSyJlkTBggDhAHCwHrFABE8Ini0aiMMEAYIA4QBwgBhIM4wQAQvzhp0va4kqF60yiUMEAYIA4QBwkDsMEAEjwgerdoIA4QBwgBhgDBAGIgzDBDBi7MGpdVR7FZHJGuSNWGAMEAYIAysVwwQwSOCR6s2wgBhgDBAGCAMEAbiDANE8OKsQdfrSoLqRatcwgBhgDBAGCAMxA4DRPCI4IW8aktMdoD9wu2gSSkZSEoJLV1CSja2OLJhi2S72LLgyCkMuQ7hfl+s3t+SV438wsLIyiaScg4zrwR7HtLzSuFwhIaNcOScYC9AZmFh2FgNp4z18m5o/SuMvuvr5yFOQskZ2JyWjc1pmf5lbctDZmEp7IHeCRM7tjRlnHgrzHTrpc1iUw9H0LZhfXBLWuT7X2y+L0SMvsEYIYL3Bjd+OJ3wLUcjllaOY+/KQeTYU32Duc1RgoycHP8De6IduU3z2LtyHEvzgzpikpiSgcRkYwfNQNvC2773693ZAfNldd/sKEFRfR8G597GnsUxXf7yt5X0LPvy3Ltv2O878vvh/L3ZUYCtmYWr/iWZZGCUifL/W2lVmPLJ/zhGuquDyiacb7B69620CvQsKm2xZ3ECKVE4ML6074CvXRYnuyP6PQUts0p7rxxFvkPBqtU3vs57CclZ2OLIC/4LQop4/9qzGAjbDrTMK21Z5cwIKOvEnG6f7Fh+oZCnkp5gbejA9oljvjzZGBCezB3Iq25BlrENbVno2qt8T2NZbph5Wvev8Oq11jwcSMsr8S1u2AIn9J/L925yinX5yTnVaOobhjNHIduZtVOK3Ge9vrZ8K207Bmdm4MzjZFyMtzvbPCHJcUthK3bOzqMwU9+vbGnhj4NWYx/rF2sZT3lafzKKbTtbt1Ms60AE7zUSPKYNC2UQNQFilZo0Uz7+vt3mRMvEQexdOYxCdXB1VI9rg7RPu2bLksiYv0GWDe5HfOn6WsUAwskiI2Up9jwUVNT4iFeCnZOY/ciw2eHqnMXE7DycOTnILG1BVVMvGnvH0D+xD3Mq2WHkUfkd1oin7juTSjGyrLzTta0kpEFMl96fjNj95AqNdIl68PqEdh3pEHLxX24uOuaUCW1pPtBEHpkBJd3dp5J58Q1T3qbIys6WhU6VzPc2lUU078ScVq3+fa3lEc3bfxuFJ3tOjILjRsJ1slETLvrXUIdM+jOQ62lCsaceTk89XHV9Gk57mxtQ4KlHSXUTsjLTkWAv8f3N3it012N7/4ran5ZQ5K7xpS+prkeauqjTfT8bA1Ti6K9vFXftUfM7jsnuFuSUVqPArfwyMjnRsJKdA40z6gJj7yQ2S/1QjBNifNLVS3o30H22aNq5eAhN1cUxxUhywQ5NJsHbX/RB/m5pzlbL+nJMTfVu8z33DLMx/Dh6m9i4l4sudcHGyVxiJu8nockxIblKGneXkMkxIRFuXsdQrrNepZ5yG/FvCCV9oHcCL3is8Baf94jghTgYyCBc89/S5ObTiG3Rr4YC5W9379QGh6hpcqT61asr5Ip+ZaU+0lXnGzwcnlGlHsu7sdWn3eEk5DBKc9KVAchWjCGVXMmaA04Wx7w9KnE5ipwtqdhS1O/Lc2merTiLVWK2hEyHWyNp+k59FKOTU6irb0CaHzMDX8XuXVmCw1ILVYAdqjZAn7cYWP1pB+WBenbxEMTvgEYwWJ4LhmcyOZXl4q/dy1RNF8trz+I0trUPorl3OKRfU2c3UkLUEm6y5aFOm+CPY2luFt4ZhaCzsnubKiwnFn/1DnRfTNLHUe5nwgqUPtgzWWsUUXN/JMYLaXHkD3Pa/eVZrX91qzitLcoy9a9qfi/RDraA0tJrCyCBZ/5sd38TittU7XaA99j7g81mEi7a8ChKssykI79xOmA9lH7uf2LNrpvQ0ssLRD4G7tk7uSbNsr1UGUv9kVMrjCVsKYCzuslHijNW6VqQnNfpI0qL+47C/+8QZucPYG6fod2Wd/n9Zj4eMU3pW4l56rh2FKU5+ageO+yT5eLkDk2pwC0bu8c7Q+7XzlauHWdWGWWxKXCgH+smZvZhbHYfJqXxb1IlmQxTJrlLCwaO0dVeR3uVecqqDd+ke0TwIjFgh5kHH6AYeOcGW0PuXGwVxrUesnYt8oDN0FbPtUXMpCNIkPK/IG5d21y++rNJRSEuwoSbmNepDtBLcGwRAzkniw1lBXB1sQnmIHKS7ChUV/tshenwKBrDKe82JGUp+ezZtxslpZVIz3NhSxDTlSKTXPBJcciPpuwtR7OOjFkNKHMj1m1U0L5bHTTNJsYUdfLYq03Q4vvZylkpZwmZQch9bqMYUK3qFvzeUU0LGwgnWZ4eTcvD8tzR0ahMBEmlGkln94e97RExc2t9QFsgCPkEqid7pvicMW2Wn1+ycA1g2MrPzARzCfD7foj+ocHqFepzMSEeRmGmuhgy+LZyzdfcSIfSv9K2a/0rV9Wqi/61X4+jZCe29Y2h1TuG5q4xFWvHsTA7g+Ze5X7bwCRKC7PATG4dA+zeMNrHFVPq3pWj6B8YR4tXebdjYAS5BpMc+1a+IGNES9awsWcyEZiZmgErr8M7jB5VE82wxMcO/3ITWry9K/s1DX2ZuticGlibVpkTHE9+YLO1XL+UIrHADl7/0DEtl6H8nYH8ugFdnxwf6bPWpGrzj2KtYC4PNsd237jG3CvKmhSivDQ7JPpucgUm1MX30tQo3LVt8NR3aL/q1m7kcmxq+Svfw8dv1oZ9TSUCBwY3geK2CQyMj4PjVfkuPnccRZEBU6JfHEV5ntovpLJTirjmc78hT1XOkkKBKybMcl1Lm2y8tETwJADFBgyrJ2n20hFtsJ5b4+AW7FtdGtkqR4Kd+9/thyPRjtI+ZdUvq8G5Vo6v6lj+nJwsqT4gSpmcLB5Gnj0VBe2KCae6qEgjlZXFlRqRLXGkan58oazK0tz9mFw84Fs5js0d0uS1h9+bZavKA5idn/Vp9Hi92UCY7sjT/D82Oyo0rWFLtUJi9TITk8/CeC8cmYp/jC9oIKcENap5ZGl+FFk58jMXyroUYqiXi3nwyOBa0pXjmJkcx/bOQTR2Bf/Vt3m1ultNvvJ3bCnYjp55oaXbs28JldVN8GxvxlZV88d8d7j/HxvUGdEWfjzmeidmNvvIyJ4AGgqWj/gdxdKKWZvBiAZ7p65U+GOyvEU6OY+1/W01ochyiuTfXHPE24aZvpTJlhP+DDSr5klOIrjGXNYma/3L4N+qqyszn/m0JkdRZPRlM4x9nLAxXOrykN5LrxjA2OwiBicXMCVpl8YnF9DnbUfSljxsU7HP2mmoW9ak5KJ1VsEaJ67+yuH3WXsrvr/HsV1dbA6qxETGBX8/2DXT3QbvjGK6FDg6itnFA+gbGIGzMLBPMV/UsbThEMNg9eLPE5LzUNQ4qpJ5BdMzk6PIU/3q+Hu6a3IJajoHUdM6jPF9h9Dd5UVT/161nxxFU6vXh69h707UNNb6Fm4522eC9qMGtz/XmwJt4VxdxBbpyhiuH5+d2sJQ1tBrixKLhS/vF1aLYva9ea3quOnHTUWYnIWSQScnCcdvyn0ieDFu9FSPIGnhrUCFD0V0tXfKhM1Xt7O9NUhzK3VmA3+OZCKWOy5fVXMT7qZE4R/EfT5Yp9L87/ZO+laTfHBoqGvTTLL1vXrNGDe31fsdcATJqFMdusXgbT3xcydy7qdiMndrK1w//inJggAGK8vfc39aRSanDM+QNgAvTvaJlXeIeOUk3B/GMopa0C2ZX1kdd3Q1IinZrQ3Me/bNappXOeiCf8/wQI+lRkGYxa1lz9OHdtUP1qFMTKHlK9ftoM9FIFaDPu9bvG1SVNeEPfumFfObhj2h5eBmeu5fpfQvReMm/O8cqPTuxoRKwBgJ2yktcpbU+ztn96Hf2+MjEsyExt5jP9kcODiu3BucZAuiKU1jwvticBkfxjaPtDCyZWmkdWFWH3Cll7sDW3NccKg/u6MEHfNH4G1vgSMzH5kVA1q/qCwq0r3L08hXzZHfloX6MbGQ8Vd/K78wuX7c1Olz+QixL7L0XCPbZLlYVMYve2mf9m2sfkvzs3Dm5YAFciluBk5f4BNbhPFAN5a33a1YO/x9k/4+C0YrACfJM7Pz6BzZhY6BOa1sdq9/fETr+/L387+TMqqQ5wvWyNAW43XuGrRMrmByfh8m58Xieu++g2CL7a6mCmSrgR9WBF/0C2uLCceet93abzlzu+ISIC+CeH3f1CsRvDA66dpBIkyGjKSFE+HHV/Css0bc4d1CBmnuLp9vW7LNAU7efA7rtgKUt41hW53smCxWdNqqWlKXy35mXGM2NaA42OY2TmBkZCc8TYpPH/MR2ZpZjbZhVbWvBUkogRfB2iCntMnnHF6lkkSmBWqsb/A5ixe4W9Cv+oAw0wIzeXP/O82vSZWFvVTxB9QmXYOMuL8Ly39UnSCViXIe4/sU53DWVrPSZOubcNXAAvZMlov8XXnbhe/R4tRA2ORuU6JTG8AbPWKrkKRMNyrbJ3SaF1aP8ZEBXaSi7DvFNLLC/JaBknazybjfuwNpacKPtHpY8feZGujyTdT6KEEXMt18kj6KbZ5yUxQhm6C5llPWEjMZJaawLTmUX5LdiVZV08X6RJK2ZYd4R3s3OUuL5mQagkxHppbPZj/+m3KbROxvyf+uWW0bvsjh7hpbuClqeZfmf8cd5DXTk9S/NP87G/dblcmr9d+MJLDoc9b+ofwU7Z8DOZ4WuKvrUa7h4Cgam5p9PmlVXcLnbmFiFJ76btS09vp+Hb6gLaWs0R07UN3ai21tXpPGjLlMhFKfUN/hhI2TB5ZuaX4CJdUKBhlG0/OqUder4LrPEPCTUtqFvvEZdDAT88AunWZtZGRKvT+JHSNz2OY3WENYberdThSpfmyyXyHDFx9nF+ZnUVLk9GlRhcZrN/KL2hRt5vJunT8xC5Qpa+pASXWXpu1k37moalhbWjtQUtvqC1JjGkq+ANOPbWIstPKn9Id/YVZdQlFZT8C262uuRY06NnDNtJav5H/Hxpz80mrfmM2Cf5yeGjirhAvJwmivL1BHeaYEEhW469GuBvTpNYli8a+VZRjL4/k+EbwYNvbqSdrqiWG44M1vnPBpAPrHZ7BjZBf6x/dJg8ZR9I/P+e73jS+grbV21f53LfUNKG/1oqa1GxV17WjXJoD9qGa+IE3dKCktQGIO9+M7jt2T85q2gWsdmIZhYKRPIiFKh67lTsXjwj9OmMIO+szDwv9uv0mDY5x0jXLkpppFKX/+zmZVI8OIhHF7EVEmN8fJA1AGKlXztzaB7TvoWw2LAA45mEP5e2FxVkS0MRIkRcfJiwij9osRM3+O4k7VHMImASWIRtSTrd7lCdvn56aZ/wS59LfVDSfPewP433HNarDBmrdTsPe0iXLlOELRBPO2jPRVTIhcM5yhRaJyVwCn6rbAtRzMRM79W7k/k/gevf9dcnYJcorKfMSaazwYljjZziwoQ2aBx7e9EdvagpHpoiY9aWdtnpVTAuXdMmQXujTHfC4PbYFjwHjVGPfjC404Gl1NhJ+VMb1irtf6RYjE1CdTTSPKyN2ob6xIUiNZZUd/tiecpvFT54XSPmWxEkq5nExyGfGr3H4smIwTOZZnVaEaMJMoFsmePCVgJcXVrY29Qx11yFM1VP62FXJri1q97BiZdxdx07NYBAhrix2aFnlxTDeWZlSP+szXk3MHwH8zs6PamMDNqtw1h+2HmJichwZt94RqJPoWXg5s0qwDQjPNZST6hb7uocjd+I62CIrh3M6/Y71dieDFDAQySTsYpvZOqOBZ0EH0QJSh7S9l7DRW/y+q0VdcK8c7Oauf5h9k6X+3H9taxWrfKm92j0XuGUmJ5bsGoqBNPiv6CM0ClbRwUibqbTQZmSddvcyF/93uqVF1Kwklss7paUKLOrgxX7UydUsKti0F27aitk/xjbH0v5O0MuOjUzpNoOV3a5OcnqBy2ZtMFcludE3OoW5brW8iY9v0JNnN2i6m9Uq0l6CBaVEzs03v8K19tuRtR/vYDIolh2hBLvWmVVl+XJvC20F+pvwtk0R/fkAK4eRE27jPoj5Pp6ap5aRJ/1yQ12jf5xOi5n9n5/53gvBFwv+Omfu47xrHjre70TR2ZFUNmN5jWmlNK+hnfORtaIzALFMXKMMD/YrDfqNwNRj29vsWbp56xSeM1SucfeyEe4vV4ki0ofDbU2TKfUJZeVxryn1//WnROQ62lrRgW2svqpo60KFqi1k+7PuqmoSGsra9129QAvedFtpo7od8HNzfTAtSU8ey7Dp1l4KV4xhTtyji5mHjtkJvOSrQpWpj5aCKPUv7sVPS0u6orwBfPLBvkN1SeOCEUato5fLCsctkxHEw5m1VNehMM16huXlUu50+rXtSih1beNBdIP+7laMYHJ/zKRKYMoH9vMMLkmbwsOk5e0dYTfyPO7xN36QrETw/A1ikQcCjQlnHCo+kiZWdXlMiBrRI1jWztF7bP4vti1U/rOyLtWdxFqVMVa7ureXbR0t1/OUrUrEiDOJ/tziGtLQS1LR5UVnfoQ0GTDbdXYr5ZntnLzLTssEHGG9vD9h+XKVqRJjP9MpMQ7WtcLlLpYkrQ9vUlRNQn3wk8sTNsVxLJA907F2xmuSTrl7WTBMoBx2weof78+d/x4JEutvrIFb9h+G28DWyOwpRq2pL9GRRkE/RHvr6s29MzOMRaeHXPdCkrJl/DBF1GkalLXiMExV/R0zQwQdrrnlgPlH+IpK5/5rPb0qK5ublxfLKJ8TI+9+JNpbJwa7RnWiWgh6YyT8l2YGMkhb0S5P/kuoX51FNaKx/VWpaH5G3T1aSmZm5ALCtQ/IK8yWXBxHQIbTmsotFAQZ8W76Es9AVgSfBxs8Mdc9OTkQEno5j93ivTxupkCW99jMYDriPF+vrXMsWLA17zv1hZS1zcqGyoTTLq7e+AoWqFnVutA+eHh4gcRzeDjVIRRq/5ICg0i6hfWVbKDFtOx+Pe+uLfDsgKHtoLqGiTk/mtS1TNA2nebyzOdw+c2hOUbXm9qHJX8PBUQMJsxpTDqNZNYNbLbJ4vzAuGLh8uUXGOFbz53yxblrUxmh+5/VYb1cieDEBgLRiWzmoOSyHAgYOXDYQCAdrw4AbxW/gHWtnm78NYwUBDd3/TmxvwAbfqX3C/KKb9DX/OzHRayZbg2mIy1LbfkPapJk9M2u1RJtwwqflEcT/bpMtCxWdY2g17UU3iI5JbqI66ovKs9qvrm1gDE6+V6CftuPtHmjA4m0jk0Uxofr38WPfyU978L8PF49qPaTzO/JtacM3OLWoO/e/kyczLld2FeRZr12V3wlKEqVyNc2Hb6I0b2TNJ3vWf4JppeQ6ROVvbUIUmiRuYl6z/12iHcmZFeoG5coEOzXQoZlWy42mf21RchTN9VVigaT1OSWPFvmZKnd5gcO0RMx8vDS7w7c1B/tb9u3ibSkvQngfDoRto/wT8zghYr7L6UgrLEM0k3a6AAAgAElEQVSyn/0dOQY1X2XDNzEssB/TsBfkMWIa2njK8/Vt2RJkeyORp+x/p9dGl3ZOo6W9V+fuwMyp1fW9GJw/gOoyxQ+P5cVlZnRr4AvgsYEexVdX8mUTRDADWzMrNC32yOiMb4HKNYrcSqIRPkt5CKsGX+CJvrwfrd453+4F3Iyru84fwuj4OLpUy0Yg/zvZZK7JUGo/bY4x1JFrN/2NO1pehnTxfp8IXgwanE/WbFAJD4CChASbWKMBVNaBue8PP9HCWI6YYCUSxlXxbHNhSWPCzQAt1Yrj/1uZjRaasKPaxrfcH4cPRKxsbpKzXukJeem2Z5AGCB50IHzh9OZNVoZx0jV+c6D/uW/P3uVdOl+WQGmsnnFZ+cWL9E2ymUkjuAaztVUZId1LdkqmqQBaHV8/EqZVI2nmZXETJTdN8fvylU+kfr9d12cdaFAjp2ViwfJjG8pyM6WINA1tMpfrE6m/xYTINSVi0lyr/53QZCrkZddIL9Ic2UjxHaOXh81pJVq0Y0VZq6/fzU+MoqCwEJvTxPZAdkemb288Ljc27sia0UR7gRYAw4kSu3bWuMBNkWLfSKF1kyd1Tig0TZCuPa3ah1kElIXT7qkpbfPtBXWPQH378H3WjkP2xZKj0uV6+/7etx/uomBETxC1cIip0MSL8ZHXd0thM4algCxRr8Mod3LfPEUeXGZG/7u3HG41mtWOTTYR2V9n2nFAiZxlYymLlGfb8ihHx+Vqmjl/5InVV/4O7tfL+7I8PvNvM1/5timB/O94v9BjQJD7Jd82Xea8RVSw3Obm9/T5vgnPieAFHVzWCgpBOsIlabL2IbTJbvV1ZQfZMz8Tvtmlu7YVDap5lg082+qaUSZthFlRXePTDnDyGrr/3WFfQENiXqtBM3QUE7PKaRl8AOVnlYrJWZgfe+vN2hp+Lierr+zgz010PF/Wsblszb5b5kmXvc+ONfKyLSUM/iHcT4RfdXuDsXcn9f4k/L3+yQUMjA2YgjCUQUdgpq+5yucDJ59byhyZ07VIVL1pkpvYxCS7ekykFClEQJl4lpBv2JjUOEAK/ztGMg5rTtnyal4QB3YqxwHzql/aXiHUYAgtaEPS4iXmKHvxsbrvHu/SNFnGOsfyf21CVDcGFpPm/8/em3ZHcWRro78HWSU0l0qlWaVZJZUmNM9CpVkgCSGBAAHCZrAwAmOjZjbYYCPATB4AN6ZPe+i2ey27fe853e/t5qz1Hn85/Il9V2RWROzIOUslCUR8qJVZmRnTjh0RT+wp6MKmB0TUMQvzLpVGC7wbUbNN7xyB3IImFsRW7TsV9Dm9760vgrcyG2Bolp85WtQ6Djv3cUk7zYs46vgj51FTk4e+beqpFxxg44gBPnZ8IQW1dn3AwStR/WYAnRdIHbiTgsrniUzSp9+4vZVeBjXdO2B41jhcih4U8bHDwbm74PQU9GIQRFTa+MQY6u1KaUqvdeX5TLpIpfVYw0G8Z4PNnSxIMXdUOwoNzTxwMTnisaQoD8gcn+lNBSrlJxLM2g5noUV4O/iZ31StOtYThKQCc5MPov2Jz4w4y1na35FA6gNCvM9tHUPQzRzwSCinsD4WaN90ZCOnB9F2vLXZ30uAt8YAj6ooyKB1B9L4Iu8WGEbDtMFRqlp0uhgcVU6fKNUcYWYb/+7gXhYShdCkpaUvsovdD5npJXw3WVbDgmmyeHss9pzx0UheFDuO5F1XXgh48ceLAV2MtDYdfCKni646yWfW2gcGpRMzuZpN2vgbpV8NVD00VqD4rXG/ENUX7W8uTbX2FE3Otj7o3JtdBqGIM4hah+NQWVaqxBzLyC+H5GQeEoWWTa6Y153U3fobN5M1l64Q9VkwxEMqUNsyXM+NuqcLIrW/oxsSBtSYLRSXctDNCTfP4NIsvvHhQIS0jQYsJvQlx11hgG12r0rqVR7DEmGVVjzWGe4zusmi7cLvnN7zdolt4H1UzOYEqsYmY5SdwqAJekudCKzUjRQg97W0QB0LCEwkWubnPGPHLQyyeD2N60/t7wgIIt/m1Y0IG9vmUBl4I6feEOlcAmoboWGdclQklX4tCic8uJmTump4uKQt8XwTS/vJTvJFQTWTuiJzg9oCPwtYT/PD14YiP2RGAisb2d9Rm0GcJpp7vAmy65c35b0EeGsK8PJh+2Eaa4ofteOEufBiaWUs7yQv+298EBqcZdIpEtOJDzAjr6U5GBjsBGKLRo8CY+J9ZAyMFwoq6eP5LkJrfQASI8b+ZJEj3pkkLAEBLdmlapwqaihN2sAmWYNdIG0jDi2Ay2L2OEp/c/CsVSVSQKhV96UUNEBZ5AxK4mBCf+Tg9CaL0BAz2zshP8i/p+lKQq0a5xC+QBjRCrcF34e7u6CmaxRaukkU+wivWdBnS2KlgVrcGDzicvA9A9yasUOlDNM7ByGviB8qT2iUVxqEAIvvR2IT1iqxrujB88o3RSEm2cASD9q3Vleqzsf1nJsZWZWa3Ko81+/QgtgSJLZY3Kueqi9ZG9zGv9P0AwVcU4PGAWON6s5svDRmFeq3PqgfnVX6LD2XmlXQTZY7z3vcP+SeerUa1YkAEap+J8Adq4opkCN5MEkvcuChNDXKVzUBiAS3RmmseI6CQlKec1tOvvEYHRoTnVr27IKcDHWjRAEO9WCNz25jpgVEEr6tbVT9rzG78HirgXjvNo7xzfno4DDUtoehprmH2dzhY95of1JPbdIebB9pRC98RCa1v+ObSdIvWRHHNnTEmIeaaxA6e6FmUpWa6voFrRcDYdEzmYTQqunmDidG74PbaExNtwIUPt8at3lzvJcATzM5xrKzowdpdHCQhdcdMIxF/YnqiHqJUns5o3z5IOfSFh6fy9j+rqWxR8l7WyTKPbV3o5K0uES/AvSo0Sx2ILC2v+MDcmt2C6u/Kkk7yuI2kXbE0v4udxsNZ3AUBnZyj2N6GgeNu2VEP7Nn1P6O7ZYteJSq/chErf7QJGuQjoFkIt1Bh4Db3c9SRxgGPji91Xb4oHGSHAFlHmKDSZY0CxWmA3X+CHeEmGQSvze/L2Z9TmlBzjc2/3593xGpk6qePq7EYKQqL+LZS+MMUoke9f7mKlzumMXHlwh4WDuRkT3hPeIJzzcVRhsNNXwPNcewW+zpBgjbUJI4Z+yc38QUxdmCzh+0L9QYcV7+XeRsYBpyh9Wf8awXqiPaAZKHVsLEJe1E1a9uDrnkm89H+nxV0MU3jlyaZSUBopJUN9oU3n90bJLrcWisr+R8iWxpg4X8TFxmS8vG9SJo7e/UtvmgNXL8GwlVQttLyqYbPiPHhWYUcN3MvhrnpUp4D0FOei7kV1Yxr1/iXBMf2TTiTTGdY1XQTCWQXDJN86YmCJif6Dty5WYf2Asbj12+UdLyCM7nTb2XAI9NKJhpYnGvAWkGqjgzphOAYY/bhW61dedesXaTvTc0pYKKg1y1QXe6YloqMSOHq5M4Sd7IRMQnVyxJ4xMjVpNa299hWsalcGNjusCM9vEYYMz+TojRR+jG62NnH0SO7upicbGOQml2JosxpS7QdFJTg6vSRRzX0/ie0sphjDBPPpRu61ZiclXW1UBKegnU9g5BoIiESNDzAo3/Zeykov+e5kHBtZGKhX5jd6WSJfP4d+blW+WdWcZVsrS/yZWE9sm08PjV5knOASXSVjHsTnR10uZNpN3ZpSHICxTBFg9XO4Y7m6CoeQRqgurJMCQGIQ22mxpU418emOd2T2x8mZw/i4EPpoXTeypF0tU/wku0D835IB/UsByE/hM8rJGVVFnHpyK462tGgAh9Wz5wVOnjvEi4JgaQJ2lwcy+EBqYFBwrqAUxtVLFZB32mazuSvmq9WHXfovpREL9/ZpfiKbtzrD9yvrMP6gb3KhoTZg9osOkp7NgLo31d7GxfvWrYy06GIP0bKlVt9pIDXUwNbCTFJcGLOT/Yh6qh7SBpJve8C/MHSXw9VSLXW18AiQXqqT+ENrnZpZCZW8pOvBnfHlJAmlKejgf48Zv4OEtMU3n+7OrmHwnw0IDEjLXa++xI1HHC2Ga2MsZliMAQqyWMv18dA2jzDLGYWVxqoP2G/o9LKYRAbSvkKzGwSD3M4t+pB4YTiYJ6pmKkzp7KiC3NfuHoHbqIEDsaWhZRLY4ph4xT1ZBxu7H0jk9i6g6aetZS+zuyAFFVIjkaJz/YH5kYMbDUlOPxQ3ErP0qMnNeqni7A7ZToRMxUbsou/BAU2xxkTtqKpRDUW43RwAGvMinZwiGBpmoe2Ihf76RiXg6PLahTsTiok5IvUoVR+piXp6G5SRnEaByfp0uMxgNFQXZ8mdr/b0OlWTw3nC9TKam8gp10VltPMT0HQEQaRBdKUlet6o8Y45PxVRCgHp729ndcovs2NHeEoaErDE0Wv23tYdiG7C2xFEmsN/HS9LNTN4ykQuJ5xYeUYO4UUJH2ObJB9uRDUyScBklDx6yuLrjvlHu+MWKSHKT+m5vZDaG6GmYmQOaiKnbcmipZK81WT5DQl+WDdiTx6unugKz8UsjILYfMglIGyLXpqP2dtt1cmqvyGmmnGYjFxw7ysCd0/ixWzqYl6Q9EjiUj9/S3Y7BbnG81Z1zT7+w0BbQd9Ht+fVuxww70HmZl8ndqPazs7/gaqXeIUWnJ+d3MTInmYSV91fbLm/RfAjzdROFscbFmkuhBGmVYMlDcAcPV15seiE3KpuFErNupLZOHKDC2v3sbgqE25qlLzqok9iIkUnzVtnbISE8V4qRhpwimWtTtAnkd/CEeNZ+ovsiB3DiKPWlXqLichYvQTkb0P1Y10PYT6U5R0zjbGZNvR8MdbAIlXrZULYVt1EjgYpovuYb7Oiztwqh00coeiNbJ6ErjYhlO2tiInx0txulnlJ/yjAFxvYrFNI1mXGHJEqaP0/T4O2IPKR6Vtgg9HU2sLwgQqWEbFXWhIXQXNhea+nFgpH7P7Lo03+F6uL1PyGyIbFLUMgigY3wd2QTgQ+T1+fPxpQWD9Fu6OdIeAUbfG12JGkzlUdGsQvstB2v6TVZOCAfRVcEdTc/Vm4vQ12aukUjMbRHow4L8OugDGkaEhCeixwOS+mLnETwOxfvjikMWra/RFdv8iWkXoUVxhNCOI25/1xQxR6H5EuBeGGqOnICzDXItYvEl0YDIBhI+mh+xO8Z1omCvtaaMb5DjUwCfcU2OPiuKnOxD7PzM1LREm0LnNVLGzvGdMBw5z5s6C1X0TkKfclYvOa+X/7aPDkOax8uC1ePNIc7XdJ1D6mtm463hBRo+x95ZR9s/b8Z/CfA0DEMHzWqubLJxDdKiB4arqS9RTVYPqPZjZBCTwR9Nfll1VLIlhu6gcc3wJGR039dYy+xuRBWvdfw7Ei6gaQex/1IXTiKZS0NBUKkkjewCPd4mNunPkDAd9IxFFJ6DeusRGrzlJeeuctqQMkgwUhJ2ANOI2cwYTMRJBVxlotbxOLQ0q+f44jzIfaBb3Q3vneyHRHKUWMRWye5K7KDykBODkTRCABMH34FJxzZ4kfAYpvZ39pOlFX20NDD6v9UbgOLmQdiJJCmEljvHBpWNgVGagibKjypfEIlZfV21IdAjAJ16ZpJ8scmAUd6unnlyoSwSjkLtf+IdyUNgULUreSd6f3qBHCdHy8pjZ8ba29+RRbtvcBrCY9PK2dHkXGmz3/Budexoxxwtl9aB2kdieylyXF0vOhGDnKaQoVWLe/hRcaSNO8KdQh+Q0xIakDcr+aYxpKqsaR3EK6EL5zl8codWsujxlkBp8yAMTByEWY2Ua27fEejo7oJ0bX0N1wQfFLeOw+ScNlQMMc/QS/64mQnlvdVd9fZ3XkjPD8G28CxyyNCXQcwUcrMDEELzOzNXYRs+ok7fwYAxpjU16SB9gj1+ndoicjttvDnMYWp8K5W3EPIm0kcp+SEoLKuB7KIgVCAJ7FpsyDAdXtd7CfAMBzOfPFx3LFILWB2fZJSvCAxVt3qj72L5jMS7UlWf6uQwhmzV7Mop7qKieXLqAZ9cxACkXijvmoDOwR3QFrb6TUL/joMRkHZcM2ma29+RWFtk8qE/I7UEaUdiZq6yUFJ3fSIhEw28vdCpHJ+kBm2lbecqT1KGChDEdCqvUMmJmX0ZARC9kZ0vqasxnblKgrYnmqtZHfBkHU2+5nZX9uPFjj6U3torWby1C7NCv7FB8GdmMvCjTUf/J/iqBe9Ftd3HoblejdVGvyNXsigrjhAWUmL8vf29FyrCexlvkrKV0xNyMjT19kETs+dcBKLWInlTmmn7yqx/sZRUm8bJfyP7O61kk+QzO0jOw85n55/SvEf7WgXghumjBdBUQs1j3KljmACSnEwtfTB/cRthWi692vJnxEzASEKP6xqLe2y3Ruu3mis2a8hp0p/jvX/vHqgsU+1uCc937TaO9detsWfEm4v9e8KaOVENuTO3b5dihsLNR4hKWT9+KN1IAPud+96BHTMcVGOa000soYfVRorOV5RXiO0qXqsoPYnDDJXa0jrIqzpmJMCLMcDDIM3McNSY+bhRvnJmpgdPamt4n1jC3OlbtxkbMxvXNwUK2ynA4wBr/55drgzbcd7F3epiqJs8UGiPEr92t0wn/Lehqowf7YPzxfeJ2WWQVxQEnwE4SM8PKu/EOG850Dg4CZXlpbrJj+Xr8UN3BBz2W0x8xEaRBIzt6DCW3pH8spkUjtOUTmROrjt3mgVP5nZERPXltYmFl5FLbIxI7LsQU9GQALiszW7GDQqnY00fPZ/jWF9ze/ZBQ3OjaRw+q7r5g73Mq5DQMVQqHhuVmN0AI5E+xKokqzydvAuxEDrHob2t0RwAeZsUIIilW3ghpH2vjC8T9ToHY/uhhDh0ELvSMvMfeV8Y4mEmsFkFbRuXoqj8SMpXJXQ5jOf375mBwtxsW94gIG9EsaNdBCpp46DBfPNE66Jeua0rpQm5YnMJ8XvOU0RlS6S0BCAbbdLM0kXznMaNmxloVsoiUlB3vxTwYLOPXD7vUWcSIqXtDw+YqnjzatvB7y+JhLIyswHmoWha662kpsSjVbWl3jfZb0m/5JIxYVNDPIexxJqqnc3tDtU+yyjrVoIaV7J53Qv1owtCbMf+cK9DCSzng2j683VNIwGem4XKybeJ5Ny/AkjLzLUcBEYMs9Wbr6RNYl6m68OUcSn54PVyVZBR3YyfeUF7woLxd87bEZdsXA9fyTYoDtYYLpCe9HzTcylXWx+n6X2RuG/O1D329HC3GKiLh92ilV3aDGW1LZCebhyo2KytmVGmw/nlhLoVY/8cm9MwcBrl3pMPgVANpMdoTPiKmiAQ8TakZTH18cIiuN3k0DzMrkSaUlVnzLfaNFTKzJ97gXjV8p+NxNKjegEXlLoD4t6ikOnYInWJZ2YC4tjcmh2CgoD9poq3hzhq5ENJnXoKDn2enFXgaq6MT85S5h11ni0Ap/NlUpF62gINyUTLX4srUTuXhLaBzwSMOyrTkwuFta1QFhL5h9jwZebiwMXW80liVoml3a/i4R1wll9SbtBWWkbslekGMSM3YOiEQnjKEQ2crLnyG1NaSoAnmcOUOeQAtJ44JX02B32II8zg2DD4LVWDm6OtbzLPElvdqo4+yIlqMyv7/03mnde17RLgSYAnAZ7kAckDkgckD0gekDywyXhAArxN1qGv605D1ltKCCQPSB6QPCB5QPJA7HhAAjwJ8OSuTfKA5AHJA5IHJA9IHthkPCAB3ibrULn7id3uR9JS0lLygOQByQOSB15XHpAATwI8uWuTPCB5QPKA5AHJA5IHNhkPSIC3yTr0dd1pyHrLXbLkAckDkgckD0geiB0PSIAnAZ7ctUkekDwgeUDygOQByQObjAckwNtkHSp3P7Hb/UhaSlpKHpA8IHlA8sDrygMS4EmAJ3dtkgckD0gekDwgeUDywCbjAQnwNlmHvq47DVlvuUuWPCB5QPKA5AHJA7HjAQnwJMCTuzbJA5IHJA9IHpA8IHlgk/GABHibrEPl7id2ux9JS0lLyQOSByQPSB5wzwNe8BbWQEVVIxSVlUFi4sbQUAI8CfBMd20jpx7Ayv1v4NbKBSjwrDWDeuHKiSH4y4VR4fd4vMy0fu4H3Vq3QeYv+2QteCAdLhwZEMYFGSePJ+TYeJX4rWTgQ2W+XLn3GLoD6XLeWsXamlq1T6Xl/W9gsiXfBS39MHvhqZL2s6tHYesq6hAdb/mhZ+85+Pjzb1j9yRp6uKfcRRtiN4dIgLeODNBV8QXcG/8RboVvQygh1UWHZ0BXyVW4OfQz3Bv/m/qb+Bt8UrvHRR7umCat9iBj0A/mt6+qnK3ZXvAk25XvhY/eG9YtYt/NVgplexLSwZucDukJdvmtz/uEJLU+3mQ3/em+bsXZOTAVzIOu4jyYCuZC3lZn5W3NyITxUD50FOTAVKgA6tPTBHpGN4lp6r81RemTtaaBVV0by/JgtikAs3UBhT4Bl/3xVkYWnJ1qgW9ObYdv3u1Vf++1wUha7OjFeYXyjHg152kvXPtwRDc2nkxXrLovydjcmu2Ml6zo/8a/S+qAC/fVRf2zqyc2AFhoxiRa1+KzCuGnPx6Cfz7dj36H4B8PeqFwzTfu5vWy5BlPCJbuqvS8tbIMXtQey3TxKVA1eoGtXYf71xdYMZAf4QUC7shvb0fRqseqXbuN3kuA54JxjAjo5tnwtr/Ck33/gCf7foOdjhfaDDjU+WskHUnLf191HVsjpvHDvivqLmjl/m0IJkW7AHjhwFcH4Orzg3D1+TSUZFstlhjg9cBEXpYCSkLpqGyPH744TyV83dDuEOS46SM335bXVAuL7nIoew36IwPOH+4XylGknOfDsFSdZVne7oEmfboLo3B3sMQynRsakG8XDw1GyhmB4wW+mOZtV5ey8hJ4do7yhHj9YjoIeQ4WsMSsIkM6/eXCEExnxkYSU1ReZVIGqvP57abzQkZmJnQU+KGrsoLls1qA131+IjI2D8LoWF6M+y0PsvvnoXB8AXx11THOO0rQYDHXpzfvVeqa1zMUVV2bD3zKQMVEnRuJU+zboh0zCYVF8N/PF/S/p4NQ6krQsPZ1xXUvGYwWqJVEDQ5x+dHcj73/FeOD0/M7ICPVGxU/RVO2URoJ8CwGvRHBVvNsRwsFas4BXkLmeQHUfdK2AsfrbsDJhhVYCPStCfMkl88xJr10dCzqMvJGm9kCsrzSYpMPB3g/nGo2XZhnxrrYAne3p9AmzzWckBKy4AkDm+oifbk+1gAvAz4xkGpiNfZ5kzL3TXQzOuHv6f3jidjtbIuqOXj5/tD6LeZagE3bhq/f7QuBx2aMLx4KM1r9cKoLLg6F4NxQCC6OBqEuEW0wbPKxmhscATwHgDIuKQe+jZgxrAbgxWcVwdlvycaL/IbBv4q2GbU73j8Fgw+/hfGH30LP0oGNG6eO2lUK3ffVuo7fvwZvOUqD55YGOHcvIm268T6kONhUGNFs7Z55YfeuSji4qxL2jIXgl28jYO/p4KsrwSN94GlmUtFbN065omv99MdsDVs/6VkAjt9S+WDl3sdQ7InN3LEavpAAz/VgxgPb3X1V7gdwpuEGnAwtQrbDSSAv9zMG8C6UbluXiXLoPdX2joiWh8r9UZaZDrOPqPTuAHR220l2OMD78f0WU4D3ljePLXA/LrdB9QbtQA/P9jJQQAFFrAHeJAKzfzm/HY6UZkN+Riac2tPDyz7fq1MjasHElfYA5Kd7YUdXHU93YRSWg9H2rZbvvXBjiarXh2A+NyNKntHma/Hf44f757na8k9HtkG7l+yW02GgxY1kVeS7gMNx6XbSxX3yZK4BjnZWwMke8bfYWQx25cclc/5fDcBrOTPMNl+HFlev6tXS4630KQhHAF7bu7Nrzw+rmsdLoe3TZwoYHb190TXAK+yL2N7d/wZOTre94m1Nh4dfHFKlea86wItPgf4T9xlQGw9ZaywwD8b7h+HjCOj+7OoCxK+KPyzmISHfPHj7E1XzdesVAfoS4Akd5LQj1++7uuC3DOAtZK3DwpnYwndNLm0f8ADz9dayBeTSg04HA0xcaK1UaxhcfbwtZ90nVH8pV5NRcEeuMQV4gjp6FM5WIjDm8TOQS8q921kg0ABLpB6NiOrYiycpEBuFWErb6htqGXj8dib2gAHzFrnHgIlsCLTACNfHsp2Izt8fqRXoqC1zNf9xfZddLFTaMmMB8OJScuDk8/nI+NwBBalrIGnwjDCA13pses3oqqVPdP+90BoBeMOfXoQ4V2sCNmd5BC1ZVmYo67dumNPB+1oBvNQqbgt+bWnCBR95mbPFyv1H0JEfG1MLc7qSvkUAb+WsK4mjdb7R840EeK4Gs0tCJ3TD8ZYv4VLnV8Lvo7ZLUGkmefK0wYmO53Bj+zfwUfef4Mt9/8UA3i3lGXn+DdzY/ic4V7XLBcM7q3tm83G2Yzo53RR1/hO35xjAGxx0orp0DvDiM7nNlJU6Vzto6qrL4cF8O9yf3wa9qfqJuHlbUHl/b28dtJvaHfrg3jlVcvT9kTqYH2xlwMYK4MUl+eDUZAv8WVDrjsAXMzXQblAXf2E5y/f7o/WCmnGwT7StI8CEqSEF1XEPhJN4O/2FZSxPFZh2W7TTGb9wGnO6/OV8GCZ8ziZUIpG9Pt8K9+db4GBRpo7fErMK4M58G9yfb4K5fC4FxupZY1U9qs8F0V6zrroCHix0wO29LfDgHa6e/fFMj/KMPL+9l9RJzycZmVmwsL0GHrzTBz8uc/u5H5eH4Mv5RjhYgYA4mlswwLPiE05PY/rHAuDVvdvPxubicpWO5nZ1MHuf2XsW2i7dgaYPPoWO608UiRhR0Y7c/lJ5Rp6TX+sfbkPpeL9JuXkQmLkM229HVKYRKWDftU8go1rcyGjrkd1/Cjo/5uUqZd9/Cq0fXIXs9nahvITAHmj6w21oUep0n9V1/OHTyDO1rs1/uA11Rw+Zgr641B64FjGkv7l82EkB+X0AACAASURBVHIj2znVCD/eHocfbw/ByVZjPiES6IuXhuHHlTH4/lqnYCOXW5MHZ9/rgr/cn4X/foZs6p7th7+thOG9ISd2lM4BXmJZMXx9awx+XBmC93r0c7ivqRz+pLwfgKOtxtK1/KYS+Pr2LtH+79leePx+HWSg8aHtS/4/AItU7Xn3oqtoDjndZ9hadmy8Ueh/nr/xOIvuvQR460BkscOy8kqB/KLrMDEvt3nEpbzNwBl2jrBysjBPw50raF5r4WTRhoyFD/QUR0W3tOYgXFRsew7C5a96IcHRQHYO8Eg/YCmVU+eGWWaXZmw8b/eelDs53BEBSSMwn50BQ0P0v7kErzBQIkjcsNRPuT+/HQ7mi9JZXs4oYCncW958DUgchR+XO5jDSVZFJQNxPyxug3SmcsxAalQKTEbgSIFYrlsex9/3djWysp2Gtymq5upUI+CD32NpLe+rUTC2Q+T8pAWcs7sMnFY04XnUPhrROFl44YaBN6u2P+9uD+jGDQZ4VxryIC7JC0UZGVCU7s4Ie/UAzw9H/0ild9NQEcNwHtWn/4iAkgjQCNjCv94P5nU0iksbhc7bqqoUf4vvy8Y7dem2xHuh7g82ZWts6zJ6PxLqg8vQ3T+4Yaq2zWw6wkDE5UVre+XGmS4GdH65amxuk1hWBv+HOkQIThBeePLNYZbe0Gni+QL8x8mgAX3wOuYc4NVMtrPy7u3W8zR+/+Wc3kt094k+lt6ovi++GoQ+B86GI+99GaGxO0lcQuEO+DSipnUn/cP0cnMvAZ4N87khprNvNxLgbfG0wcGGW3CmaQXObFuBmzupNO5vOrsptlB6gjAZvAEn627Asaob8OkMTfMPuNp4E46F1Hcn62/BfGFvjOkZG3XD4I0ZJiHYucupRxlfkK1s8CidkpA0iki4OJAx54vJsQgYM5Ew2b0nhul0MadOCiyNiYpWC8iIEf/p5iKYqiuFuyeo9ykBXJ1Qh7yCcb4cwKbDuSP6WIEEwFBvTwwkcJy0wb4WVnfaBnI1AlWUxq6vCcjL+XyvID00ywvX16guZu/HGdAeBU4f3Pecn/5yYQSWyrjEpCA/H5ZHa+DD/ipY3sElsD8stsOZ/irFwUJxshiq1DhZcID3w6lu+Gi0Gg7VB2CqrhguH8A2mXrgjNuB6U/uieTwgwZn42S1AK98fycbm0tX62I6fyRX7YXgwodQPncaqo6tMAA18MlnyrPK+Q+A/rLbmzVlb4MOAdx9CZV7j0BWzxw0fPCI5UXAV2YZl+QSvkosfwdGEYBsOHYGcnomIG9oAUKLK6qzxwPReSLePwAVSn1OQ/ncZZT+S6icO83qSepbPL5DU1fOZ017uDH/vE1IDqIa/+lZBKQ9G4NmAy3OxIlBBopEsMYB3ouvdsGj5TZY2hOEQ3tq4MGt3SzNfz8/DGfajKVp6hh0DvCqR1tZvkYAz+p940wHS0vA3d9XtsPSdBCOv9MG/y918ni+AP+6bW+z2P32HQaiD7iIJxeXFmZ2eLdWzroKtWI2X1k/b4APWWiX9SiP86FZvaSK1pF0yZ6QZgTGz/vraJgUC4CnqQ9Og9VtON/Y3efBsYiRKLFbiMaeJLG8FM5HpHdXng1CGpMg2dGQL8hOAB5RZVxAgZFPFYuTvhFNGGiKCuDx+v3lQg/0JquqT5anCVjC9oJPdlXqgOg709zbFasajfLFdmWfdBTDhbcjYA+1BwMJaoSPQea3M1Wwe4CDGiNQZUQ7p8/GUN53B/S7em0+uL5GdTF7j58bSQuJtyn2cjbKW6lLQhaTrmJArK0n/T/cUgb7SjhYpM/JFavOH4+LWgNcXy3Ao/+fH6zR8QfOn9yvDuD54PBTKr2bg5oKZ2p0bR2c/I9LcmeDlzN+g4G4oY8/gq2ayP8541zi1veHdwTAldFzjqWtGG8V3il1TQyCt97gOZtrvdD8sSo5dGuD1/0OdwJwAj7euzrLgM/HI1qVKgJfz/fCwRJxTps9tA2Ob9emUefV3SeHWL6//MHKlhSVYeNkYQXgCF3N3/vh+z9yaeODedEmlwDdx19GHD1sAWkKYBDthMaMP7E9+Zo7PXih//BnDIiSIMvr49hhva5KgMcGuTWhGNOs4nseB885wIsmTfR15SJmEv+uNs298TWOrbVnQTTwt64XB1DOAF4KYHXk94dq9BO7pq8YaEKACNfJ6j1WP37SyidZlsYA4OGQFn+50C1I6Fi5Cdwr8vuj3JaO5zsCKnjlYVl+ONUEnvh0HhgatQcDCaoqZFK/89shnJgG41SSqamzJyEFnP4SklK43R+is7bNdrEKcX2NQJjZe2yj+JfzvTqbP22YGKO8SR+sDjBp5owE8xAmVNX8dKEVLoQrYX9TCRztr9XF8KN9xvgD0Xa19S2YamHSu3M31tYmyZ0XLfdiJRI6f5kR8Mxjnq7jD+8KANDbzgFe+ZBdOCZNnyn05eUTL1o3ThZYujTjIJhtcbiBAbH/vCb2QXJNBXv37wc9Dk1b1PbEpRQwyZiZ+lflqbUHeCUjLawd/7rbYTgv42/+vGRtB+pv43bhrgDeGjs9xKW2wMmr9+DDizc1J1fch75qvkaYjeX1eC4BnmYCXUuiRwPWokkTfRtWB/A82QUotta4y9ha7gEesb3hp1/Yh+dgoAkBIkwrs/dxaRyEiXZtKcDSaMASyfetzELBXu5Pi33qSQnktAT0oxIc7DCC8z1ekAnc5oy2E7UdtQcDIgIWKLAgZXzWoaoBcd4U+Jh5BtO6GV2pmhrTkNzzuvIytd/Q/7i+tC70Hbmav0ftJ/Zz57fDB22lMEvUpfN6GzujvEn+0QC8rWlZsDBYCw/f3Q7/cWYQ/uNUv9Kff0ZOF1R6ytqSkA4hn5G9nRfexWFvLoiOMSx9ZJ6Kpr5qHl6YQ2GLOlpiZ3uprSP57wrgeZp5HLqIU0bvp19Av+Y3SGPVPfwSUjL55hMDPAIQW5bOQ1bzdtjqd6b23hK/fgBvSzySbn07Ab2J3AlqZmmUAaMvD4oSYErj5MJc+OBMD/zl4axyKsU/vtoDv321B/4PcrrYaIDXc6ibtYOoZ397tFupI6kn/+1j31jXNwVeVYBHQrHQkyr49REM174a4I7wjAR4EuChHdbqVLRCbK1TolieTlDmV75gO5XgkbywN+W3M9YGxgzYIECE62P8Ph1O00C458MwlyUu0oItmCauHAZXRgBJ++zH5VYW/4/V5cIIrOxsZECRq/44vbATAQZET+a2waOIxy8GpjxvboPntq6k7tpj5CgtsUqY9KVVrEJcXyMQZvU+MbOAqVe1tNT+N8qb1NctYNrZxx1JtGXg/07UvZReW1CoFmxPyd6jOcptfWke2QP1THp36YHoUUq/ieXVDcDDQZF1Dg7Ito6/ewqpCOBtid8G7ZEwJ/wb7tTRvPQexGtUvmJbVwHwXKpoSbmHl3cycPPZTuoZ7IUnT6jachp25eqlmPMnB1g6I6cF+uyXC/VoTtdKLNdegnfsksZrljqNmFz/08ThhPbRK6uiTSyF8K4DsHPXAThy7nMB7NnZY9K2rfVVAjw0ea41saORxkWTJvp2RO9kIcbWmogithYHLG4A3pZ4H9yOgBi7xZEFDnYB8LD0jizgt3c1wM3djez3+AwPtksM7z/d2wwfNOQqEywGJz8sNsNMjXpWKjkvVf8rhpkgD0WAQRgFDmJgZ04v3G5cJk1HjtzCwYfxaSAU+MSlZcHRfjHwrjYQr/C/vwr2mYQEIfyHbQ9pGUZ8ietr9J3d+7gkP/xhb7vGgWQIrnQVw97hiK3h+TDsztIvmKQ+bgATdrIhtP1hsRM+7Cpl/bqno4bVQyfBs5ln9u/itphGdKC0c1NfmoZcp+7vZwCv31HYIi0wcPc/eoD3JRT0T0Nu/5zpL79/Uq9G9QShYuEmcCkfB3gK6Lt/S1DrYtqsRoKHwYfTRT2zo4YBtX/dVJ1N0ppC/JmB40FaU5C9J0Du3492wM1jdfDOrko4uoc4L9h76KptXnuAd3h5itX1l6vtygkapI6Gv/0hmOm2jmWK1eBuVLTr7WTRdoA73Lg9eUPkR3djzSqtBHg2E68V8dy+iwasRZPGbb3w99GGSRFja0VzXBUHLO4AXgq0tG9jC6uV5IQ5ABhI4ggNGKhCAFAL8DhooqFG9Fcq2cJ2Ylzy5mzw4jAptMyz6FQRvNCbhUmh6XCYFVGtrff2xLywmnsMhojNoFngan8pj/eHbRtp2VkV/Bg0K+CzJSFdOa3Dm8yBHHPCQV7GNF96xXS0A2VYWnt3wMC+FDls2OVFy6dXxnsGqn76Dbm6qS9Nl9YcYmGLLn3hzrYrv6oV6pu72K+0kG9CaP5GVyyVswt0TBwytj9QAZlbJwejshNyGyGz4wA0/kH0vg3tDptItrgEz235bsKk8Loiad23UzCYlAazHxpJ9fhcsR+9//NSSNeOuJR81zZ4JExJoYUTHLYXNFIZYzs67GWLHT4+0zmS8DZxelg/Y2FS7j12FbB43cOk4KPV1sVr15puhL4S4EmAJ0wW0QU6xrG1ZqKMrRU9wBNVXPqju+hEYi0NQl65COBtSfDDrRN98M27vYY/MXDxkGKL9VmfGjMKL8ZERWoGcmj98BWDQwLUtIAB28yZBzoeBWLXh0950DlBmAZ0tp88cH2N7plq2+JYNAygtW0keY5TKZwN8NGWLwbDbhJogL/FfWRUPv6WgbDz2w3DHOEzee3ywvluic+AldP0hBFR2ip+Fx3AG70VTdgi0v95cDIS9oHaGN1weJoABm1D187qJW7CvMsB1rjGvk7bfrf/s4a49635kWl50HSNxt8THTjsynMT6BjntfvkCJNy3dod5KdLaOzyaBqu1p01VN/WTPKQJnY2bddXDkTKnoZxL7cBpGXRa0JhkSVo3P8htxnEAA971/7yh9WG4kGBjj//SAY6FsaN/RwtAZ5LglHmj+YqSOMiYTbs8hHSpJkPRrt8HL9P6oDLkcjstxweVYZja529ZmX/YcWQqwB4SogKHuftkUl4DrwAi1KtFEjIK2ZSQGzTZkc37JGqP4KKt4mAtCst5sa3NQXZEEBx8ATQemEU7jSqal+1Pl64gkLEWB1V9v0h0S5xEgEmyyO8YjAutLEK2WkbKG8M8LCdoNJOj5/ZEBL6WUrwUJ4ElHPANAp3u/VBWmm/RgXwNCpvNS+fEEhaBHjp0FWUZeh1TNIOdiO7PhPwGE19SRoctujy0zAkW0hsaBn8ip2u1EPU7YL58rQItN2/ZRoomH5fcewhC3XSsXRY2HTSb8g1obAXknJE54m41DKINzluLbH8BItxZw7wUqD8KC3/KWQUuplnozNrIR6zLKAxsk3TetbStnOAtx8WG7RhevzIfm8B7AAeVqHqQ7XwORoDvBeP+jQnT2TDTygUCgZ45AQMHutuL7zToD+hRm1XOgz1FWjy5eWTb1ZzVNmeK+q5sPKoMjw5rtH9RgUc3qhyCXMGMkah1a/+Qumj8E7nr+xki8WiMajJpO97IDtBZGw6sNcd4MWnwBCLHP4NDCG1IK2TePUKsbW21YpOCOK3xm1Uv+FgyK2KlqQX456JR1PROmC1IQl+e6U9AOkJ6dAdKheN9bEEz2Y8MKmOCQDBUkMCUj6fqIKOTB94EtKhyJ8Ju1or4eG76nFZ+KQGUmdmM6h4iYbhRGUO5Kf74ASKnUdChIxogL+2zE+6iyEvyQsjHXUcxFpI1Si9Vn9FUtELI3DcMFYhPlJsFL6YDkJ1SioUZOfDyntUqqWqwbUAT5VijsDKeBVMludCvd8Hw40VYl9e6GYxC43a4wrgoeDKP55ph92BTAW0lRTkw+enxLpigEdALJH0/nimD64OB2EmmAsNOX7oKivQBEgeBaOYfrjebupL0vVemWS2d7PzhabACZfB71cD8PJYbDliA9dz6QJktQyCt34MfC1jsFUD0ojN3iByqCDfZ1RVw1uJXiAqV3/vYaZy7Vk6ILSj4t3HCjhsfPdDxXvWk5YHcYl54G1+B/qY5+23UNytV23SthbP32MAc/T2XSjonwRv3aBS19Ry6zAehX0fMgP7k9P2gXvVMr3w+YODTIpHHSSuh/FGjs+Xh5GK9r+fjsJCd64SRiXUWQp/ZjHl1OPL7ABe0z5ur/ffz/fC7YUQHCI2cvtDMNGCwSPy+H2+AD9daYb67DQoby6FbzVlYoBH2scBKanTfrh9vAbKs72QlJUBzc0FypFr/88TEitvvy7eH+0Tcu0/weMMjteJwB5/p70nHq4fR06xWL+YdHy83FrzuHucN7Rtx/+lBM9mAcfEcnWfeFA4R5YeL2Z2vVBsfHQNBng7HRzr4qqOJm1PrdrHJqxLR62P38kbbWYLyPJK9GfXYtswHC7ETXsw2MJBg3keXiE4MgFchj8Lmy2elzrAcJlaAEK/3Y2kZoblReqhBXjEgeQTDcjRpjc+pisFDk1yo31tGvLfLMQJrXOsrhhsmsUqxLZtRnWlz7T0tfX8PR/WHQGnbReWIGJQpv2O/Mff0jqZXXFeTtMRRxwrj2OlDknmsfa0dd4aKIZzLOj4sKWkRJtW/Y+96t1K8FIgs/cSA01a71YtSCPlZaKAxdrv8X9t2spF0dYOf8vu75sfN0bKjs/aIwBMlo6ATs0xZ3paNcC5CJhws7APvBMWAd6zEeNYmYrkkqtLKRg0u9oBvC3xmVwljKSHJL//77oYmw/b/pmVR55rAR6Zz+/ep6pgdG6upjxLgIdt2lwCpvpp7vAwF+WRm/p+tgNVAThOz811qU52X5ZdXdT3EuCZgJxVEzxhN3w6x48ZMwN29PnpAuPdZXfVtxGpn/PgyKuuezxWO9yGoKmdlhhbq7NbjLzurh5cgkdOipjIy4KOghwIpfN4V3b54YVU9Djlg4F4XWolQ2SR/mJnNcwPNquAz0AqZlY2doY4W4l3v7xMkra2ohSwxy0GBuSg+nszddCbYaQayoDzh/Vx3Yga+Wy1tcH77oEmQwB7d9DAQWCtxgGJVbhEpVtm9mVeODHdqavr90ebYLaRO1lojyR7y5sHj05zL2ZM0z+90wQDhvQU+2VLQhZ8cV4F+k5Ab2J2vmGZPy73wNu1xUylLDj7JPjhkxOqlBbXkd8PwY1wqeUpFhmZmdBR4IeuygpGJwwijfiz7dwOtvk6tOg2bBGhUx4c+YiquVSAZ7fh09Yjs+dd6Pz4CxhBkjQCnpoWdglSOJpua2AntF57YgoMuy59DP460YnLHz4LPZ+ap2k5fQYSHQRtTwjsguZLX+g8cYc+tg9+3IzO8J5wKGnCKlACkn5atg7W7msqgb8qUi8NYHo2CR9Mh5jK1DpMCuV/L1y8xO0AKXjT28x54dJHkyIQJV68Dwfg6H5u98fDvdD81ev8iS5DVbRS3tMZePx+A5QaHNlG+KFk8AITNCwMiX1O+cX4WgJL1Hb07kXIXLO5TWwrAbU7zz1hdT45F4ZEy/A82vSx/y8B3rp1fuw7z5i5Y1NORi0/RPuD+e2Gk7G/F8fWMjoE3E1dMMDjkjXqkeq0rft38TNB9RIxXp+aQC6MBfNhrDzXFYh0Wg+z74qzs9Vyg/kwWJYLIZ+zgLMk3VQoAGPBQpgK5kIettez4OGtGZkwHipUypwKFUD9OkmBcfvLa3j4kG9nzIFGAaNNHnRkOd8seL0+ZTMwFMwH0kY3aXE93dyX5NN+zIOOXGd1jUvyKmr5rqII7xEeKMyyBHZqnbxw7UM9kLUCeHEpeXAqIr27+nwH5KY43yi5ocNafevJaQF/+4Ty8zUPQkphlY2jRgoQW7yUqkHwNdN0201t82Jeb2S7TFSCWy3G5GrLDnUVwJ7xctgzXgoDzdabvNWWRdOXN+WzMsN1Vmfd8jmWpiXHSnb1FsPcrgqlzuN9hVAesJn3PCE4FZGGEVtwNyCtZICrzA/3W6vXeR2N6u3+GQal1DGJXJ2cchLrupD8JMBbw4G4Fh22fnl6Ycf7D9TdyN2Lht5LO27z2FqDq46tJToOUOmGnU2Slh7k9Aia9sf3zcNzaNPJ/+4nM+c088H98xGAcj6ssxl0ns9a1vFVzjsdLhwZYHxN+VuQEmrmsbp3B5j0bnF5fRe5N7U/q8YiwOLeY+gO8HA9byo9VtNuHM1hptX+TGteVh4cjEidP7t6AlJcORXFYg7Ig/ET/ExaCvIO95cbCkl4vWNRtj4PCfA0E+NaE3wz5Z9c6If85lzIrTXzktIz3Hq0Pz8zUzFiNz4aamPqtB7tfpXL2JqWofRJvT/D1Jv0Va7/61Y3T3aGMjbzm7Nha7Lk+det/2R9X2+ejUv0Q2ZhDVRUt0J1TSOkbJCqVgI8CfA2ZGchJ7DXewKT/Sf7T/KA5AHJA682D0iAJwGeBHiSByQPSB6QPCB5QPLAJuMBCfA2WYfKHdWrvaOS/SP7R/KA5AHJA5IH1oMHJMCTAE/u2iQPSB6QPCB5QPKA5IFNxgMS4G2yDl2PXYEsQ+4+JQ9IHpA8IHlA8sCrzQMS4EmAJ3dtkgckD0gekDwgeUDywCbjAQnwNlmHyh3Vq72jkv0j+0fygOQByQOSB9aDByTAizHAy8orBfJbj86TZchJQvKA5AHJA5IHJA9IHjDiAQnwJMCTYDTGPGA00OQzOQFLHpA8IHlA8sB68oAEeDFe3KUETw7g9RzAsizJb5IHJA9IHpA8YMQDEuBJgCcleDHmAaOBJp/JCVjygOQByQOSB9aTByTAi/HiLiV4cgCv5wCWZUl+kzwgeUDygOQBIx6QAE8CPCnBizEPGA00+UxOwJIHJA9IHpA8sJ48IAFejBd3KcGTA3g9B7As6zXmN08I3v3kKazc/waun90tN1oxnovl2HiNx8ZrzAsJgSn4+N43yrg+NlS9oeNaArwYM5IEeC4nlYRc+CI8Ct8PjsLDqqINHQyv2oKQ1nQfdtx5CeM3/4f9dqy8hJa5dzYBnXwQn1qk/JzRPfJ9is+i7QGoXfwVwpf+Da0LyxbfueRROkckTUDHpX/D0PUX0DRzcNX5N+35WFkECMCbbAmsOj9ndIym7T7w1i5AIPwhFPQtQX7nEUgva4x5fUv2/QKTK78zXid8P3HndyhprbMsKy79MAysiONk7Ob/wsilLyCe9p3JNS7Cg5QXza5bEqOhm0wTC55MqbsC/Vf+Af1XfoPsUr8lL8SivNXl4Yd9V9RN28r921CVnrqh9ZUAz2TgR9vJbzzAS/DD/qJyOFZcAaPpGbbMnZheAb9O7FZ+3zVX2n4fbb+8jul8XX+EqTsvdb/eo4uvPZ3yJ39h7Qp2Wi/gpO8y+/5s/72nGrpv/q/y3cTNP9ku7iTfxMB+KBq+CEXDJ8Bjs4jHZx2DsUh/9K+2D5I64PJ9dZf/2dWjsNXFPJSRnKuMr2NFJVC7dW0XkIy2mzC0oudBwpeTKy+gvHcwZrwYPPZ/WR9jvg92NlmWEe8/BRMG42Ti5lNLHohL5/2JyzO6X3V/u+jf13GuWss6+7q/YnxhxwtrWQ8neWfUHmGbtg/muy351kl+q/1GArwYD7w3HeAF/NsYYPu6ssCWwRvym9n3nxbn2H6/WoZ/ndK/lRmGgt7jisQkMPI1m+Q2A8DDk3bnvL1EsvLIv1j7TSd5BPAmbzkDeBxU/A4ZmdZgiQCC0QiQWG0f1E9fYQvBgZ5iV3y/q26MjZlFv/0mKlqeD+ziINwI9JBn4cX3XdXdqi7JZfshv+s45LYdgCon/U3nbk815HQdV9LmtF2EoUgfOQF4tD/N2kefD8awnVY0kO/0Uk+80a3qbY4Zv8We1l6YvUCld49gW1bahtdVAjw6ScTo+qYDvPHKXrb4XMq1F6fvqRtSv5+cgKO+tVusYj+Y9RPRWpYRl3w4ZuBiLevpNO+t5VeY1KVnwR7gBY9RgPcCfDlmE6cPiibvQM3cYygJ73U0uZYzIPFiHQFeCSzeUqV3K/c+hmKPNbAUaZoOV3t3RcZYGEaTzGixOv7M3C5KjwfPPoH0ghDEp1ZDanABQkdU8LdWwCetOVqpTQA6rlMprr0EjwK88Ss/QMXER1Ax9anuV7nrLhS09jriJ7GvVtcHMi+Vfp7CBaiZfwihuU8hxedmrKwv/eNzd8CnEdu7m8uHXwl+kQAvRsCODsY3HeCdapuILD6DMJpot/h44ZN+vliF0fcJMe4X2j+v6zWW0qNXgQZYPTZ+6Qt4y6q/PdXQFVm0p+78E9JSYzfJlx3kwDHVRkVr3gc+2JJoZRsoLjRptQeZ9O7a4pjLhSALnu5UTRp+CTfC2oyTLui7xdWyPUeN7RmTyo9BTpO1+jRaXstojxLgeaqjAnhONhnRtkWmE/l/s9ID29Qe6Cl3Oa7XhkYS4FktLFG822iAl5FeCk+6euFxRzsczsqFY1Vt8PMOdUEgtm4/9XfAjDfdkPlKvQXwfnUzPNk+yqRwin3cjgl43FgLPSl6wFaWXaWU96ilEx619sDPEXs6ku67zk5Qnrd0wuOO7XCttFAs15PLF6u+RujJLIFH23fwsneMwaeVJTFfxPzbH0DP8t+h++wTJe+svjvQf/1/mAqQGHp3Ln4OiSl6IOHvugm9V/i3RIWz8+Y/oax3SmxbhHdoWZ1LjyC9bD80n/03k1yRtNvPPoFkg3K0k6A5uDCYGDzVkNV1EZpO/gojEZs0qmoau/4PqJ87Z2tvtiW+Acpmn8GwJv3Ild+gesrcXo0s+u3LYhuJrVbD3BkNiGtg9nI7r3FJS0JOGDJq9yi/5OyI0w0CeFq1W0LgFLQs/QwtJ7/nv8WfoHbmXcP+2BLfBfWLv0LX2Z+hbelXxYmF0qZ/mTyjv18V/khCoA/3AVErJ5d/AN2X/s34huTTtrBsafdF+rX98B0G8IbK7aXcU2Ut8LijVx1LHRGJNxlnk9PwmIy7yO9JZycc9TsHmloeo/8xuJpc+ZurXDwALAAAIABJREFU8ReX2g2BkTvQsfwPIA5BlLbkOnjpN6gcmTfpF5GPcR1MVfJG83OUAM+5yt0HVQs/QffZv0P38s/gKzTqv4DyTdfZv0PP8s+CY8Cq5wNPPzQuEf79O1QNDcGWxDDUHv1VoPXo9d+gtE9vGxmXFoYa8q3GXrFr8XPrOchTDaUGc8HOmy+g5ehD8JXVmvZpdt8d3Xw5sfI7dC99CwVt+jqqPOhTymvFY/rk99C+9K0JvUXeydn+AAYi89bOyHWHCU1IeWQOaTv7q9Kf2WW1kDvwNUtP+JbMX1XDu0zbqNbZDwc/iqhnP//IpVRerD8dh7G4SoBnNEms4tlGA7y+0i4OkBDYoo4MytVIHZpQKIAz4XuWzwjMpIvgcL6BSuw4iDROuxt+aQ0KgyQutcy+rhO74evK2HoYYnVfy+J/CYsQXpAEew9PNdSdFhdz/C25N5J08LLExU5M+08LtaM6+DG4sFuMsM2KWA6vw+St3yDFRBK2tfwDZsdkll6gTWS8FO76qyktST47rz8HDpgC0HZFVaVN3fmNPa8/S5+9BKr+w20fPntd4CFfN3e+wHU1s8EzM8jHafG9D9nl4Xrgb7T3Y+duCXUUJ2q0ENx3Yqfjhfs7ph2NEzLu7hat3o6Vq61fQrcD9TluH7dp5Lympc/w2VsasK9f4NYb4LmR4BUi20TizOPRrBcFyIGIAGTO8ymw2vlAcPQ5+73iPaylL/mv5f/UuhvMQcjo+6k7LwQgyvo0aQK2a4C6Nv3gopHTlw8a0FjWpjGqIyszvgF6kQQZpzWad3i6ANQsup+jncyXpA6NU9Pm4xo5Td268T6kePQ8zeu5fu8kwNMMztV2wkYDvCON3ABbAVo7BuFaeTnsL6qBHyKqHfL8l/aQwKw+X426iExOw/POdrhcUQn784rhWHmTkO67baLouT6nHK5X18FyZTWs9FF16274rq0Jlitr4HJVnfoL1cH+TFG6UJbDHTKUuk5Ow8PaECwUVcGT8BRf1EbaoDCGAwYvYHTymLj5T6ibuws1B59BOKIOxJNJtWbiaF24C7ltx6Hq4E8CqGmcGBLoqi/rBQSHT0Ben+idiKVYRjyIwYUbgNd79jlUTl5SDNDLZ74WJvmxZREskXJJyAlql6TS5gXUzvD0/RHaaKUqWput8NknUNh1HIonvxbyG37/CqMPpw21f+uCXiQxpNI6q7bH5x6GuoXHUH/wMdQefMbaZ0pPTzUUTz2A0L6HUDn1QFggm+YfQnD2ofKOvA/NXYIEEwke5Zvh5SdQ2PshNGrAf65ZOIekDrgQ8Z69tXIWvA7mn6niamUMLZfXwZ/oGFbGSj0sV0TGV1UdXK+uhsZVe9UGoHGZg2wnHs6YXynAI1KPtmOPoWT4NOR3LUHNkV8EybV2nOA8yP16A7yR5SeQ07igjBPi6IF/Bb1HNNJ8H9QucY/fnne4owm2LZ268zv4C0WtB+d5CoDdzQd4LFAeJNe+pW8V3m1Z+i+FzhjgxeeeFaR2RJpVNnAaCvquQjfbZL2Eqdt6aS32dicgkMwFZN4rGr4JrWf/ocx9dCOG+1Ckw0sg8yUJr1M4cBHqmRTRzBGK2NJ+DQ0Lj6F2/jG0nuWgTTvv4DLFur6E9qOfK6F96o6Jm/jaYXGOxrxGadq2cNcRfWj5Gcjs4rJrs4u1A3wS4DmYYGknOrluLMDzwicDHGT9Em4TwigIEjMtaErww+FAEZQk6NWScUmFDOQRux+zRam5uIOBsku5mWwhN6PbrhBSN+0Ii6pjTy5fzAbXFuB1LyzrJArZfRchPUdtgydwAS1OLyA7KHo9bi2/wICFdpIUJ/QXwoQflzQLYbQ7LqwpMaUZntjtAF58zn6omDptqIaNS94Pg0xFo7dnw/UVJW50EvJByewzCDSh0CaefmGXXxXWqDOSJpAN3Uug4Cd/kkv8ckvTIS79FKejUscXQOziUpHBPQbder7yOba/ommjtcEjC0H7vKgGxp6+ZgAm3h9mQVCdAjxaV3I92z4ZGWNObFxpn7m4InW4EUDBdTG69zZ9YOrgklJ3m42j8SvWdpd40bVa1HV1iFJFSxd2s6uO7xJEyVawtx6I+h/bLlaH+3TjGY8vApgwAHQyH+B5QK3rPyG7TJyP4v2zUBTmqnABjB7VznU+Qeql5VsucdSDVUL7+JxJSC+r0bUTe8nXDuvpEJfUAL6aAV06XX/Gi+PfnBdE2tdoQFwBmmvoxpGWhXmN0LRMCMvTYDh30bT0mtN9kpldSIAXY1BFiWx0XW/Atd7lCW1OyGdA7NeJMTjs9WoGkOjU4NwDzwf3hlQ10S/hZlNp2qkWqq4dgd2poipXqKfS/9gbcDd8VKC1ZUF1HWmDEleehtYLGp5k7RYaUm/8fZNGQkfbhb/BQA0/N1J3ZY9wkGMF3PDEbvUdrY/VldeJSs5Ueongz3hCN8o3HRnEG0kFSRr8TfPMnMKXeGKtaCsVgBxdaAPBdOF5qVXQWxeLO22HGS3oe3zFfYDVyvQbshGg9k1m4UOIHdQ1Gv/u2rsuVTlZ8MVYRF0b400PbcMWREMCQOxCx7B0juZ05x6umDfMF3WDcY7qr13ItXUV+5NK1IyvRnUQpVQvoO8St80NLxo7pnB+M1Z/280H2jqXNJpvCkl7RYn8b4b2lHHJPB7g+CXRvIDX93fwm3qv6/sB91/NgB7gafvC6j/Oy6gfSNrEqhts82Asvec2v1q+xvlr20/yxn2iA/oRvs9u5wDv/IKZbaGeTlbtjsU7KcFzNDE575iNBHi+jBCToP3SXqUBd6QNCDSNd+vUOYHUXHi/uhWebx+Fn0d2wk+D6gkT3w9zqaB5MGIfrAxGFp+RDntA5uHegL+OdwqSRoWxE7nU8K+tsQ2AzCetl2C0y9YOLLwDJlKNwSsvlNMMyIkG9IedGbBaC5eFn9My4nO51MrKDghP7M4Ank9xtGg9Sxwt1JMw1LryRUg70ZEyaCDf8Uv3dFJNWmftNXtEtIMzos8QcmKh9Sf2cLS8qr4+CMz+p6LyGb30M1MdNU5MA7d5sgEcLhZ32gbePzZ5K4slj4NnBB5wH7XNGZ90sRqAF5dUxOxkYz0mKD1iAfCIdCYw8gA6l/8dOZVCHSd4jBgvwnyexYuu2aLO6ozncBc8gPtrYOk6JGZug6SCbsOfmZc3lkLTTcnkyo+GQIrUl/PbS4hmPsB1JuVo7f+0NMGbDlK/EYO5i8wLNFC0tl9wfcnct23+GmRUDoAnVTS30ZaL+4+U27VIVOBTkJDp/rQinJcZL2CJIZ1ftHXCbcH54PyN0uL3JVhzgfhOAry8UiDgR0v0tf6/3oBrvcvD9GsOcBXpRwXZBrTmkrhfsQQgIQs+bhtm4FCxh2OOFaLzxNdBE4cHBMi09n24jvQ+LrnUcrFiNoETu+FxtUmZaIDRfJ1c8UAvttkBE29SejoCncDtrnjy4GW9gEyDHTAGOSMWxvl4YjeahHC74/2HIYxs2czrK4IaYqtDAZcV2MRlkXuuxjGWfmjLp6cCEOkCDUpL1OTbzqp2TW1z70BFJHxJePEylO2jNjTcGUNbB+W/i8Wdpsf9Yyetwn0wsKSX0OD3Zn20GhVtUXY9G6MPy+2DiNM2urquUkWb0X6HSTG1/Y7/a4GEto54UcXjSfud7r8LHsD91b0gqtt1+VrMNS3Yju3OS8jR2N3hvDC/RTMf4Do70T44dSCgfYNt90i98ZxAv6FXYmdZM3XCYJ0hQL1LUG3SNPTaufiZYN+KaaS9d8IL+BuyWdTmQf5z2hNwzcP74LRGG378HqfDZWCAJ1W0FoMFEy0W9+sNuNa7PEyj+Xpq0zYGu9P0KlIsAfh1kKpakVRPAXVjcLemFt4rLoP9+cUwm1MMK2EuwfsoX6tKVXfdbgFZIIs7WDwsy9cNyEHkDWwMVvluH9PAyT0f6C/Aa+JJyvIRFryXUDNBjJOXTH9FA6chJZPbH+KyjABEfB6377Na9PDEbgYe1Dprvdd+h/ajj6AwUmdi8N7JFiQR4GE1h5sFj7eReBJ/phjVm9GoMPwhZFZGwiog2vYtPWGglKhrMyLHtBGD8I5lVepoJDVj/UTmFBeLO03H6y7Sgr7HV7s+sHuv5BWFkwWtw3hlWAV4k9NwLmIfSt/F7urTOFnwhdC2jIQJGGD2nWp4ibq5j9BYucocbuz60smialgfFzzgqL9s16ou3QYwaHHagh2/2c0HuM5ONmGYjuNXnivOI2Zjs6D3Q8gzCF1CbHq14Z0oUCNXrWc775cGCB78SQjhgtNpPYx5OnFux20wA1j4m0qTow/LDtKNojnAM5Kq4rxNy5dOFlKCZ8bAsXmOgVoYwgYR7rGE77ta1TA34I94zxLP2nCbTm27JT4dPmaR842BI6m/W0A2FRxgi9WZbL24/3gT9QY2LzMutRTqm7vQr8nRmZ52k6zYHwFouUS9ClWjf/G9OBlp3/GyXkKFgf0YtpGxAm44PILVxI7zMwuFgh0LMOjEaY0kVNq20f+BWX6klZ1NEE2jXgkY5d6I6uSvAi2t5x95Z2bXxvJ0sbjTNLx/7ME+XlyN+sruvVqm2zAplL/S4UIXdbAYgZ0GMSlpm/RXPwSFcdIFfouNDacJsRNzLtnCp0+MLN8ziAfoY6Fx7AAeVrkZjRt9GyN0QpsGqw0TSe+svyj9ja+hk1r+JVJsY2k9KRPT1qhdeAxGz2O8ril195mXf+f8Id1G2pSOhsDWB4mFYcgP34TtLPC4KrXPD2ZZ5p2Q0w3+tg8Ej1gyppusQo9E6uAIYCE7YLOjDzHtMQi3y9/uvUJDGSZFAjx3g4kPUkfpsIOFoQ0cAoCT03AmSwVV7Kiwid1wLkcPtBK9QaYW+tUwX7WeRxrsARlvB1msqFRw0GCx8gr2fGYHqud0n2GeSysRw/UWB+f/8YFuL7UhdebfG4M03i59n+G0RpMZnjyo6tIoP+JhR6UjVqoZsmhZq1mxV5jYfpyWnBiRjEKEGNWJPsNtMJtc6bfaK6YPmfBZXDGNZy55Z5t3FACveB8Hp0UWXsyk3naAwO49bbvbQMdqOhPzCsOFWOTDeP8wO0KJjpPD/WK4I1o3ck1r4qBAcSZxGKII8wGRwuI8yT3epNgBPCxNNrNn1Oav/scSSGsedtpfxuWkQNYAtz2duPEDVCFeYnys6R/M79HMB27rTL6n8wGZN+I19TFrm5PnIRQ6ykyyZZQPppvVnEfTYr4yK0fYXBiauuCNOvfkJ2XY5W/3Xq1nHhyRgY71g5524lpd11tlut7lUbolpiMgNjkN2kPImwOtHKgx9WwK7KpGkrQI6KN5bknIgnthHmTV3LYOh2cJQ3eiPtQKy1OZYGy8ARO4g8UvXbWmBsvY7kFduJwEjsWATQQ4Yh35IomlCWYTN0lLovh7KxuFhQ1P6GQREI2i8WJk4/CBJBNW4AtP6ENLl4W6kDriyVXrZLEl3gfbUAw0HN8L08ZTOAspSEWIHUVInjj0A063JT6ghEbABuva+HlccqiX7hmpT4T8EcCzk97QdNi71yicA/2OXO0WV7v3NK+ojirDNq7dJCQH50+7e+zYQQGe9VFKotpxwICPSJlpdR9AYSc/oxUvhEa0xIDADuBhPrY9yk5DCzzmrGxscX9ZScWN6Kt1XlAlWOJ43r7I4+PRPHDdopkPcJ2NJHy0HH7FG7qXUGUQuoV+mxrcowutlJC5zdTZCsed0wKvuNRq8KQY8+jWcu7x6gTg4TFqJPUk9ScbYB7+6XcgYZdou8gVbxi0mxbMt9p2kLR272k5TXs+ZQIH6/FlTBeaTyyv0otWMzmslrgbBfAaChCAI7Z0I90w48uEwqRMOFDWxsGdIqnjNmJYgvdLXxuMpmVAgscLA3nVKOSK6mhh7uyAAd5ueNwQgsnsXBjIzIOx7Fwo0QA+bAto5A2IvYG/rRFjPOH+WS+Ah227iCSJqD4LW6fAk+gDMgF6a48rgVxJiAytkTKe0Ena0UtPFBs9AgZr0Q5YO+ngdtL7aqQO2nH9b1DUe1yxbwqET7BArFjFQ8prmjmjeLzFpW6D0lkekoW80wO8FEisvs1UOuQbesg8OWs1MTAJZTPfKe+14QLEdv4OoYkT4EktAjLRp5TtARJkWT327Hch9AbeeZPycBBS7j1rpgYKQHpwEryRX1rZAvQx55LfwF82wN6ll4nAm9JUlFaRep9WjknzNx2AzJoBYXGzW1zt3tMyt8SXwOKtb9TF4N7Hzo41QgCPhEC6Vl4Go/5cGMjKV65msSlJme4BXgpojfNHLz0Hf7BH4ffMpiVoiJwAg4Pc4oWY8FZp55RCv4ScSWjQBIK2A3jESB8Hve5fesTsxwr75oV+4XRVF04/kqyRelSOqHazxP4zo5TPJ7i/iK1nzb6HSmBdElxX+yPH87FyPP1CvDssiRNDDek3beI4cT8f4Do7A3giQCFjrG3hGqTkhGBLYkBRuZKj5ejxi8K49lRH7AtfALGl9AV72FxSMPI187w1mkdowGti/0u8Z8lcQMrzNV8VgosbASpyXCEd0+llPVCMTshpm3sXUsr4mE9A3ry0TDq3FTSSzYcPfG03me0neac1O7ADcHbvKV/E5+5gkvKby4c5v8QYY9DynFwlwIsx8TcK4GGgZuUFqwVpvgwk+TPxnKX5WTk7MJs6gzwelojHJ2EHi68r9N6AvUV23sDqRG4E8NZCRUsGUnzuMebxqU4gKujQ3tsBPO339L+R95Z2AIuSMrF8PDFzGzvxG1oWvxpLMO2OHCPpcXlqPRugjdkqWpUrAjyyYFEVEsmXBkEmeYpgU1/XjPY/CmCUt8uofLFcTlsrL2kxDVYxGi2uuC1G73mZKVA/fQXt9jnowN+I98jEQjvGJqcNYl5yKQEBeB/fiwDKiCmDEwkDDg5rRlvBLhJJUM2+J88nV4gqnp8/LLaT1zuz72vT/sW2o/r05h6cGJDi/rKqr1LnW/TUBfEUi7FlfTghcdNAJNrcMU0L8MzKNZsP7HhQTwuVnhXIwcCsTPJcGNcM4BmNJ/5syMCj3IlnvWGYF4dl0jbgY9Li0vYzMxb6Xns1cuywA3B27znNvTB7IXIeraNjCDmv8zxi+0wCvE0B8NDkP9IN75VyD1UKzpRdf0mh4a6iOb+BhSzh3++GxzWVsFDVHZH+jRh65nLG9MJCZQvgmHlKXpMToHWiaKbSRhNvwPHKXlbmPs3Zt7y8FMhuP84WSVX1dB+2ObDBK2FhN/SgAeevvY9L6oYazbE3eAIZufIbVIT3CjTmE/oLCM0+Nggh8TuU93I1l7ZM7X9yNFf7Mj+6h5YvBgAOQMU8ty2j35Br28JlKGe2QubtT6u9oDOkpvmMXTE7ZN0HxbueGbRRXQzI4eQNc+dEO6CkCXaaB5GM4nM7sTTESDWOT0agdTO/6k/tYLRNVA9hH7v5v0gqQer8AtKQMwKuj1YKQPIi0lMa9sXWXhAZZX929agj5yBiMnGluQ9+3kHtVyMhjMa7ocfAqYq2z0iCN9fjBFSmAOEDs5A75Hi/EqSiVcpLDEMTOlqK98fvUDVyGhojTjVOVeje5qtAj8fjeVn0JZvPGyB09FdNf4p2nFgaxvPmwAU/o/XFmw4zJyZCh1I2x4hepqudDwiIoTxmFDid9rnRlUiyBpiEW2zn5Mrv0Ln4SIgAQKRfZXM/AY5fiGlC4uLVz5wxlKb6tz+AMIp9KaYjcfE+h+QUI1OeADQhMxFtOu1/nX2mKf+9hO1LnxuGZsHziJEHLtYyiPOsHoxl1B5ha9IH893CWmDUJ2v9TAI8NiHoOysa4m+IBA8d60WOEksgbUrwwkBWACZzAjDg85vasfE2eqEn8j1R/RQaHFnGv40NrV7X/Ii6M7NpAXJaj0B20wHwEtWFib0JntDTElMgLrEaMmoPKGlz2vbqbF5iSRNST3/rEaUsP1GTmNTRqkyiliXtJD+SR6KjQKUB8NYegNzOI5DTdgB8tZNRBTi1qtdmeIdtdibq9KGCXqU2Jpftgdyu4yofNO2BxGzrgLVELZsV4RutqvtVatd612Uj5wPaVtKXbEyTviTqWpt1kJiiZNTuYX1K1LXYltYsPTHRILZ9/sbIfBnlPGSWv9lzoubNaVP5NbftACTb8KtZPu6f+2HfFSrF+wyq0o1A7PqtnxLg2TC22w7eCICXmFbGbOy+2xbbUx/ctl9+Lw5ePKFbq5XEdJKObwA9PCE4FbHFu35WlPzK/t+c/S/ng83Zr3i8JpZNMZOIY+PGtr/4+7W8lwBvEwC8spwmBvDuFov2bmvJPDJv+8lKTuj2NJJ8JGn0pvCAnA8kr68nr0uAtwkAHnOwmJzQhUdZT2aSZeknLzmh62ki+UTS5E3lATkfSN5fT96XAG8TALxTLeMRCd52wxMs1pOhZFniBBatQ4eko0hHSQ9Jj83AA3I+kHy8nnwsAd4mAHjryTCyLDlBSR6QPCB5QPKA5IFXnwckwJMAz9aDSg7kV38gyz6SfSR5QPKA5AHJA5gHJMCTAE8CvBjzAB5g8l5OuJIHJA9IHpA8sBE8IAFejBf3jQiTshGMI8uUE5bkAckDkgckD0geeHV5QAI8CfCkBC/GPCAnvFd3wpN9I/tG8oDkgTeFByTAi/HivlESvI0q900ZKLKdclGQPCB5QPKA5IHXiQckwJMAT0rwYswDr9MEIOsqFyzJA5IHJA9sTh6QAC/Gi/tGSdI2qlw5MWzOiUH2q+xXyQOSByQPvN48IAGeBHhSghdjHpCT4us9Kcr+k/0neUDywGbgAQnwYry4b5QkbaPK3QyDQLZBTuaSByQPSB6QPLDZeEACPAnwpAQvxjyw2SYJ2R658EkekDwgeeD14wEJ8GK8uG+UJG2jypWD/vUb9LLPjPts5NQDWLn/DdxauQAFHuNv3iTapVbtU+hBaDLZki83gjFeK94kXpJt3Zj5RAK8GA/ajQJaG1XuxgxcH8SnFtn+3NYtMPtXGLr+AgYvPYekxI0ZkG7r7PT7wsnvYPDKP6Bv+QlsddW2BiibfQb9V17AYOQ3cvMFFDXV2Sz4Aahd/BXCl/4NrQvLNt9uPK3Tag8yMPPB/HbD+sYlZ8HsrRF4e2UYjq10QVZKKvuu61wfHFsZhuN3hqG528+em/dPOozfmIAP73RAQoznIFpmcH+TUp937ozCxEIpq1Nacxks3BmFt1dG4dD5Oog3K98TgqW730RA7zJ4zb6TzxltKe3ldePHtOyDFJAAL8aT00YBrY0qVzeIEvywv6gcjhVXwGh6xppMfOVH/gVTd17a/noW3nFVPs/3BWRk8sVb18YY84xd/nFJ3RAYvgjFIx9CSk6mqzbRvHnbfnfetqQJ2L5iTOeq3mbreniqofvm/yp9NHHzT+YgYp1pSekhXv2w78rTCMC7DcEk477fGiiGc88PwlXlNwcVgfQIDbww/3Q+8vwg7NzlRNqlprn8dLtjgBeX7IPmwyHoPlwNheW0bPOFtPfKJKvT+1fqWX8VTrWx55efhiHZQlpZMniBAd/D/eUsD5F+5nWQ30naSB7YOB6QAC/GC8xGAa2NKlc7eAP+bfDrxG7l93VlwZosCMFj/9cW3BEAOLj4vqvyOQh6tQCer+uPrL22wMqEnznNnAO8wl2/sHInV15Aw/xDCO17CLXzD8FfWmxNWwTwJm+92gAvuXyOgZhLR8dM2xWfVQRnv6UAb0YAeHNfHmCgySnAO/DVAbADWHh8YWC2a4/92Oo8v4PVaekql7jmjTaz57YA09MMF+5HpHg3TkGKBRjEdZX3G7eoS9pL2lMekADPZEGkBHJ73SigtVHlaukzXtnLAN6lXCeqKveD0dv0AQRnPoWKqY+gep6DkKk7LyA48RFUTH0KlTOfQnZto+lira03+f+qAryM9q8Y0Ap2NrlqE22nr+2qAsyqZ845lqZxevwOmTlpLsv1QdHkHaiZewwl4b0u07rnCdrOaK5D76m2d8TWbKjcnGdjAfBKxqrhyIMpuMgkgQQwHoDlr3bB4Y+6oXEgx5RWGJg5AZExAXjxKdB/4j4DwOOhLNP6RUN7mWZ9eV3S+82itwR4EuDFdMI+1TYRAXiDMJroFhS4H3xxyfthNKKu3XntKbzlpj8TfbAF2aNxQPNqSfBSmznAq2jjtlRrPVk3Lqsq1qk7v0HSZpXcJLZwCdWKtZ3ZagFe17lhJjlT1bxUGsivH17jqlRt/2YObGPpR8fMgSBNFyuAl1rF7ROvLU3EdL6gdZVX93OfpJmkmR0PSIDnBhA4+HajJGkbVW5ZdhU86eqFRy2d8Ki1B36OqGeJmva7zk71eUsnPO7YDtdKC2O+OMSlH2MAb+LmU0fSqbyRr2EU2ZbtvPkCKsJ7oWzff0UkZeYAz991E3qv/A+TqBFV8M6b/4Sy3inDtmV2PYDu5b9D99knkJy2DSoP/gQ7UNk7rv8G2ZW1mrQ+KN/3HXSf/Tu0Lf0MAxFbNlLWyJXflGfkOfl1L/8M2UEDdWliGOqOfg8tJzW/o5+Bx4SPEwKnoO3sr9B5muRNaUFs8F5EntEy/w55NSWaOqcASd+y9LNY5uJPUDvzru5b/cQUgJJdz2AYtVVRs1/6AfxG7WNt4LRSnTkCUDr7DEZQPqR/62feNQT/mc3HmXTq5LS1dHQ1AM/bFWLg7OrzGQjPVsHRPxK7vXEIdQdg6FyPYt+nBXgdp7sV542DN8LwHrLzW340BuQZ/b1zZ0Dn3BErgLclPgCLt1Q17crdi9LDmPGeBBj6cSxp8irRRAK8GA/WjQJaG1XufAOV2Kl2d9T+zuj6S2vQwULvboJwB/B8UH3UiYOGAcDzVEPd6X8LwI4AEPzrOar3Fg0e4+VNImCH05H7fAHENECfJm/t9/h/yMDhId5/CiYM8zC3wfN1/1loDy5De29kC2iW3s4GLy5tP/RfTmt6AAAgAElEQVQiQKYti/yvHh4y5h1k60fAcgeTOop9M3XHuN1tBz5lAO9AjwFQRvMDAXjcyUK0wSP2dFQqZ6Q+rXt3gL2fPkDs59KB2O2JNnDpkJyNHTy8sPCcO2/Q/M2uMxq7PKcAz8rJgi5WI+99GaHTI+jIt3fwoOnk1d18Jukl6RVLHpAAD03gsSDsRgGtjSq3PqccrlfXwXJlNaz07WL2d9+1NcFyZQ1crqpTf6E62J/pM16kV9EHbgCef0AEMG0L1yCnbQnalkWJHJFYab1oqxdFcNe6cBdy245D1cGfBFDUOCECEa72pYDjBdTsugRFIw+Y5JEAmOGz1wXa5IRvQs2+hxCcvQttCLT0LT1RnhFnB/KrOXgXvIaetV1QNf8YGhYeQ+38Y9h+napb9W2jfB/vn4WquYcQmrsLwdlnCCC+gJrZu1BN3pEyTZws4nMPQ93CY6g/+BhqDz6DMaQ6Nw3FEd/FvG1VYPcCamYuQW7XEjRpAHVuqYF9nKcaOljbKI2JpPNnCM3ehYZjP0WktUYAD3vPPoKWLGuTAk92AXKymIbybPq9F+YecYA3OpYn9CWhL/donYNttV7YEu8F1cnC2ou2en89TJxphZH3mmDuzhwDie/d6FGe7TjTCuS381wzlFeIwKvtHHeyOHUhxOqUjVS9l7/qdeTF2/32HQSEpTctHTPyKgHZq8wDEuCtAlwYdexGAa2NKhfToLm4gwG8S7nRhfPA+Tm5dwzwNECgbmKaLXhb4n1QK4AJEQR5AhcEsKNViW4tv8DAzNTtvwkLpgjw/ikARyJloyBocuVvpnZusbDBKztIJYli28xp7IO2KyoodG3bqIwpHwNeVqrz7JG/MoA8fkUffzB3hIPy4fevoD6LLCyafiUgMRjepfmuAQLDpw3U93lw7BMaHsUe4JnTyn6RqzrczcDZkhKyJB1mH2kleNb5uLXBW019tWmb9nwsAV6M1wotjeV/a/6X9HFPHwnwYjxoNwpobVS5eNCdaqHq2hHYnSpKE/B3sbx3CvDwd5MrP+oWewy2tBI8DNKaNBI62hb8TSGyT8PPm2fmNMAjBWqXaMgXc+AVCy9aXg/zcmhblCsCTlYATUiDx5KT9OgbAszySo14JgBdTEL3mz4AtSaPzvlDOhqb1jE+D95mAO821KZh9aj7ydS8nBRILC+F88hz9soz1bHi8jfjEOrKAU+yfXluvWit6uP2nb+N2yoe6JESPLf0k9/b87ekUexpJAEeXpRicL9RQGujyuWD0gcrg9OqBG+kA0o8a7dY8jJTAAM3KyCSUnebSYp6jy7qQYCnGgEJEQRxEEZUgL8rJzqQEy/wDxv1Bzt5zDEOrF4Cfk7bwN//E9JSjWm2eQFeP/Td4mrViZsiTSl9uVOK2C8KDQWA5zacy/oBPFLX0tlWTXgU7j1LQqXsX64TpL+UR+hVArzYL4CUtvIqabsZeUACvBiAOswYGwW0Nqpc1vbEQvhhp+po8Us7t/dh72NMZ5qvU4Dn6+ahRgwDIAtAAQOJBo2NGAckqs2Y/j+OVccB3O/gL6Q2W3wy5e9xmfw9aedmBXjxWceYitqMluJzAzs6od/+CSkmIJnyi3hdPxUtLXdrYS4MneuDM1/tYSpb7DRBAh9nmIyVjQR4UkUrjknan/Iq6fIq84AEeCaTabSdtlFAa6PKpXTy+WqY/d3j6oBeQhZjOtNynQI8DJLGL4oODUpeAlBAYEuQ7L2EmonTUNC3ZPorGjgNKZnc/tAOwNm9J3XDdcfgkdLAydVJOUI+iB5WklEhDe5jB+lFgPcCivuOm9KV0Lyw94hOtb4FlUNsBc2dOYwWIndOFqZtxe12fK960V59Pg0DR1sE9e2RUxWG42cjAZ50sjDiH/kstmNC0jPW9JQAz/GE7Iz5NgpobVS5lCEHS7sYwPuoINtwgaLfaq/5Va1Q39zFfqWFztNHA/C6jc6oRUBBtMELQMsl7oGaigIja9th9N8OWNm9J3ligFfRytW/RuWZPXNSjpAW0WOtAB4JUj2IPG1dBamm43aV9XQTJkWgDy0/6mvEi/arXgWU+nprmUTPzLMVAzwjT93Y1k+c71iYlHuPZZiUqPtcpOla9pfMW9Ka8IAEeDEerBsFtDaqXDqRHGkYiwC8MdidZmQsbzbg8uDk3UgQ1ciZlzdcRMt3CvCwtGj8yhe6oLcYbIgADx9h9hLcAiw7YGX3ntA3pe4+sx9sNXDUoH1gdXVSjpB+lcAJS9ZMAaIgHUVSUzdjcpX1dBPoWKCPmzoafutlcfDUOHT+SODjg6bn0/p76xkINJPyxbaOdMyiQMeff+Qw0LEfdp/6DK5duwdXrt2D6zfuwXCtPnzM2tSX1lteJX3fbB6QAM9w8o2eKTYKaG1UueoE4oVPBmgMvDB0Jxo7CxhPNtjQXQV6lxfND3zX5ZHg8Kgyj2jQr42plj/Jw3VoAR6235u4+SfTkyDiUrvBWymef2sHrOzek/ZiEDu0dNmVdJTSC5fjdWKntkrghAGeleq08ggN3/ISti/qA0XT+icGJiElu0jf9tXWM6kDLkc2FrdsjiqjdYnmGtzfBLvfq0ZOFDTQsV6Cd/FOm76d8SmAT9I4d0Pks2jq5DRNdEeV5cFxevpFhL7S+zb6dcVpX8nvJI0xD0iAJwGe4WKCmcT+HgO83fC4IQST2bkwkJkHY9m5UGIJ+NwDvMyuq5EAvg+h/ph4pFbD/EMlsC8JuFvY2iu0rZgdRUYcI15AXi1ZJH2QN/KMSchUo36NNAmBCPJ+8tZvUNg6BZ5EHyRkbgNv7XGoOfIL7FDe/UmwA8PAShs8mdDV7j35hkgXh9CpFG0Ln0Fm7R7IbDoA/qY94DFQGyeXTYI3qP5SA5NQz8KxvITSzilIj7zzVg4YpscAzVQCJ4ydAM8zOAlpZQvQx06n+A38ZQOsPullHJwQ8EpjARLaDi8/AX+wEeITfbA1pxuyui5C61k1yLSdc4yzeuoXgCF2SsM3MFRuEExZaKc+vf34EAMdH77aDnWjlXBSOaViAkYW2wUbvOkDxkf6xaXkwSkUauXIhWao7CuE8sEiCA4WQnKym42V83b0n7jPYuCN1+ULY8q87fpxLQGec5qb01XmIWnjnAckwIvB5I0ZbqMkaRtVLm37VHCA2eBpjyl7WGJ1MDr2ZHQmwQseo7Hj9B6s2OtSBwg8/bZHYhkCPCI9yT0mgCxcDr7XHstlB+Ds3lP64iPPcHnkXntsGAFNBGxqvzP7X9VpcAYrUp86AU4Z7X90XJ722DAsITWrI3mu608ydl3Wk9ITX1Or9jEAc+moC+mxi7mj8/wEU69ir1nt/eIF7bnE4mTOT8TAIVbU+12ao8pwG6O+9zTDBSrhvPE+pHjE+pjnG5ASPBf8YU5Hp/SW30ka6nlAArwYD8KNAlobVS4fVF5YqGyB74epqjZyNu3kBJzJtjqiLA+OfERPE1ABnt0iy09lsAYxnfPv6KUNiWFo0R1N9hL6lx5BDZMG/mYYbiMuqRt9oy975MpvUBHeK5QZmP0lAnw0UsEI35UdpBJI8zh4Ko0DULLrGQzf/B+Y0JxpW6pxvBDtCfX11IKokiYjxw3uXGKlYqX9T+IMGp99a1S+vq2ewgXouKQ9Mo6n7V/+HnIUiat2EnNXT1pf8Yq9aW9DMGltJGHFg2Uwfr4XFh9Nw8VIoGMC8C4+m4MTK/3QZnDEmVhP0vZ0aHu3E95/ulfIg+Qz5Ci9ln7W/0sGLzDwuzBULfC2vm48r/jcHfDpPWxbu7aBpK3qIt/xfpG0eLNoIQGeBHiOJ+3NNDkkl+2BnNYjkNN2AFIL3MXti/v/27v7pyiufI/jf4/U4KqAs2EwDuBDQIOI8QkDERI1iCHR+KwREgj4cH1aJQajRp2IDwwqE9lYBkKsvTeV1N6qtWr3pu7dSuKf8r3VMNPT88DQI2e6e06/f6B4GGZOzzmvc/pzTk93l2+Syi19089ftqVbgm+2S2mZvwaOQllY+PouqTLaZdvn04efy2s3ZZwQU4iy/9z0uRlkvujZ4UCfsHcv2kK8V9uvWdooF+KfozM+n1iZx1hZ+94Vsz6jsUn5oqfNgTqlD9pu2zzaktcsXlcEPMXQ3VpJc6tcOn/xdn7aztp2Qfno8rczoeTRdZtnilqfn+/PybNoFyoeg1S1q/UM48PbspzgkmO7rZ9rjMYeSF2BVkVVvVdeJ1+//H8xmCHg5RikXqUB3QpabpX7KnXEcxgcMRCUT3/okZtTu2TmMikamShtlIuWSx9dPJz9rGAMaNTmivej2FBjg4CnGKZbQcutcumIajoi9ei3elwqW09ulQ/+Y13KWdc6OChZvFHOD09I9PGkjERvySqH7kutQ93xHvw2DhT2/RLwCHh8NkaxAQbpwg5a1C/1iwEMYGBuAwQ8xTt3t1bS3CqXTjZ3J6OOqCMMYAADGHDaAAGPgMcKnmIDTndiymPHgQEMYAAD6QYIeIp37m6tpLlVbjoofmeQwQAGMIABDLhvgIBHwGMFT7EBBjb3BzbagDbAAAb8boCAp3jn7tZKmlvl+r0D8f7ZiWAAAxjAgBcNEPAIeKzgKTbgxY7ONrEDwgAGMOAvAwQ8xTt3t1bS3CqXAcNfAwbtTXtjAAMYKA4DBDwCHit4ig0w+BXH4Ec70U4YwIDOBgh4infubq2kuVWuzp2D98bgjwEMYAADxWqAgEfAYwVPsYFiHQzYbnZkGMAABvQxQMBTvHN3ayXNrXIZDPQZDGhL2hIDGMCAPgYIeAQ8pSt4y1pOSzQ2mfY1Kk0V5UrL8ccgFJKemxNpdTkpXw10UJeK+60/POmz46K9aEsMzG2AgKd4R+HWSppb5aZ3smUt5zICSXTsmTRXVXgglATlfvSovJw4If9n+Xo59bEcWL7UA9uX3mHDcuZRelielK/PdnlwW9O3nd/T+wa/YwIDGHDSAAGPgKc0LFgD3l+O75Fw3WZZ01AvAcX1/GqdJCjfT/bKy+d9aV/H5NPVrymth1fbvszBr6xmvaxpaJKGln4zOBPwMutJVX3zOtQtBjCgiwECnuLg4dZKmlvlpncEa8A71rrSc6Gp7f16+fTAWjnSUS9PnnwaD3rH5NiqoOe21Vq3JeXtEokf+ibgsQOy2uBnPGAAA9kMEPAIeEqDjTXgdbfXK33tbIDn87cTV/YWT8Cr2EXAU9xX52OH57JDxQAGvG6AgKd4p+HWSppb5aYDL6aA1ztEwEtvP35np4UBDGBADwMEPAKe0lU2OwEvuH61TI52yc/RDyXa88as5R8caJWfo13y82iHHH8z+Rm5xVUh6f1si/zwcJ/8e+ozy+fpeuWf334kd/vWykIb7Wo/4FXK3dvvT2/LaN+ajO0tWVIlseEPph+f7f0Eqqrk9o1O+XfK5/965b+/eUd2vD73CR4lrOBl1Ds7IT12QrQj7YiBwhgg4NkIAvngc2slza1y0+vGTsBbVFeXDDoTHVJbmg13UL7/PhHeUk+COHX9sCXUpZ8wMfP7b6Pb5c9ztK3dgLewdqW5vb/e2pQRNIzH/+fHmXJ/jWzOeHztu03m45kneBjPOyLntoUynmetWwJeNiP8zWqEn/GAAQxYDRDw5ggB1sqy87NbQcutctPrxE7AM55zZyxxgkOvXHq7KiPcVLauN0Pcb49aU1bkzIA3dUx+utkuX/atmz5xYvjqbvM5RpD62+nM1Tbr9toNeIGqZIB7kSXg5Xo8Jcw+75M/nu6V290N8tnRJvnPJz3J7f2xS7YunP1agQQ8Bm6rXX7GAwYwMJcBAh4BLyNczYUm1+N2A96WT7ab4eYfX6zP2IZk+OqTsUMrUh5ven+tXO+uSwl9iW2qbX/LfN0/xt/LuYqXLCP3WbS5ApxRbq7HL985Ym7Pi1tbMrbny1sHzMdzBVICHoN5wjjfsYABDNgxQMAj4KWEJztocv2P3YBXUlYtL+KHNV9O7JY3UlavQvLTD/Hr1f24X3YH87lI8lJ58tf4od2JjrTXTR0UCh3wAlW1yUOzP+7LukJXUrbC/J/fv23LGlqN+ibgpbZdLoM8Rl1hAAMYKBMCHgHPlYBndL6rD47GV696ZejdZeZ21L670VzV+vWbLebfrR22ZElQej9rlr+NHojfleKo/PPpUfmX+bk943DobJ/vmxn8Ch3wlqxfY352zzhk/L/jh6a30dhO61fic3m5tpeAxw7L6p+f8YABDMxlgIBHwMsaoOaCM9vjdlfwjOev+2CbGeReXHvL3I5TN5KHLR/sCZt/T5S54YONKcEpEZDSv//xdOcsJ3A4E/DWf9xivr/0bcv6+9TuWbeXgMdgnvDPdyxgAAN2DBDwCHgZAcoOnNn+J5+AtyCwTP4+FT8UO7VHNvzJOMnA+rdsJx5YHjcuOTJ1WMYvb5GTR9+c/jJOXkic0fpS0SFa61my+ZxkYQ2wv493yMCBteZ2JrY3+b1R+rtSP2torWMCHgO61QM/4wEDGJjLAAGPgOdiwCuTc5bVuhvvLpPKXZvNVS/rql4C8irL4789asu64vX42/gZurNegmVmYDg5tD9e1hE5Gp79VmWBqhrz84LZLoNi/aydNQBaDzW/uNo0r3om4DGYJ/oA37GAAQzYMUDAI+DNK3ikI8tvBa9MQpazXl9c3ShnzdCV+rm8RDnWVbEHe6sztt262mas4GW/xt7M4LDvzC4zTN7Jcig4UeaCQDDlxI3017SGTmvAs55da5zRm/685OvPPVgR8Oauo3zqk/+lPjGAAd0NEPAIeBkhaT7o8w14CwKV8nwyfpjWepeHjDNrZwYja8Cb7K/L2PZLlsuOzBXwrK/1y2Bjxmsl68ES8J4flA/Tzur9+sEJMyhaA15KMHzeJ9/2rJ61jOZ3aqSunOvgJeucnQ91gQEMYGA+Bgh4BLxZQ8erwMo/4JXJiSuJe8Im70rxy+C6rNu1ek/yEO7L58dk+FDd9LXlltWF5d7wQTNoTZ/EMMcKXvpFiP9rcOv0BZNPHm2Uz3enfh7uqiXE/f7kfdm7tlJCtcvl3nDiMO/MtqcGvNQTSYxt+ulas+xcE5I/LVkqb65fPn3LtV+eHJ/e7u+Or8z6no12YAWPgf5V+iPPwQ0G/GuAgEfAmzVUvMrAYA14x1pnDyzW167Y8mZqMHt+Qs5unO3WXdbVtGQgzDgrdapP5lrBM7YheUg47bWmUq/NZz0Mm1GWZeUxPeAZZQxc6Up7f2llxZ+fM+CVt0skNinR2KR8fbZLaZtZ24Kf/bszoO1pewzoZYCAR8BTGhasAe8vx/dIuG6zrGmol0DOek4NbXPdgaJkSZWMjhzKEppOyGhfo9wfmbm+3lyXSUkMZkcHtsu/jEBoCWrZPjN3cKA95X+m/3/qoHxxsEn+Hr8w84urG7LWZ8sHG+Qf32c5FG2UOXVCfopsl86VmSd6lNWslzUNTdLQ0j8d7gh4eg3ACYN8p10xgAHVBgh4OYNH/uDcuiesW+Wmg7QGPCOMTH+NPZPmqnzuRmGv3o3Dsge76uXoh/Wyf0dtxm3A0rdNxe8La5aZZXZtD89654nZylq3tXp6e6e3uWOFbF4z20qlUQdhOfMoXoeJumQFL2uAnq2++bu9vkQ9UU8Y0M8AAY+Ap3SHuazltLnSZAa82Kg0Vcx+AgEDy2wDS0h6bk5k1OdXAx1K24z6n63++Ts2MICB4jVAwCPgERYUG2BALN4Bkbaj7TCAAV0MEPAU79zdOlTqVrm6dATeB4M6BjCAAQzoZICAR8BjBU+xAZ0GCN4LOzwMYAADxWmAgKd45+7WSppb5dLxi7Pj0260GwYwgAG9DRDwCHis4Ck2wKCp96BJ+9K+GMBAMRgg4Cneubu1kuZWucWAnG1kMMYABjCAAb8ZIOAR8FjBU2zAb4MI75cdJwYwgAHvGSDgKd65u7WS5la5dGrvdWrahDbBAAYwgAECniYBj85MZ8YABjCAAQxgIGGAgEfA4xCtYgOJzsV3BloMYAADGHDLAAFP8c6dQ6V0Zrc6M+ViDwMYwAAGEgYIeAQ8VvAUG0h0Lr4z0GIAAxjAgFsGCHiKd+6s4NGZ3erMlIs9DGAAAxhIGCDgEfBYwVNsING5+M5AiwEMYAADbhkg4CneuXthBe+tgzclGpuU6OMH0rC03HaAK2/4ZOZ5sUn5uLna9vPcwku5DJwYwAAGMICB7AYIeBoGvIUr9sv9scnpsBa5uM9+UCttlIuPZp43Eh2SoOK6oRNm74TUC/WCAQxgAAOqDRDwFIcYL6zgGUi6Lj+Nr8aNS2v1Utshb3XHNXMVr3dnve3nqYbJ6zHYYQADGMAABl7dAAFP04BnPdx6Y6DDflAr3SrXjMO7sUkZuXtBykpfHRcdk7rDAAYwgAEMuGOAgKdpwFsQWCGnhifiq3EPpG6x/c/i7TwTM1fxPmyssh8OFdclg4I7gwL1Tr1jAAMYKH4DBDzFocQrh2iNzrnx6B0zqOVzuLW84VPzeXl9hk9xXTLAFP8AQxvShhjAAAbcMUDAUxxKvBTwAqFOuRM/2eLu4KE8VuJWyNmRmcO00UfXpcbWYdrVcuT8bbk0dFPOD0bkytAlWVNhf9WQAcCdAYB6p94xgAEM6GmAgKdxwFsQWC0X4kEt37Ni95z/Lr6KZ+8kDSNMJs7cnb5ES2xcmqsq8giVenYwBk7aFQMYwAAG3DBAwNM64IUtn8PLL3C19T80D9N2t899Nm1JxS6JxE/OSAS8TQQ8Aq7i/uXGIEmZ7JwxgIFiNEDAU7wD8tIh2gWBkBy5ljjRYlzyCVxbLJ/fsxvwEoeDCXgMhsU4GLLNuMUABnQyQMDTOuCVyfbexEpcfgEv9Pbp/FbwytszVvA4RMtgqdNgyXvBMwYwUEwGCHgEvKyHEfMNeAb60vIqqQhVyeLysJSXc3mVYhoI2FZ2XBjAAAb0MkDA0zrgOXeIloFBr4GB9qQ9MYABDBS3AQKe1gHPuZMsGAiKeyCg/Wg/DGAAA3oZIOBpHfAUXCZl7Fle97JlgNBrgKA9aU8MYAADxWmAgKdxwEu90PGxrJ+1y95xLRc6fnzb5oWOQ3LowgOJRMbkZmRMvrk7Jp1N4TzKLM4OlL3+eC/UCwYwgAEMuGuAgKdxwLNe6qR3Z4PtsPVqtyoLy+nE3S/i18Ozc3kVBgB3BwDqn/rHAAYwoKcBAp62AW+F5SLHD6Rusf3bhu08EzMvkfLhhmqbwTAs/cOJa+7N3OaMgKfnoMHOgHbFAAYw4H0DBDxNA155wydmSLtxsstmSCuTBaVb5Vp8BW7k7mUps3UfWgO65bAuK3j261uxPwZd7w+6tBFthAEMOGGAgKd4B+uVO1l0XX46E/DyPElidcc1Mxj27V5nO6gEln+Udi/aUWmqsL9q6AR2ymBQxQAGMIABvxgg4GkY8Bau2G+GrcjFfbZD2oLSRrkQ/xzdSHRIKvOom5XvXzGDoXGrsi962uyXm0c5fumYvE92QhjAAAYwMB8DBDzF4cILK3gtn92Ph60Hea2iVW5N3p7s8LaVeQW0Pee/swS8/D7zNx/APJcBEAMYwAAGMJBpgICnYcBzHvpquTg2c2KFsXp38fDbeYVD57c3syOwDdQJBjCAAQzoZICAR8BTEMaCsrrpXdn89nuyuWV7HidmMJjoNJjwXvCMAQxgwDsGCHgEPAUBzzugGVxoCwxgAAMYwECZEPAIeAQ8xQYYWNi5YAADGMCA2wYIeIp37l44ycJtVJTPwIYBDGAAAxhw1wABj4DHCp5iAwxq7g5q1D/1jwEMYIBDtMrDDSt4DCwMLBjAAAYwgAG3DbCCp3j1hoBHp3a7U1M+BjGAAQxggICnOODRqehUGMAABjCAAQy4bYCAR8BTfpjabdSUz8CKAQxgAAN+N0DAI+AR8DCAAQxgAAMY0MwAAU+zBvX7jIX3z6wdAxjAAAYwwFm0zFgIuBjAAAYwgAEMaGeAFbyCoQ5KZe16eb2mTiqXV0ugYOUwU2OmhgEMYAADGMBAqgECXoGCVyDUKffHJiUaS35dHxyQygKVB+xU2NQH9YEBDGAAA342QMArUOAqqdglEUu4SwS9GwMd2i0D+7kD8d7ZgWAAAxjAgBcNEPAKFPASjV26KCQbu86bK3kj0UEJFrjMRNl8Z9DBAAYwgAEM+NMAAc+RsBWS/uGJ6ZBHwPNnR2OApd0xgAEMYMBJAwQ8RwJe2Ax40di4bKqq4DCtI/XOYOLkYEJZeMMABjDgHQMEPEeCBgGPTu+dTk9b0BYYwAAG9DdAwCPgsZroiAH9BxN2GLQxBjCAAe8YIOA5snMPy6n4Z/A4ROsd/AxEtAUGMIABDOhqgIDnSMArk44zsZkzaceeSWv1UlbNHKp3XTsu74udEgYwgAEM5DJAwHMoaLT0PjQvlXJnaIBLpThU77nw8xiDIwYwgAEM6GqAgOdQ0Cgpb5Ur0eRdLaJjz+Tq9XvyVeS+dDaGWdFzqB107ci8L3ZSGMAABjBgNUDAczBYBJa3y6W7M9fDS9zZwvh+cmc9Ac/BdrB2AH5mQMQABjCAAR0NEPAcChZL6o+n3Jt2OHJL9h/olr2HumVt+DUCnkPtoGMn5j2xc8IABjCAgXQDBDyHgkXbQPwki9ik3BvqlYBD5aY3OL8zCGAAAxjAAAb0N0DAcyRoBeXItfih2bFn0sZZtKxYOuJO/wGMnRRtjAEMYCC7AQKeIztaroNHB8zeAakX6gUDGMAABgphgIDnUMDr50LHrNo5Yo2BshADJa+JKwxgoNgMEPAc2emm3ou2uaqCsONIvTMgFduAxPZiFgMYwIAaAwQ8R4JGSBIreCPRIal0pEw1QOho1CMGMIABDGCg+AwQ8AoetoKydsdp8y4WRsALFrzM4oPI4EGbYQADGMAABtQZIOAVKGyVlLdLJGa5c0X858jZfRyeLVCdMzCoGxioS+oSA7TFflMAAAgySURBVBjAQHEbIOAVKGwEQp0pFzY27lhxfXBAahaXE/AKVOcMRsU9GNF+tB8GMIABdQYIeAULGyFZ1bBNGrdul4aGJilbpK7R6ADUJQYwgAEMYAADuQwQ8AoW8ICXCx6P4QMDGMAABjBQOAMEPAIeh4wxgAEMYAADGNDMAAFPswZlNlS42RB1S91iAAMYwECxGCDgEfCYtWEAAxjAAAYwoJkBAp5mDVosMwu2k1kwBjCAAQxgoHAGCHgEPGZtGMAABjCAAQxoZoCAp1mDMhsq3GyIuqVuMYABDGCgWAxoH/CKpSHYTgYNDGAAAxjAAAZUGSDgsYLHsjwGMIABDGAAA5oZIOBp1qCqkj+vwywSAxjAAAYwULwGCHgEPGZtGMAABjCAAQxoZoCAp1mDMtsq3tkWbUfbYQADGMCAKgM+CXhBqaxdL6/X1Enl8moJEOqYqWEAAxjAAAYwoLEBXwS8QKhT7o9NSjSW/Lo+OCCVGjesqhkAr8NsEgMYwAAGMFB8BnwR8EoqdknEEu4SQe/GQAezF0IuBjCAAQxgAAPaGfBFwEvMPEoXhWRj13lzJW8kOihBUGuHOtHefC++GSdtRpthAAMYUGPAVwFvBk1I+ocnpkMeAU8NIjoj9YgBDGAAAxjwlgEfBrywGfCisXHZVFXBCharmBjAAAYwgAEMaGWAgEfA0wo0M0hvzSBpD9oDAxjAgDsGCHgEPAIes1YMYAADGMCAZgZ8GfBOxT+DxyFad2YVzOaodwxgAAMYwEBhDfgw4JVJx5nYzJm0Y8+ktXopsxbNZi0MGoUdNKhf6hcDGMCA9w34MuC19D40L5VyZ2iAS6UQ8Aj5GMAABjCAAa0M+DLglZS3ypVo8q4W0bFncvX6Pfkqcl86G8NaNTCzLO/Psmgj2ggDGMAABlQb8GXAMyoxsLxdLt2duR5e4s4WxveTO+sJeMziMIABDGAAAxgoagO+DHhL6o+n3Jt2OHJL9h/olr2HumVt+LWiblDVMwBej1klBjCAAQxgoPgM+DLgtQ3ET7KITcq9oV4JMEsh1GIAAxjAAAYwoJEBHwa8oBy5Fj80O/ZM2jiLlg6tUYdmll18s2zajDbDAAYKYcCHAS8sXAePzlSIzsRr4goDGMAABrxiwJcBr58LHbNqx6odBjCAAQxgQGMDvg94zdyqjA6ucQf3ykyS7WBVAwMYwICzBnwY8EKSWMEbiQ5JJTt3Ah4GMIABDGAAA5oZ8FnAC8raHafNu1gYAS+oWYMyQ3J2hkR9U98YwAAGMOBFA74IeCXl7RKJWe5cEf85cnYfMxYCLgYwgAEMYAAD2hnwRcALhDpTLmxs3LHi+uCA1Cwu165BvTiLYJuY3WIAAxjAAAacNeCLgLcgEJJVDdukcet2aWhokrJFzlYyqKlvDGAAAxjAAAacNOCTgAcqJ1FRFt4wgAEMYAAD7hog4PG5Aw5TYwADGMAABjCgmQECnmYNyozJ3RkT9U/9YwADGMCAFwwQ8Ah4zNowgAEMYAADGNDMAAFPswb1wqyBbWD2igEMYAADGHDXAAGPgMesDQMYwAAGMIABzQwQ8DRrUGZM7s6YqH/qHwMYwAAGvGDAsYDnhTfLNtDpMIABDGAAAxjwgwECHit4LMtjAAMYwAAGMKCZAQKeZg3qh1kJ75HZNwYwgAEMYCC3AQIeAY9ZGwYwgAEMYAADmhkg4GnWoMxocs9oqB/qBwMYwAAG/GDAlYC3dPkbsrKuSV6vWSWLFgHND9B4jzjHAAYwgAEMOGfAhYAXlnOPJiUaS34NR67J5nAly8OsJmIAAxjAAAYwgAEFBlwJeP3DEykBzwh7I3cvSFmpc8mWWQR1jQEMYAADGMCArgZcCHhxTIuCsrxpv3xtruSNS3NVBaldQWrXFSvvi4EYAxjAAAYwYM+AewEvHmTa+h/GV/MIeKC1h5Z6op4wgAEMYAADuQ14KOBNSnd7PSt4rOBhAAMYwAAGMICBeRog4M2zAplB5J5BUD/UDwYwgAEMYMB5AwQ8Ah6zJAxgAAMYwAAGNDPgesDbMRAzz6jtbl8FMM2AMWtzftZGnVPnGMAABjDgesCr3XHJDHh9u9cQ8Ah4GMAABjCAAQxgYJ4GXA94lVtPmwEv+viObAi/RqPOs1GZuTFzwwAGMIABDPjbgOsBb0EgLMe/fJoMebFJidy6L1/eGpP+A+8Q9gh7GMAABjCAAQxgIE8DHgh4RsJeIYcHU0OecXeLu4Mf06B5NigzNn/P2Gh/2h8DGMAABgwDHgh4G+Wy9d60j0el51iP7D3ULS0bVhPwCHgYwAAGMIABDGAgTwOuB7xQy7nk4dnHt2XV4nIaMc9GZLbGbA0DGMAABjCAAasB1wPeWwdvmgHv1O51hDvCHQYwgAEMYAADGJinAdcDHtfBY8ZhnXHwMx4wgAEMYAAD8zfgesBr639oruBxL9r5NyidgjrEAAYwgAEMYICAN88lUDoRnQgDGMAABjCAAa8Z8FDAG5fW6qUccydwYgADGMAABjCAgXkacDXgvfZGp3xlXiJlXJqrKmjQeTao12YQbA+zWgxgAAMYwIDzBlwIeGH5/PaE+bk744LGxtdIdFCChBsCLgYwgAEMYAADGJi3AVcC3jlz1W4m3A1Hbsm2FZXzfjPMEJyfIVDn1DkGMIABDGDAewZcCHhlsuyNzbKu6R1patosVaE/E+yYqWAAAxjAAAYwgAGFBlwJeCR97yV92oQ2wQAGMIABDOhjgICnMC3TMfTpGLQlbYkBDGAAA8VsgIBHwGNJHAMYwAAGMIABzQz8P48MX/0XN6xzAAAAAElFTkSuQmCC;labelBackgroundColor=#F4F1DE;fillColor=#F2CC8F;strokeColor=#E07A5F;fontColor=#393C56;" vertex="1" parent="1">
          <mxGeometry x="565.11" y="473" width="209.76" height="154" as="geometry" />
        </mxCell>
        <mxCell id="jNVcOdFPqT6PLHqW6wM0-24" value="var a=$t(&quot;用户体验&quot;)" style="text;whiteSpace=wrap;html=1;align=center;fontColor=#393C56;" vertex="1" parent="1">
          <mxGeometry x="609.99" y="645" width="120" height="30" as="geometry" />
        </mxCell>
      </root>
    </mxGraphModel>
  </diagram>
</mxfile>
